NotoSerifGeorgian-CondensedSemiBold.ufo
<glyph name="acutecomb" format="2">
  <unicode hex="0301"/>
  <anchor x="-48" y="536" name="_top"/>
  <anchor x="-20" y="766" name="top"/>
  <outline>
    <contour>
      <point x="-108" y="606" type="line"/>
      <point x="-50" y="606" type="line"/>
      <point x="4" y="646"/>
      <point x="86" y="721"/>
      <point x="107" y="756" type="curve"/>
      <point x="107" y="766" type="line"/>
      <point x="-26" y="766" type="line"/>
      <point x="-43" y="721"/>
      <point x="-82" y="664"/>
      <point x="-108" y="619" type="curve"/>
    </contour>
  </outline>
</glyph>
<glyph name="circumflexcomb" format="2">
  <unicode hex="0302"/>
  <anchor x="1" y="536" name="_top"/>
  <anchor x="1" y="766" name="top"/>
  <outline>
    <contour>
      <point x="-147" y="606" type="line"/>
      <point x="-88" y="606" type="line"/>
      <point x="-66" y="634"/>
      <point x="-25" y="673"/>
      <point x="0" y="705" type="curve"/>
      <point x="24" y="673"/>
      <point x="66" y="634"/>
      <point x="89" y="606" type="curve"/>
      <point x="148" y="606" type="line"/>
      <point x="148" y="619" type="line"/>
      <point x="122" y="657"/>
      <point x="75" y="721"/>
      <point x="57" y="766" type="curve"/>
      <point x="-57" y="766" type="line"/>
      <point x="-74" y="721"/>
      <point x="-122" y="657"/>
      <point x="-147" y="619" type="curve"/>
    </contour>
  </outline>
</glyph>
<glyph name="macroncomb" format="2">
  <unicode hex="0304"/>
  <anchor x="0" y="536" name="_top"/>
  <anchor x="0" y="681" name="top"/>
  <outline>
    <contour>
      <point x="-119" y="620" type="line"/>
      <point x="118" y="620" type="line"/>
      <point x="118" y="691" type="line"/>
      <point x="-119" y="691" type="line"/>
    </contour>
  </outline>
</glyph>
<glyph name="dieresiscomb" format="2">
  <unicode hex="0308"/>
  <anchor x="0" y="536" name="_top"/>
  <anchor x="0" y="752" name="top"/>
  <outline>
    <contour>
      <point x="83" y="599" type="curve" smooth="yes"/>
      <point x="109" y="599"/>
      <point x="136" y="615"/>
      <point x="136" y="660" type="curve" smooth="yes"/>
      <point x="136" y="707"/>
      <point x="109" y="722"/>
      <point x="83" y="722" type="curve" smooth="yes"/>
      <point x="54" y="722"/>
      <point x="29" y="707"/>
      <point x="29" y="660" type="curve" smooth="yes"/>
      <point x="29" y="615"/>
      <point x="54" y="599"/>
    </contour>
    <contour>
      <point x="-84" y="599" type="curve" smooth="yes"/>
      <point x="-56" y="599"/>
      <point x="-29" y="615"/>
      <point x="-29" y="660" type="curve" smooth="yes"/>
      <point x="-29" y="707"/>
      <point x="-56" y="722"/>
      <point x="-84" y="722" type="curve" smooth="yes"/>
      <point x="-111" y="722"/>
      <point x="-136" y="707"/>
      <point x="-136" y="660" type="curve" smooth="yes"/>
      <point x="-136" y="615"/>
      <point x="-111" y="599"/>
    </contour>
  </outline>
</glyph>
<glyph name="period-arm" format="2">
  <advance width="240"/>
  <unicode hex="0589"/>
  <note>
uni0589
</note>
  <outline>
    <contour>
      <point x="120" y="364" type="curve" smooth="yes"/>
      <point x="153" y="364"/>
      <point x="184" y="380"/>
      <point x="184" y="432" type="curve" smooth="yes"/>
      <point x="184" y="484"/>
      <point x="153" y="501"/>
      <point x="120" y="501" type="curve" smooth="yes"/>
      <point x="84" y="501"/>
      <point x="56" y="484"/>
      <point x="56" y="432" type="curve" smooth="yes"/>
      <point x="56" y="380"/>
      <point x="84" y="364"/>
    </contour>
    <contour>
      <point x="120" y="-7" type="curve" smooth="yes"/>
      <point x="153" y="-7"/>
      <point x="184" y="9"/>
      <point x="184" y="61" type="curve" smooth="yes"/>
      <point x="184" y="114"/>
      <point x="153" y="130"/>
      <point x="120" y="130" type="curve" smooth="yes"/>
      <point x="84" y="130"/>
      <point x="56" y="114"/>
      <point x="56" y="61" type="curve" smooth="yes"/>
      <point x="56" y="9"/>
      <point x="84" y="-7"/>
    </contour>
  </outline>
</glyph>
<glyph name="An-oldgeorgian" format="2">
  <advance width="611"/>
  <unicode hex="10A0"/>
  <note>
uni10A0
</note>
  <outline>
    <contour>
      <point x="366" y="-13" type="curve" smooth="yes"/>
      <point x="495" y="-13"/>
      <point x="566" y="47"/>
      <point x="566" y="107" type="curve" smooth="yes"/>
      <point x="566" y="153"/>
      <point x="531" y="190"/>
      <point x="462" y="190" type="curve"/>
      <point x="462" y="122"/>
      <point x="437" y="47"/>
      <point x="369" y="47" type="curve" smooth="yes"/>
      <point x="260" y="47"/>
      <point x="223" y="158"/>
      <point x="223" y="322" type="curve" smooth="yes"/>
      <point x="223" y="489"/>
      <point x="252" y="650"/>
      <point x="393" y="650" type="curve" smooth="yes"/>
      <point x="435" y="650"/>
      <point x="455" y="627"/>
      <point x="457" y="576" type="curve"/>
      <point x="506" y="579"/>
      <point x="553" y="610"/>
      <point x="553" y="655" type="curve" smooth="yes"/>
      <point x="553" y="698"/>
      <point x="521" y="727"/>
      <point x="468" y="727" type="curve" smooth="yes"/>
      <point x="419" y="727"/>
      <point x="375" y="713"/>
      <point x="334" y="699" type="curve" smooth="yes"/>
      <point x="295" y="686"/>
      <point x="258" y="673"/>
      <point x="222" y="673" type="curve" smooth="yes"/>
      <point x="182" y="673"/>
      <point x="168" y="686"/>
      <point x="167" y="725" type="curve"/>
      <point x="109" y="721"/>
      <point x="74" y="695"/>
      <point x="74" y="657" type="curve" smooth="yes"/>
      <point x="74" y="624"/>
      <point x="96" y="598"/>
      <point x="135" y="598" type="curve" smooth="yes"/>
      <point x="163" y="598"/>
      <point x="187" y="600"/>
      <point x="213" y="612" type="curve"/>
      <point x="129" y="536"/>
      <point x="72" y="426"/>
      <point x="72" y="294" type="curve" smooth="yes"/>
      <point x="72" y="122"/>
      <point x="177" y="-13"/>
    </contour>
  </outline>
</glyph>
<glyph name="Ban-oldgeorgian" format="2">
  <advance width="748"/>
  <unicode hex="10A1"/>
  <note>
uni10A1
</note>
  <outline>
    <contour>
      <point x="645" y="-126" type="curve"/>
      <point x="706" y="-126"/>
      <point x="738" y="-90"/>
      <point x="738" y="-41" type="curve" smooth="yes"/>
      <point x="738" y="33"/>
      <point x="664" y="60"/>
      <point x="572" y="60" type="curve" smooth="yes"/>
      <point x="542" y="60" type="line"/>
      <point x="542" y="601" type="line" smooth="yes"/>
      <point x="542" y="649"/>
      <point x="557" y="663"/>
      <point x="584" y="663" type="curve" smooth="yes"/>
      <point x="607" y="663" type="line"/>
      <point x="607" y="714" type="line"/>
      <point x="342" y="714" type="line"/>
      <point x="342" y="663" type="line"/>
      <point x="363" y="663" type="line" smooth="yes"/>
      <point x="386" y="663"/>
      <point x="406" y="649"/>
      <point x="406" y="602" type="curve" smooth="yes"/>
      <point x="406" y="414" type="line" smooth="yes"/>
      <point x="406" y="364"/>
      <point x="367" y="303"/>
      <point x="286" y="303" type="curve" smooth="yes"/>
      <point x="197" y="303"/>
      <point x="174" y="357"/>
      <point x="174" y="479" type="curve" smooth="yes"/>
      <point x="174" y="607"/>
      <point x="202" y="666"/>
      <point x="260" y="668" type="curve"/>
      <point x="260" y="686"/>
      <point x="256" y="724"/>
      <point x="205" y="724" type="curve" smooth="yes"/>
      <point x="112" y="724"/>
      <point x="38" y="640"/>
      <point x="38" y="481" type="curve" smooth="yes"/>
      <point x="38" y="312"/>
      <point x="123" y="232"/>
      <point x="243" y="232" type="curve" smooth="yes"/>
      <point x="317" y="232"/>
      <point x="370" y="257"/>
      <point x="405" y="310" type="curve"/>
      <point x="409" y="310" type="line"/>
      <point x="407" y="286"/>
      <point x="406" y="263"/>
      <point x="406" y="240" type="curve" smooth="yes"/>
      <point x="406" y="0" type="line"/>
      <point x="545" y="0" type="line" smooth="yes"/>
      <point x="613" y="0"/>
      <point x="645" y="-28"/>
    </contour>
  </outline>
</glyph>
<glyph name="Gan-oldgeorgian" format="2">
  <advance width="745"/>
  <unicode hex="10A2"/>
  <note>
uni10A2
</note>
  <outline>
    <contour>
      <point x="568" y="60" type="curve" smooth="yes"/>
      <point x="536" y="60" type="line"/>
      <point x="536" y="602" type="line" smooth="yes"/>
      <point x="536" y="649"/>
      <point x="555" y="663"/>
      <point x="579" y="663" type="curve" smooth="yes"/>
      <point x="600" y="663" type="line"/>
      <point x="600" y="714" type="line"/>
      <point x="21" y="714" type="line"/>
      <point x="21" y="663" type="line"/>
      <point x="42" y="663" type="line" smooth="yes"/>
      <point x="66" y="663"/>
      <point x="85" y="649"/>
      <point x="85" y="602" type="curve" smooth="yes"/>
      <point x="85" y="440" type="line" smooth="yes"/>
      <point x="85" y="392"/>
      <point x="66" y="378"/>
      <point x="42" y="378" type="curve" smooth="yes"/>
      <point x="21" y="378" type="line"/>
      <point x="21" y="327" type="line"/>
      <point x="219" y="327" type="line"/>
      <point x="219" y="648" type="line"/>
      <point x="402" y="648" type="line"/>
      <point x="402" y="0" type="line"/>
      <point x="541" y="0" type="line" smooth="yes"/>
      <point x="609" y="0"/>
      <point x="641" y="-28"/>
      <point x="641" y="-126" type="curve"/>
      <point x="702" y="-126"/>
      <point x="735" y="-90"/>
      <point x="735" y="-41" type="curve" smooth="yes"/>
      <point x="735" y="33"/>
      <point x="661" y="60"/>
    </contour>
  </outline>
</glyph>
<glyph name="Don-oldgeorgian" format="2">
  <advance width="646"/>
  <unicode hex="10A3"/>
  <note>
uni10A3
</note>
  <outline>
    <contour>
      <point x="323" y="-13" type="curve" smooth="yes"/>
      <point x="503" y="-13"/>
      <point x="601" y="103"/>
      <point x="601" y="281" type="curve" smooth="yes"/>
      <point x="601" y="441"/>
      <point x="520" y="550"/>
      <point x="373" y="568" type="curve"/>
      <point x="373" y="644" type="line"/>
      <point x="400" y="650"/>
      <point x="424" y="655"/>
      <point x="439" y="655" type="curve" smooth="yes"/>
      <point x="484" y="655"/>
      <point x="506" y="637"/>
      <point x="506" y="583" type="curve"/>
      <point x="556" y="586"/>
      <point x="603" y="610"/>
      <point x="603" y="655" type="curve" smooth="yes"/>
      <point x="603" y="698"/>
      <point x="570" y="727"/>
      <point x="515" y="727" type="curve" smooth="yes"/>
      <point x="470" y="727"/>
      <point x="416" y="709"/>
      <point x="353" y="690" type="curve" smooth="yes"/>
      <point x="298" y="673"/>
      <point x="248" y="667"/>
      <point x="214" y="667" type="curve" smooth="yes"/>
      <point x="174" y="667"/>
      <point x="154" y="685"/>
      <point x="152" y="724" type="curve"/>
      <point x="95" y="720"/>
      <point x="60" y="693"/>
      <point x="60" y="662" type="curve" smooth="yes"/>
      <point x="60" y="626"/>
      <point x="77" y="597"/>
      <point x="144" y="597" type="curve" smooth="yes"/>
      <point x="167" y="597"/>
      <point x="222" y="605"/>
      <point x="276" y="620" type="curve"/>
      <point x="276" y="569" type="line"/>
      <point x="123" y="551"/>
      <point x="45" y="442"/>
      <point x="45" y="282" type="curve" smooth="yes"/>
      <point x="45" y="103"/>
      <point x="136" y="-13"/>
    </contour>
    <contour>
      <point x="323" y="48" type="curve" smooth="yes"/>
      <point x="226" y="48"/>
      <point x="187" y="133"/>
      <point x="187" y="281" type="curve" smooth="yes"/>
      <point x="187" y="426"/>
      <point x="226" y="510"/>
      <point x="324" y="510" type="curve" smooth="yes"/>
      <point x="423" y="510"/>
      <point x="459" y="426"/>
      <point x="459" y="281" type="curve" smooth="yes"/>
      <point x="459" y="133"/>
      <point x="423" y="48"/>
    </contour>
  </outline>
</glyph>
<glyph name="En-oldgeorgian" format="2">
  <advance width="621"/>
  <unicode hex="10A4"/>
  <note>
uni10A4
</note>
  <outline>
    <contour>
      <point x="402" y="0" type="line"/>
      <point x="536" y="0" type="line"/>
      <point x="536" y="602" type="line" smooth="yes"/>
      <point x="536" y="649"/>
      <point x="555" y="663"/>
      <point x="579" y="663" type="curve" smooth="yes"/>
      <point x="600" y="663" type="line"/>
      <point x="600" y="714" type="line"/>
      <point x="21" y="714" type="line"/>
      <point x="21" y="663" type="line"/>
      <point x="42" y="663" type="line" smooth="yes"/>
      <point x="66" y="663"/>
      <point x="85" y="649"/>
      <point x="85" y="602" type="curve" smooth="yes"/>
      <point x="85" y="440" type="line" smooth="yes"/>
      <point x="85" y="392"/>
      <point x="66" y="378"/>
      <point x="42" y="378" type="curve" smooth="yes"/>
      <point x="21" y="378" type="line"/>
      <point x="21" y="327" type="line"/>
      <point x="219" y="327" type="line"/>
      <point x="219" y="648" type="line"/>
      <point x="402" y="648" type="line"/>
    </contour>
  </outline>
</glyph>
<glyph name="Vin-oldgeorgian" format="2">
  <advance width="745"/>
  <unicode hex="10A5"/>
  <note>
uni10A5
</note>
  <outline>
    <contour>
      <point x="552" y="420" type="curve" smooth="yes"/>
      <point x="536" y="420" type="line"/>
      <point x="536" y="602" type="line" smooth="yes"/>
      <point x="536" y="649"/>
      <point x="555" y="663"/>
      <point x="579" y="663" type="curve" smooth="yes"/>
      <point x="600" y="663" type="line"/>
      <point x="600" y="714" type="line"/>
      <point x="21" y="714" type="line"/>
      <point x="21" y="663" type="line"/>
      <point x="42" y="663" type="line" smooth="yes"/>
      <point x="66" y="663"/>
      <point x="85" y="649"/>
      <point x="85" y="602" type="curve" smooth="yes"/>
      <point x="85" y="440" type="line" smooth="yes"/>
      <point x="85" y="392"/>
      <point x="66" y="378"/>
      <point x="42" y="378" type="curve" smooth="yes"/>
      <point x="21" y="378" type="line"/>
      <point x="21" y="327" type="line"/>
      <point x="219" y="327" type="line"/>
      <point x="219" y="648" type="line"/>
      <point x="402" y="648" type="line"/>
      <point x="402" y="0" type="line"/>
      <point x="536" y="0" type="line"/>
      <point x="536" y="360" type="line"/>
      <point x="557" y="360" type="line" smooth="yes"/>
      <point x="609" y="360"/>
      <point x="641" y="332"/>
      <point x="641" y="234" type="curve"/>
      <point x="702" y="234"/>
      <point x="735" y="270"/>
      <point x="735" y="319" type="curve" smooth="yes"/>
      <point x="735" y="393"/>
      <point x="661" y="420"/>
    </contour>
  </outline>
</glyph>
<glyph name="Zen-oldgeorgian" format="2">
  <advance width="634"/>
  <unicode hex="10A6"/>
  <note>
uni10A6
</note>
  <outline>
    <contour>
      <point x="385" y="-13" type="curve" smooth="yes"/>
      <point x="537" y="-13"/>
      <point x="608" y="99"/>
      <point x="608" y="277" type="curve" smooth="yes"/>
      <point x="608" y="450"/>
      <point x="547" y="549"/>
      <point x="430" y="549" type="curve" smooth="yes"/>
      <point x="374" y="549"/>
      <point x="337" y="531"/>
      <point x="303" y="473" type="curve"/>
      <point x="299" y="473" type="line"/>
      <point x="302" y="496"/>
      <point x="303" y="519"/>
      <point x="303" y="542" type="curve" smooth="yes"/>
      <point x="303" y="714" type="line"/>
      <point x="12" y="714" type="line"/>
      <point x="12" y="657" type="line"/>
      <point x="168" y="657" type="line"/>
      <point x="168" y="267" type="line" smooth="yes"/>
      <point x="168" y="77"/>
      <point x="226" y="-13"/>
    </contour>
    <contour>
      <point x="380" y="41" type="curve" smooth="yes"/>
      <point x="324" y="41"/>
      <point x="303" y="99"/>
      <point x="303" y="274" type="curve" smooth="yes"/>
      <point x="303" y="412"/>
      <point x="330" y="476"/>
      <point x="383" y="476" type="curve" smooth="yes"/>
      <point x="434" y="476"/>
      <point x="464" y="439"/>
      <point x="464" y="265" type="curve" smooth="yes"/>
      <point x="464" y="104"/>
      <point x="433" y="41"/>
    </contour>
  </outline>
</glyph>
<glyph name="Tan-oldgeorgian" format="2">
  <advance width="760"/>
  <unicode hex="10A7"/>
  <note>
uni10A7
</note>
  <outline>
    <contour>
      <point x="567" y="420" type="curve" smooth="yes"/>
      <point x="551" y="420" type="line"/>
      <point x="551" y="603" type="line" smooth="yes"/>
      <point x="551" y="649"/>
      <point x="569" y="663"/>
      <point x="597" y="663" type="curve" smooth="yes"/>
      <point x="627" y="663" type="line"/>
      <point x="627" y="714" type="line"/>
      <point x="351" y="714" type="line" smooth="yes"/>
      <point x="167" y="714"/>
      <point x="55" y="595"/>
      <point x="55" y="368" type="curve" smooth="yes"/>
      <point x="55" y="149"/>
      <point x="157" y="0"/>
      <point x="351" y="0" type="curve" smooth="yes"/>
      <point x="627" y="0" type="line"/>
      <point x="627" y="51" type="line"/>
      <point x="592" y="51" type="line" smooth="yes"/>
      <point x="567" y="51"/>
      <point x="551" y="69"/>
      <point x="551" y="113" type="curve" smooth="yes"/>
      <point x="551" y="360" type="line"/>
      <point x="572" y="360" type="line" smooth="yes"/>
      <point x="624" y="360"/>
      <point x="656" y="332"/>
      <point x="656" y="234" type="curve"/>
      <point x="717" y="234"/>
      <point x="750" y="270"/>
      <point x="750" y="319" type="curve" smooth="yes"/>
      <point x="750" y="393"/>
      <point x="676" y="420"/>
    </contour>
    <contour>
      <point x="409" y="60" type="line"/>
      <point x="370" y="60" type="line" smooth="yes"/>
      <point x="263" y="60"/>
      <point x="207" y="176"/>
      <point x="207" y="368" type="curve" smooth="yes"/>
      <point x="207" y="561"/>
      <point x="263" y="655"/>
      <point x="370" y="655" type="curve" smooth="yes"/>
      <point x="409" y="655" type="line"/>
    </contour>
  </outline>
</glyph>
<glyph name="In-oldgeorgian" format="2">
  <advance width="399"/>
  <unicode hex="10A8"/>
  <note>
uni10A8
</note>
  <outline>
    <contour>
      <point x="368" y="714" type="line"/>
      <point x="12" y="714" type="line"/>
      <point x="12" y="657" type="line"/>
      <point x="168" y="657" type="line"/>
      <point x="168" y="0" type="line"/>
      <point x="303" y="0" type="line"/>
      <point x="303" y="601" type="line" smooth="yes"/>
      <point x="303" y="649"/>
      <point x="319" y="663"/>
      <point x="346" y="663" type="curve" smooth="yes"/>
      <point x="368" y="663" type="line"/>
    </contour>
  </outline>
</glyph>
<glyph name="Kan-oldgeorgian" format="2">
  <advance width="597"/>
  <unicode hex="10A9"/>
  <note>
uni10A9
</note>
  <outline>
    <contour>
      <point x="331" y="0" type="line"/>
      <point x="595" y="0" type="line"/>
      <point x="595" y="51" type="line"/>
      <point x="573" y="51" type="line" smooth="yes"/>
      <point x="546" y="51"/>
      <point x="530" y="65"/>
      <point x="530" y="113" type="curve" smooth="yes"/>
      <point x="530" y="347" type="line" smooth="yes"/>
      <point x="530" y="481"/>
      <point x="472" y="574"/>
      <point x="355" y="574" type="curve" smooth="yes"/>
      <point x="299" y="574"/>
      <point x="262" y="556"/>
      <point x="225" y="505" type="curve"/>
      <point x="221" y="505" type="line"/>
      <point x="224" y="529"/>
      <point x="225" y="544"/>
      <point x="225" y="567" type="curve" smooth="yes"/>
      <point x="225" y="601" type="line" smooth="yes"/>
      <point x="225" y="649"/>
      <point x="241" y="663"/>
      <point x="268" y="663" type="curve" smooth="yes"/>
      <point x="290" y="663" type="line"/>
      <point x="290" y="714" type="line"/>
      <point x="27" y="714" type="line"/>
      <point x="27" y="663" type="line"/>
      <point x="48" y="663" type="line" smooth="yes"/>
      <point x="70" y="663"/>
      <point x="91" y="649"/>
      <point x="91" y="602" type="curve" smooth="yes"/>
      <point x="91" y="347" type="line" smooth="yes"/>
      <point x="91" y="184"/>
      <point x="148" y="116"/>
      <point x="265" y="116" type="curve" smooth="yes"/>
      <point x="321" y="116"/>
      <point x="358" y="134"/>
      <point x="396" y="185" type="curve"/>
      <point x="400" y="185" type="line"/>
      <point x="397" y="161"/>
      <point x="396" y="147"/>
      <point x="396" y="123" type="curve" smooth="yes"/>
      <point x="396" y="109" type="line" smooth="yes"/>
      <point x="396" y="65"/>
      <point x="374" y="51"/>
      <point x="352" y="51" type="curve" smooth="yes"/>
      <point x="331" y="51" type="line"/>
    </contour>
    <contour>
      <point x="312" y="190" type="curve" smooth="yes"/>
      <point x="257" y="190"/>
      <point x="225" y="235"/>
      <point x="225" y="347" type="curve" smooth="yes"/>
      <point x="225" y="437"/>
      <point x="252" y="501"/>
      <point x="309" y="501" type="curve" smooth="yes"/>
      <point x="364" y="501"/>
      <point x="396" y="464"/>
      <point x="396" y="347" type="curve" smooth="yes"/>
      <point x="396" y="262"/>
      <point x="369" y="190"/>
    </contour>
  </outline>
</glyph>
<glyph name="Las-oldgeorgian" format="2">
  <advance width="814"/>
  <unicode hex="10AA"/>
  <note>
uni10AA
</note>
  <outline>
    <contour>
      <point x="564" y="-13" type="curve" smooth="yes"/>
      <point x="716" y="-13"/>
      <point x="787" y="99"/>
      <point x="787" y="277" type="curve" smooth="yes"/>
      <point x="787" y="449"/>
      <point x="727" y="548"/>
      <point x="609" y="548" type="curve" smooth="yes"/>
      <point x="553" y="548"/>
      <point x="516" y="530"/>
      <point x="482" y="471" type="curve"/>
      <point x="478" y="471" type="line"/>
      <point x="481" y="494"/>
      <point x="482" y="518"/>
      <point x="482" y="541" type="curve" smooth="yes"/>
      <point x="482" y="602" type="line" smooth="yes"/>
      <point x="482" y="649"/>
      <point x="501" y="663"/>
      <point x="525" y="663" type="curve" smooth="yes"/>
      <point x="546" y="663" type="line"/>
      <point x="546" y="714" type="line"/>
      <point x="20" y="714" type="line"/>
      <point x="20" y="663" type="line"/>
      <point x="41" y="663" type="line" smooth="yes"/>
      <point x="65" y="663"/>
      <point x="84" y="649"/>
      <point x="84" y="602" type="curve" smooth="yes"/>
      <point x="84" y="440" type="line" smooth="yes"/>
      <point x="84" y="392"/>
      <point x="65" y="378"/>
      <point x="41" y="378" type="curve" smooth="yes"/>
      <point x="20" y="378" type="line"/>
      <point x="20" y="327" type="line"/>
      <point x="218" y="327" type="line"/>
      <point x="218" y="648" type="line"/>
      <point x="348" y="648" type="line"/>
      <point x="348" y="267" type="line" smooth="yes"/>
      <point x="348" y="77"/>
      <point x="405" y="-13"/>
    </contour>
    <contour>
      <point x="559" y="41" type="curve" smooth="yes"/>
      <point x="504" y="41"/>
      <point x="482" y="99"/>
      <point x="482" y="274" type="curve" smooth="yes"/>
      <point x="482" y="411"/>
      <point x="509" y="475"/>
      <point x="565" y="475" type="curve" smooth="yes"/>
      <point x="613" y="475"/>
      <point x="644" y="438"/>
      <point x="644" y="265" type="curve" smooth="yes"/>
      <point x="644" y="104"/>
      <point x="612" y="41"/>
    </contour>
  </outline>
</glyph>
<glyph name="Man-oldgeorgian" format="2">
  <advance width="599"/>
  <unicode hex="10AB"/>
  <note>
uni10AB
</note>
  <outline>
    <contour>
      <point x="261" y="-13" type="curve" smooth="yes"/>
      <point x="401" y="-13"/>
      <point x="488" y="51"/>
      <point x="488" y="217" type="curve" smooth="yes"/>
      <point x="488" y="383" type="line"/>
      <point x="578" y="383" type="line"/>
      <point x="578" y="442" type="line"/>
      <point x="488" y="442" type="line"/>
      <point x="488" y="605" type="line" smooth="yes"/>
      <point x="488" y="650"/>
      <point x="505" y="663"/>
      <point x="531" y="663" type="curve" smooth="yes"/>
      <point x="553" y="663" type="line"/>
      <point x="553" y="714" type="line"/>
      <point x="95" y="714" type="line"/>
      <point x="95" y="657" type="line"/>
      <point x="354" y="657" type="line"/>
      <point x="354" y="442" type="line"/>
      <point x="288" y="442" type="line" smooth="yes"/>
      <point x="112" y="442"/>
      <point x="44" y="376"/>
      <point x="44" y="220" type="curve" smooth="yes"/>
      <point x="44" y="82"/>
      <point x="103" y="-13"/>
    </contour>
    <contour>
      <point x="262" y="52" type="curve" smooth="yes"/>
      <point x="203" y="52"/>
      <point x="177" y="112"/>
      <point x="177" y="221" type="curve" smooth="yes"/>
      <point x="177" y="335"/>
      <point x="206" y="383"/>
      <point x="287" y="383" type="curve" smooth="yes"/>
      <point x="354" y="383" type="line"/>
      <point x="354" y="216" type="line" smooth="yes"/>
      <point x="354" y="90"/>
      <point x="324" y="52"/>
    </contour>
  </outline>
</glyph>
<glyph name="Nar-oldgeorgian" format="2">
  <advance width="638"/>
  <unicode hex="10AC"/>
  <note>
uni10AC
</note>
  <outline>
    <contour>
      <point x="20" y="0" type="line"/>
      <point x="295" y="0" type="line"/>
      <point x="295" y="47" type="line"/>
      <point x="268" y="47" type="line" smooth="yes"/>
      <point x="240" y="47"/>
      <point x="229" y="65"/>
      <point x="229" y="111" type="curve" smooth="yes"/>
      <point x="229" y="291" type="line" smooth="yes"/>
      <point x="229" y="365"/>
      <point x="269" y="405"/>
      <point x="318" y="405" type="curve" smooth="yes"/>
      <point x="378" y="405"/>
      <point x="407" y="369"/>
      <point x="407" y="288" type="curve" smooth="yes"/>
      <point x="407" y="0" type="line"/>
      <point x="617" y="0" type="line"/>
      <point x="617" y="47" type="line"/>
      <point x="587" y="47" type="line" smooth="yes"/>
      <point x="555" y="47"/>
      <point x="541" y="64"/>
      <point x="541" y="111" type="curve" smooth="yes"/>
      <point x="541" y="294" type="line" smooth="yes"/>
      <point x="541" y="422"/>
      <point x="467" y="479"/>
      <point x="367" y="479" type="curve" smooth="yes"/>
      <point x="306" y="479"/>
      <point x="260" y="449"/>
      <point x="231" y="405" type="curve"/>
      <point x="227" y="405" type="line"/>
      <point x="230" y="427"/>
      <point x="231" y="450"/>
      <point x="231" y="473" type="curve" smooth="yes"/>
      <point x="231" y="657" type="line"/>
      <point x="524" y="657" type="line"/>
      <point x="524" y="714" type="line"/>
      <point x="27" y="714" type="line"/>
      <point x="27" y="662" type="line"/>
      <point x="48" y="662" type="line" smooth="yes"/>
      <point x="82" y="662"/>
      <point x="96" y="651"/>
      <point x="96" y="591" type="curve" smooth="yes"/>
      <point x="96" y="111" type="line" smooth="yes"/>
      <point x="96" y="65"/>
      <point x="82" y="47"/>
      <point x="54" y="47" type="curve" smooth="yes"/>
      <point x="20" y="47" type="line"/>
    </contour>
  </outline>
</glyph>
<glyph name="On-oldgeorgian" format="2">
  <advance width="738"/>
  <unicode hex="10AD"/>
  <note>
uni10AD
</note>
  <outline>
    <contour>
      <point x="670" y="215" type="curve" smooth="yes"/>
      <point x="651" y="215"/>
      <point x="631" y="209"/>
      <point x="621" y="201" type="curve"/>
      <point x="636" y="182"/>
      <point x="639" y="166"/>
      <point x="639" y="141" type="curve" smooth="yes"/>
      <point x="639" y="106"/>
      <point x="610" y="78"/>
      <point x="577" y="78" type="curve" smooth="yes"/>
      <point x="560" y="78"/>
      <point x="544" y="82"/>
      <point x="529" y="89" type="curve"/>
      <point x="578" y="157"/>
      <point x="601" y="253"/>
      <point x="601" y="358" type="curve" smooth="yes"/>
      <point x="601" y="582"/>
      <point x="510" y="727"/>
      <point x="324" y="727" type="curve" smooth="yes"/>
      <point x="136" y="727"/>
      <point x="45" y="582"/>
      <point x="45" y="359" type="curve" smooth="yes"/>
      <point x="45" y="134"/>
      <point x="136" y="-13"/>
      <point x="323" y="-13" type="curve" smooth="yes"/>
      <point x="384" y="-13"/>
      <point x="434" y="4"/>
      <point x="474" y="33" type="curve"/>
      <point x="508" y="9"/>
      <point x="555" y="-13"/>
      <point x="604" y="-13" type="curve" smooth="yes"/>
      <point x="666" y="-13"/>
      <point x="748" y="26"/>
      <point x="748" y="104" type="curve" smooth="yes"/>
      <point x="748" y="171"/>
      <point x="714" y="215"/>
    </contour>
    <contour>
      <point x="323" y="48" type="curve" smooth="yes"/>
      <point x="226" y="48"/>
      <point x="187" y="162"/>
      <point x="187" y="358" type="curve" smooth="yes"/>
      <point x="187" y="553"/>
      <point x="226" y="666"/>
      <point x="324" y="666" type="curve" smooth="yes"/>
      <point x="422" y="666"/>
      <point x="459" y="553"/>
      <point x="459" y="358" type="curve" smooth="yes"/>
      <point x="459" y="162"/>
      <point x="423" y="48"/>
    </contour>
  </outline>
</glyph>
<glyph name="Par-oldgeorgian" format="2">
  <advance width="717"/>
  <unicode hex="10AE"/>
  <note>
uni10AE
</note>
  <outline>
    <contour>
      <point x="704" y="714" type="line"/>
      <point x="440" y="714" type="line"/>
      <point x="440" y="663" type="line"/>
      <point x="461" y="663" type="line" smooth="yes"/>
      <point x="483" y="663"/>
      <point x="504" y="649"/>
      <point x="504" y="602" type="curve" smooth="yes"/>
      <point x="504" y="214" type="line" smooth="yes"/>
      <point x="504" y="112"/>
      <point x="469" y="52"/>
      <point x="404" y="52" type="curve" smooth="yes"/>
      <point x="334" y="52"/>
      <point x="301" y="93"/>
      <point x="301" y="211" type="curve" smooth="yes"/>
      <point x="301" y="714" type="line"/>
      <point x="12" y="714" type="line"/>
      <point x="12" y="657" type="line"/>
      <point x="166" y="657" type="line"/>
      <point x="166" y="215" type="line" smooth="yes"/>
      <point x="166" y="51"/>
      <point x="257" y="-13"/>
      <point x="404" y="-13" type="curve" smooth="yes"/>
      <point x="573" y="-13"/>
      <point x="638" y="79"/>
      <point x="638" y="209" type="curve" smooth="yes"/>
      <point x="638" y="601" type="line" smooth="yes"/>
      <point x="638" y="649"/>
      <point x="655" y="663"/>
      <point x="682" y="663" type="curve" smooth="yes"/>
      <point x="704" y="663" type="line"/>
    </contour>
  </outline>
</glyph>
<glyph name="Zhar-oldgeorgian" format="2">
  <advance width="671"/>
  <unicode hex="10AF"/>
  <note>
uni10AF
</note>
  <outline>
    <contour>
      <point x="583" y="113" type="curve" smooth="yes"/>
      <point x="583" y="601" type="line" smooth="yes"/>
      <point x="583" y="649"/>
      <point x="598" y="663"/>
      <point x="625" y="663" type="curve" smooth="yes"/>
      <point x="647" y="663" type="line"/>
      <point x="647" y="714" type="line"/>
      <point x="382" y="714" type="line"/>
      <point x="382" y="663" type="line"/>
      <point x="403" y="663" type="line" smooth="yes"/>
      <point x="426" y="663"/>
      <point x="446" y="649"/>
      <point x="446" y="602" type="curve" smooth="yes"/>
      <point x="446" y="414" type="line" smooth="yes"/>
      <point x="446" y="364"/>
      <point x="407" y="303"/>
      <point x="333" y="303" type="curve" smooth="yes"/>
      <point x="237" y="303"/>
      <point x="215" y="357"/>
      <point x="215" y="475" type="curve" smooth="yes"/>
      <point x="215" y="603"/>
      <point x="234" y="664"/>
      <point x="291" y="664" type="curve"/>
      <point x="291" y="714" type="line"/>
      <point x="-1" y="714" type="line"/>
      <point x="-1" y="657" type="line"/>
      <point x="137" y="657" type="line"/>
      <point x="98" y="618"/>
      <point x="78" y="557"/>
      <point x="78" y="474" type="curve" smooth="yes"/>
      <point x="78" y="312"/>
      <point x="163" y="232"/>
      <point x="299" y="232" type="curve" smooth="yes"/>
      <point x="358" y="232"/>
      <point x="410" y="257"/>
      <point x="445" y="310" type="curve"/>
      <point x="449" y="310" type="line"/>
      <point x="447" y="286"/>
      <point x="446" y="263"/>
      <point x="446" y="240" type="curve" smooth="yes"/>
      <point x="446" y="112" type="line" smooth="yes"/>
      <point x="446" y="65"/>
      <point x="426" y="51"/>
      <point x="403" y="51" type="curve" smooth="yes"/>
      <point x="382" y="51" type="line"/>
      <point x="382" y="0" type="line"/>
      <point x="647" y="0" type="line"/>
      <point x="647" y="51" type="line"/>
      <point x="625" y="51" type="line" smooth="yes"/>
      <point x="598" y="51"/>
      <point x="583" y="65"/>
    </contour>
  </outline>
</glyph>
<glyph name="Rae-oldgeorgian" format="2">
  <advance width="820"/>
  <unicode hex="10B0"/>
  <note>
uni10B0
</note>
  <outline>
    <contour>
      <point x="273" y="-13" type="curve" smooth="yes"/>
      <point x="401" y="-13"/>
      <point x="494" y="51"/>
      <point x="494" y="213" type="curve" smooth="yes"/>
      <point x="494" y="329" type="line" smooth="yes"/>
      <point x="494" y="395"/>
      <point x="519" y="430"/>
      <point x="562" y="430" type="curve" smooth="yes"/>
      <point x="609" y="430"/>
      <point x="629" y="393"/>
      <point x="629" y="337" type="curve" smooth="yes"/>
      <point x="629" y="291"/>
      <point x="619" y="256"/>
      <point x="593" y="215" type="curve"/>
      <point x="610" y="206"/>
      <point x="629" y="202"/>
      <point x="648" y="202" type="curve" smooth="yes"/>
      <point x="719" y="202"/>
      <point x="763" y="260"/>
      <point x="763" y="354" type="curve" smooth="yes"/>
      <point x="763" y="449"/>
      <point x="696" y="507"/>
      <point x="611" y="507" type="curve" smooth="yes"/>
      <point x="556" y="507"/>
      <point x="521" y="482"/>
      <point x="495" y="444" type="curve"/>
      <point x="491" y="444" type="line"/>
      <point x="493" y="467"/>
      <point x="494" y="490"/>
      <point x="494" y="513" type="curve" smooth="yes"/>
      <point x="494" y="603" type="line" smooth="yes"/>
      <point x="494" y="649"/>
      <point x="509" y="663"/>
      <point x="537" y="663" type="curve" smooth="yes"/>
      <point x="555" y="663" type="line"/>
      <point x="555" y="714" type="line"/>
      <point x="299" y="714" type="line"/>
      <point x="299" y="663" type="line"/>
      <point x="316" y="663" type="line" smooth="yes"/>
      <point x="339" y="663"/>
      <point x="359" y="649"/>
      <point x="359" y="604" type="curve" smooth="yes"/>
      <point x="359" y="206" type="line" smooth="yes"/>
      <point x="359" y="90"/>
      <point x="326" y="53"/>
      <point x="273" y="53" type="curve" smooth="yes"/>
      <point x="211" y="53"/>
      <point x="187" y="112"/>
      <point x="187" y="212" type="curve" smooth="yes"/>
      <point x="187" y="264"/>
      <point x="196" y="307"/>
      <point x="222" y="349" type="curve"/>
      <point x="205" y="357"/>
      <point x="187" y="361"/>
      <point x="167" y="361" type="curve" smooth="yes"/>
      <point x="87" y="361"/>
      <point x="52" y="291"/>
      <point x="52" y="207" type="curve" smooth="yes"/>
      <point x="52" y="79"/>
      <point x="109" y="-13"/>
    </contour>
  </outline>
</glyph>
<glyph name="San-oldgeorgian" format="2">
  <advance width="588"/>
  <unicode hex="10B1"/>
  <note>
uni10B1
</note>
  <outline>
    <contour>
      <point x="310" y="-13" type="curve" smooth="yes"/>
      <point x="474" y="-13"/>
      <point x="531" y="79"/>
      <point x="531" y="207" type="curve" smooth="yes"/>
      <point x="531" y="291"/>
      <point x="496" y="361"/>
      <point x="416" y="361" type="curve" smooth="yes"/>
      <point x="396" y="361"/>
      <point x="378" y="357"/>
      <point x="361" y="349" type="curve"/>
      <point x="387" y="307"/>
      <point x="396" y="264"/>
      <point x="396" y="212" type="curve" smooth="yes"/>
      <point x="396" y="112"/>
      <point x="372" y="53"/>
      <point x="310" y="53" type="curve" smooth="yes"/>
      <point x="257" y="53"/>
      <point x="224" y="90"/>
      <point x="224" y="206" type="curve" smooth="yes"/>
      <point x="224" y="714" type="line"/>
      <point x="13" y="714" type="line"/>
      <point x="13" y="665" type="line"/>
      <point x="36" y="665" type="line" smooth="yes"/>
      <point x="78" y="665"/>
      <point x="89" y="658"/>
      <point x="89" y="599" type="curve" smooth="yes"/>
      <point x="89" y="213" type="line" smooth="yes"/>
      <point x="89" y="51"/>
      <point x="182" y="-13"/>
    </contour>
  </outline>
</glyph>
<glyph name="Tar-oldgeorgian" format="2">
  <advance width="554"/>
  <unicode hex="10B2"/>
  <note>
uni10B2
</note>
  <outline>
    <contour>
      <point x="387" y="-126" type="curve"/>
      <point x="448" y="-126"/>
      <point x="480" y="-90"/>
      <point x="480" y="-41" type="curve" smooth="yes"/>
      <point x="480" y="33"/>
      <point x="420" y="60"/>
      <point x="311" y="60" type="curve" smooth="yes"/>
      <point x="233" y="60" type="line"/>
      <point x="233" y="274" type="line"/>
      <point x="264" y="274" type="line" smooth="yes"/>
      <point x="445" y="274"/>
      <point x="513" y="377"/>
      <point x="513" y="503" type="curve" smooth="yes"/>
      <point x="513" y="640"/>
      <point x="440" y="714"/>
      <point x="282" y="714" type="curve" smooth="yes"/>
      <point x="23" y="714" type="line"/>
      <point x="23" y="665" type="line"/>
      <point x="51" y="665" type="line" smooth="yes"/>
      <point x="76" y="665"/>
      <point x="98" y="657"/>
      <point x="98" y="601" type="curve" smooth="yes"/>
      <point x="98" y="0" type="line"/>
      <point x="303" y="0" type="line" smooth="yes"/>
      <point x="354" y="0"/>
      <point x="387" y="-28"/>
    </contour>
    <contour>
      <point x="232" y="328" type="line"/>
      <point x="232" y="659" type="line"/>
      <point x="268" y="659" type="line" smooth="yes"/>
      <point x="341" y="659"/>
      <point x="372" y="608"/>
      <point x="372" y="499" type="curve" smooth="yes"/>
      <point x="372" y="377"/>
      <point x="338" y="328"/>
      <point x="256" y="328" type="curve" smooth="yes"/>
    </contour>
  </outline>
</glyph>
<glyph name="Un-oldgeorgian" format="2">
  <advance width="646"/>
  <unicode hex="10B3"/>
  <note>
uni10B3
</note>
  <outline>
    <contour>
      <point x="459" y="-180" type="curve" smooth="yes"/>
      <point x="561" y="-180"/>
      <point x="625" y="-125"/>
      <point x="625" y="-39" type="curve" smooth="yes"/>
      <point x="625" y="27"/>
      <point x="592" y="74"/>
      <point x="534" y="97" type="curve"/>
      <point x="578" y="161"/>
      <point x="601" y="251"/>
      <point x="601" y="358" type="curve" smooth="yes"/>
      <point x="601" y="582"/>
      <point x="509" y="727"/>
      <point x="324" y="727" type="curve" smooth="yes"/>
      <point x="136" y="727"/>
      <point x="45" y="582"/>
      <point x="45" y="359" type="curve" smooth="yes"/>
      <point x="45" y="136"/>
      <point x="136" y="-11"/>
      <point x="323" y="-11" type="curve" smooth="yes"/>
      <point x="387" y="-11"/>
      <point x="441" y="8"/>
      <point x="484" y="45" type="curve"/>
      <point x="501" y="26"/>
      <point x="510" y="-1"/>
      <point x="510" y="-36" type="curve" smooth="yes"/>
      <point x="510" y="-94"/>
      <point x="481" y="-116"/>
      <point x="449" y="-116" type="curve" smooth="yes"/>
      <point x="418" y="-116"/>
      <point x="404" y="-104"/>
      <point x="395" y="-68" type="curve"/>
      <point x="346" y="-68"/>
      <point x="324" y="-90"/>
      <point x="324" y="-109" type="curve" smooth="yes"/>
      <point x="324" y="-156"/>
      <point x="375" y="-180"/>
    </contour>
    <contour>
      <point x="323" y="50" type="curve" smooth="yes"/>
      <point x="226" y="50"/>
      <point x="187" y="164"/>
      <point x="187" y="358" type="curve" smooth="yes"/>
      <point x="187" y="553"/>
      <point x="226" y="666"/>
      <point x="324" y="666" type="curve" smooth="yes"/>
      <point x="422" y="666"/>
      <point x="459" y="553"/>
      <point x="459" y="358" type="curve" smooth="yes"/>
      <point x="459" y="164"/>
      <point x="423" y="50"/>
    </contour>
  </outline>
</glyph>
<glyph name="Phar-oldgeorgian" format="2">
  <advance width="674"/>
  <unicode hex="10B4"/>
  <note>
uni10B4
</note>
  <outline>
    <contour>
      <point x="275" y="0" type="line"/>
      <point x="399" y="0" type="line"/>
      <point x="399" y="221" type="line"/>
      <point x="561" y="238"/>
      <point x="647" y="327"/>
      <point x="647" y="476" type="curve" smooth="yes"/>
      <point x="647" y="642"/>
      <point x="553" y="727"/>
      <point x="338" y="727" type="curve" smooth="yes"/>
      <point x="116" y="727"/>
      <point x="27" y="634"/>
      <point x="27" y="476" type="curve" smooth="yes"/>
      <point x="27" y="326"/>
      <point x="110" y="238"/>
      <point x="275" y="221" type="curve"/>
    </contour>
    <contour>
      <point x="275" y="275" type="line"/>
      <point x="185" y="292"/>
      <point x="152" y="346"/>
      <point x="152" y="474" type="curve" smooth="yes"/>
      <point x="152" y="582"/>
      <point x="183" y="654"/>
      <point x="275" y="673" type="curve"/>
    </contour>
    <contour>
      <point x="399" y="275" type="curve"/>
      <point x="399" y="673" type="line"/>
      <point x="488" y="656"/>
      <point x="521" y="589"/>
      <point x="521" y="474" type="curve" smooth="yes"/>
      <point x="521" y="350"/>
      <point x="489" y="292"/>
    </contour>
  </outline>
</glyph>
<glyph name="Khar-oldgeorgian" format="2">
  <advance width="579"/>
  <unicode hex="10B5"/>
  <note>
uni10B5
</note>
  <outline>
    <contour>
      <point x="473" y="518" type="curve" smooth="yes"/>
      <point x="439" y="518"/>
      <point x="400" y="510"/>
      <point x="354" y="493" type="curve"/>
      <point x="354" y="601" type="line" smooth="yes"/>
      <point x="354" y="649"/>
      <point x="369" y="663"/>
      <point x="396" y="663" type="curve" smooth="yes"/>
      <point x="418" y="663" type="line"/>
      <point x="418" y="714" type="line"/>
      <point x="154" y="714" type="line"/>
      <point x="154" y="663" type="line"/>
      <point x="175" y="663" type="line" smooth="yes"/>
      <point x="197" y="663"/>
      <point x="217" y="649"/>
      <point x="217" y="602" type="curve" smooth="yes"/>
      <point x="217" y="465" type="line"/>
      <point x="201" y="460"/>
      <point x="185" y="458"/>
      <point x="162" y="458" type="curve" smooth="yes"/>
      <point x="128" y="458"/>
      <point x="111" y="478"/>
      <point x="110" y="518" type="curve"/>
      <point x="52" y="514"/>
      <point x="18" y="487"/>
      <point x="18" y="456" type="curve" smooth="yes"/>
      <point x="18" y="419"/>
      <point x="36" y="390"/>
      <point x="101" y="390" type="curve" smooth="yes"/>
      <point x="122" y="390"/>
      <point x="168" y="397"/>
      <point x="217" y="410" type="curve"/>
      <point x="217" y="0" type="line"/>
      <point x="354" y="0" type="line"/>
      <point x="354" y="438" type="line"/>
      <point x="372" y="442"/>
      <point x="392" y="445"/>
      <point x="412" y="445" type="curve" smooth="yes"/>
      <point x="443" y="445"/>
      <point x="464" y="427"/>
      <point x="464" y="373" type="curve"/>
      <point x="514" y="377"/>
      <point x="561" y="400"/>
      <point x="561" y="445" type="curve" smooth="yes"/>
      <point x="561" y="488"/>
      <point x="528" y="518"/>
    </contour>
  </outline>
</glyph>
<glyph name="Ghan-oldgeorgian" format="2">
  <advance width="670"/>
  <unicode hex="10B6"/>
  <note>
uni10B6
</note>
  <outline>
    <contour>
      <point x="613" y="50" type="line" smooth="yes"/>
      <point x="591" y="50"/>
      <point x="570" y="65"/>
      <point x="570" y="112" type="curve" smooth="yes"/>
      <point x="570" y="500" type="line" smooth="yes"/>
      <point x="570" y="663"/>
      <point x="479" y="727"/>
      <point x="332" y="727" type="curve" smooth="yes"/>
      <point x="163" y="727"/>
      <point x="100" y="635"/>
      <point x="100" y="506" type="curve" smooth="yes"/>
      <point x="100" y="112" type="line" smooth="yes"/>
      <point x="100" y="65"/>
      <point x="79" y="50"/>
      <point x="57" y="50" type="curve" smooth="yes"/>
      <point x="36" y="50" type="line"/>
      <point x="36" y="0" type="line"/>
      <point x="290" y="0" type="line"/>
      <point x="290" y="50" type="line"/>
      <point x="275" y="50" type="line" smooth="yes"/>
      <point x="248" y="50"/>
      <point x="233" y="65"/>
      <point x="233" y="113" type="curve" smooth="yes"/>
      <point x="233" y="504" type="line" smooth="yes"/>
      <point x="233" y="605"/>
      <point x="268" y="662"/>
      <point x="333" y="662" type="curve" smooth="yes"/>
      <point x="403" y="662"/>
      <point x="437" y="624"/>
      <point x="437" y="507" type="curve" smooth="yes"/>
      <point x="437" y="113" type="line" smooth="yes"/>
      <point x="437" y="65"/>
      <point x="422" y="50"/>
      <point x="395" y="50" type="curve" smooth="yes"/>
      <point x="381" y="50" type="line"/>
      <point x="381" y="0" type="line"/>
      <point x="634" y="0" type="line"/>
      <point x="634" y="50" type="line"/>
    </contour>
  </outline>
</glyph>
<glyph name="Shin-oldgeorgian" format="2">
  <advance width="609"/>
  <unicode hex="10B8"/>
  <note>
uni10B8
</note>
  <outline>
    <contour>
      <point x="330" y="714" type="line"/>
      <point x="330" y="663" type="line"/>
      <point x="351" y="663" type="line" smooth="yes"/>
      <point x="373" y="663"/>
      <point x="394" y="649"/>
      <point x="394" y="602" type="curve" smooth="yes"/>
      <point x="394" y="467" type="line" smooth="yes"/>
      <point x="394" y="416"/>
      <point x="356" y="366"/>
      <point x="300" y="366" type="curve" smooth="yes"/>
      <point x="244" y="366"/>
      <point x="224" y="402"/>
      <point x="224" y="473" type="curve" smooth="yes"/>
      <point x="224" y="714" type="line"/>
      <point x="18" y="714" type="line"/>
      <point x="18" y="665" type="line"/>
      <point x="34" y="665" type="line" smooth="yes"/>
      <point x="67" y="665"/>
      <point x="87" y="648"/>
      <point x="87" y="591" type="curve" smooth="yes"/>
      <point x="87" y="469" type="line" smooth="yes"/>
      <point x="87" y="341"/>
      <point x="150" y="285"/>
      <point x="252" y="285" type="curve" smooth="yes"/>
      <point x="307" y="285"/>
      <point x="358" y="309"/>
      <point x="394" y="362" type="curve"/>
      <point x="398" y="362" type="line"/>
      <point x="395" y="339"/>
      <point x="394" y="316"/>
      <point x="394" y="292" type="curve" smooth="yes"/>
      <point x="394" y="174" type="line" smooth="yes"/>
      <point x="394" y="93"/>
      <point x="367" y="52"/>
      <point x="308" y="52" type="curve" smooth="yes"/>
      <point x="251" y="52"/>
      <point x="224" y="100"/>
      <point x="224" y="148" type="curve" smooth="yes"/>
      <point x="224" y="175"/>
      <point x="228" y="195"/>
      <point x="232" y="200" type="curve"/>
      <point x="211" y="213"/>
      <point x="190" y="219"/>
      <point x="170" y="219" type="curve" smooth="yes"/>
      <point x="124" y="219"/>
      <point x="87" y="188"/>
      <point x="87" y="137" type="curve" smooth="yes"/>
      <point x="87" y="70"/>
      <point x="146" y="-13"/>
      <point x="306" y="-13" type="curve" smooth="yes"/>
      <point x="444" y="-13"/>
      <point x="530" y="54"/>
      <point x="530" y="188" type="curve" smooth="yes"/>
      <point x="530" y="601" type="line" smooth="yes"/>
      <point x="530" y="649"/>
      <point x="545" y="663"/>
      <point x="572" y="663" type="curve" smooth="yes"/>
      <point x="594" y="663" type="line"/>
      <point x="594" y="714" type="line"/>
    </contour>
  </outline>
</glyph>
<glyph name="Chin-oldgeorgian" format="2">
  <advance width="629"/>
  <unicode hex="10B9"/>
  <note>
uni10B9
</note>
  <outline>
    <contour>
      <point x="580" y="48" type="line" smooth="yes"/>
      <point x="554" y="48"/>
      <point x="537" y="65"/>
      <point x="537" y="110" type="curve" smooth="yes"/>
      <point x="537" y="440" type="line"/>
      <point x="223" y="440" type="line"/>
      <point x="223" y="602" type="line" smooth="yes"/>
      <point x="223" y="649"/>
      <point x="243" y="663"/>
      <point x="266" y="663" type="curve" smooth="yes"/>
      <point x="287" y="663" type="line"/>
      <point x="287" y="714" type="line"/>
      <point x="31" y="714" type="line"/>
      <point x="31" y="663" type="line"/>
      <point x="47" y="663" type="line" smooth="yes"/>
      <point x="74" y="663"/>
      <point x="89" y="649"/>
      <point x="89" y="601" type="curve" smooth="yes"/>
      <point x="89" y="111" type="line" smooth="yes"/>
      <point x="89" y="66"/>
      <point x="73" y="48"/>
      <point x="46" y="48" type="curve" smooth="yes"/>
      <point x="23" y="48" type="line"/>
      <point x="23" y="0" type="line"/>
      <point x="287" y="0" type="line"/>
      <point x="287" y="48" type="line"/>
      <point x="263" y="48" type="line" smooth="yes"/>
      <point x="236" y="48"/>
      <point x="223" y="66"/>
      <point x="223" y="111" type="curve" smooth="yes"/>
      <point x="223" y="384" type="line"/>
      <point x="404" y="384" type="line"/>
      <point x="404" y="0" type="line"/>
      <point x="613" y="0" type="line"/>
      <point x="613" y="48" type="line"/>
    </contour>
  </outline>
</glyph>
<glyph name="Can-oldgeorgian" format="2">
  <advance width="551"/>
  <unicode hex="10BA"/>
  <note>
uni10BA
</note>
  <outline>
    <contour>
      <point x="301" y="-189" type="curve" smooth="yes"/>
      <point x="331" y="-189"/>
      <point x="388" y="-171"/>
      <point x="440" y="-106" type="curve" smooth="yes"/>
      <point x="492" y="-41"/>
      <point x="516" y="40"/>
      <point x="516" y="117" type="curve" smooth="yes"/>
      <point x="516" y="132"/>
      <point x="511" y="149"/>
      <point x="503" y="158" type="curve"/>
      <point x="474" y="110"/>
      <point x="431" y="60"/>
      <point x="347" y="60" type="curve" smooth="yes"/>
      <point x="231" y="60"/>
      <point x="187" y="159"/>
      <point x="187" y="358" type="curve" smooth="yes"/>
      <point x="187" y="551"/>
      <point x="221" y="667"/>
      <point x="318" y="667" type="curve" smooth="yes"/>
      <point x="390" y="667"/>
      <point x="412" y="595"/>
      <point x="412" y="529" type="curve"/>
      <point x="481" y="529"/>
      <point x="517" y="563"/>
      <point x="517" y="608" type="curve" smooth="yes"/>
      <point x="517" y="674"/>
      <point x="452" y="727"/>
      <point x="327" y="727" type="curve" smooth="yes"/>
      <point x="141" y="727"/>
      <point x="45" y="578"/>
      <point x="45" y="358" type="curve" smooth="yes"/>
      <point x="45" y="137"/>
      <point x="138" y="-10"/>
      <point x="323" y="-10" type="curve" smooth="yes"/>
      <point x="367" y="-10"/>
      <point x="403" y="-2"/>
      <point x="430" y="10" type="curve"/>
      <point x="404" y="-57"/>
      <point x="361" y="-90"/>
      <point x="319" y="-90" type="curve" smooth="yes"/>
      <point x="296" y="-90"/>
      <point x="272" y="-83"/>
      <point x="255" y="-68" type="curve"/>
      <point x="238" y="-90"/>
      <point x="230" y="-108"/>
      <point x="230" y="-131" type="curve" smooth="yes"/>
      <point x="230" y="-166"/>
      <point x="257" y="-189"/>
    </contour>
  </outline>
</glyph>
<glyph name="Jil-oldgeorgian" format="2">
  <advance width="849"/>
  <unicode hex="10BB"/>
  <note>
uni10BB
</note>
  <outline>
    <contour>
      <point x="263" y="-13" type="curve" smooth="yes"/>
      <point x="402" y="-13"/>
      <point x="488" y="51"/>
      <point x="488" y="217" type="curve" smooth="yes"/>
      <point x="488" y="383" type="line"/>
      <point x="624" y="383" type="line"/>
      <point x="624" y="0" type="line"/>
      <point x="833" y="0" type="line"/>
      <point x="833" y="48" type="line"/>
      <point x="800" y="48" type="line" smooth="yes"/>
      <point x="774" y="48"/>
      <point x="757" y="65"/>
      <point x="757" y="110" type="curve" smooth="yes"/>
      <point x="757" y="442" type="line"/>
      <point x="488" y="442" type="line"/>
      <point x="488" y="601" type="line" smooth="yes"/>
      <point x="488" y="649"/>
      <point x="503" y="663"/>
      <point x="530" y="663" type="curve" smooth="yes"/>
      <point x="546" y="663" type="line"/>
      <point x="546" y="714" type="line"/>
      <point x="291" y="714" type="line"/>
      <point x="291" y="663" type="line"/>
      <point x="312" y="663" type="line" smooth="yes"/>
      <point x="333" y="663"/>
      <point x="354" y="651"/>
      <point x="354" y="608" type="curve" smooth="yes"/>
      <point x="354" y="442" type="line"/>
      <point x="275" y="442" type="line" smooth="yes"/>
      <point x="110" y="442"/>
      <point x="44" y="368"/>
      <point x="44" y="220" type="curve" smooth="yes"/>
      <point x="44" y="82"/>
      <point x="108" y="-13"/>
    </contour>
    <contour>
      <point x="265" y="52" type="curve" smooth="yes"/>
      <point x="208" y="52"/>
      <point x="177" y="112"/>
      <point x="177" y="221" type="curve" smooth="yes"/>
      <point x="177" y="335"/>
      <point x="205" y="383"/>
      <point x="273" y="383" type="curve" smooth="yes"/>
      <point x="354" y="383" type="line"/>
      <point x="354" y="216" type="line" smooth="yes"/>
      <point x="354" y="90"/>
      <point x="325" y="52"/>
    </contour>
  </outline>
</glyph>
<glyph name="Cil-oldgeorgian" format="2">
  <advance width="524"/>
  <unicode hex="10BC"/>
  <note>
uni10BC
</note>
  <outline>
    <contour>
      <point x="98" y="0" type="line"/>
      <point x="233" y="0" type="line"/>
      <point x="233" y="167" type="line"/>
      <point x="260" y="167" type="line" smooth="yes"/>
      <point x="302" y="167"/>
      <point x="334" y="149"/>
      <point x="334" y="64" type="curve"/>
      <point x="395" y="64"/>
      <point x="427" y="92"/>
      <point x="427" y="135" type="curve" smooth="yes"/>
      <point x="427" y="202"/>
      <point x="367" y="227"/>
      <point x="268" y="227" type="curve" smooth="yes"/>
      <point x="233" y="227" type="line"/>
      <point x="233" y="288" type="line"/>
      <point x="264" y="288" type="line" smooth="yes"/>
      <point x="445" y="288"/>
      <point x="513" y="383"/>
      <point x="513" y="509" type="curve" smooth="yes"/>
      <point x="513" y="647"/>
      <point x="440" y="714"/>
      <point x="282" y="714" type="curve" smooth="yes"/>
      <point x="23" y="714" type="line"/>
      <point x="23" y="665" type="line"/>
      <point x="51" y="665" type="line" smooth="yes"/>
      <point x="76" y="665"/>
      <point x="98" y="657"/>
      <point x="98" y="601" type="curve" smooth="yes"/>
    </contour>
    <contour>
      <point x="232" y="342" type="line"/>
      <point x="232" y="659" type="line"/>
      <point x="268" y="659" type="line" smooth="yes"/>
      <point x="341" y="659"/>
      <point x="372" y="615"/>
      <point x="372" y="505" type="curve" smooth="yes"/>
      <point x="372" y="383"/>
      <point x="338" y="342"/>
      <point x="256" y="342" type="curve" smooth="yes"/>
    </contour>
  </outline>
</glyph>
<glyph name="Char-oldgeorgian" format="2">
  <advance width="475"/>
  <unicode hex="10BD"/>
  <note>
uni10BD
</note>
  <outline>
    <contour>
      <point x="226" y="-13" type="curve" smooth="yes"/>
      <point x="358" y="-13"/>
      <point x="446" y="69"/>
      <point x="446" y="198" type="curve" smooth="yes"/>
      <point x="446" y="299"/>
      <point x="403" y="360"/>
      <point x="289" y="417" type="curve" smooth="yes"/>
      <point x="179" y="472"/>
      <point x="153" y="511"/>
      <point x="153" y="569" type="curve" smooth="yes"/>
      <point x="153" y="634"/>
      <point x="184" y="671"/>
      <point x="233" y="671" type="curve" smooth="yes"/>
      <point x="295" y="671"/>
      <point x="326" y="600"/>
      <point x="326" y="533" type="curve"/>
      <point x="397" y="533"/>
      <point x="424" y="560"/>
      <point x="424" y="606" type="curve" smooth="yes"/>
      <point x="424" y="663"/>
      <point x="368" y="727"/>
      <point x="248" y="727" type="curve" smooth="yes"/>
      <point x="134" y="727"/>
      <point x="44" y="653"/>
      <point x="44" y="536" type="curve" smooth="yes"/>
      <point x="44" y="435"/>
      <point x="85" y="371"/>
      <point x="196" y="313" type="curve" smooth="yes"/>
      <point x="285" y="266"/>
      <point x="336" y="232"/>
      <point x="336" y="157" type="curve" smooth="yes"/>
      <point x="336" y="92"/>
      <point x="302" y="42"/>
      <point x="240" y="42" type="curve" smooth="yes"/>
      <point x="177" y="42"/>
      <point x="120" y="102"/>
      <point x="118" y="214" type="curve"/>
      <point x="70" y="214"/>
      <point x="27" y="189"/>
      <point x="27" y="127" type="curve" smooth="yes"/>
      <point x="27" y="59"/>
      <point x="72" y="-13"/>
    </contour>
  </outline>
</glyph>
<glyph name="Xan-oldgeorgian" format="2">
  <advance width="632"/>
  <unicode hex="10BE"/>
  <note>
uni10BE
</note>
  <outline>
    <contour>
      <point x="23" y="0" type="line"/>
      <point x="547" y="0" type="line"/>
      <point x="547" y="48" type="line"/>
      <point x="233" y="48" type="line"/>
      <point x="233" y="293" type="line"/>
      <point x="537" y="293" type="line"/>
      <point x="537" y="604" type="line"/>
      <point x="537" y="649"/>
      <point x="554" y="666"/>
      <point x="580" y="666" type="curve" smooth="yes"/>
      <point x="613" y="666" type="line"/>
      <point x="613" y="714" type="line"/>
      <point x="404" y="714" type="line"/>
      <point x="404" y="349" type="line"/>
      <point x="233" y="349" type="line"/>
      <point x="233" y="603" type="line" smooth="yes"/>
      <point x="233" y="648"/>
      <point x="246" y="666"/>
      <point x="273" y="666" type="curve" smooth="yes"/>
      <point x="297" y="666" type="line"/>
      <point x="297" y="714" type="line"/>
      <point x="23" y="714" type="line"/>
      <point x="23" y="666" type="line"/>
      <point x="57" y="666" type="line" smooth="yes"/>
      <point x="83" y="666"/>
      <point x="99" y="648"/>
      <point x="99" y="603" type="curve" smooth="yes"/>
      <point x="99" y="111" type="line" smooth="yes"/>
      <point x="99" y="63"/>
      <point x="79" y="48"/>
      <point x="51" y="48" type="curve" smooth="yes"/>
      <point x="23" y="48" type="line"/>
    </contour>
  </outline>
</glyph>
<glyph name="Jhan-oldgeorgian" format="2">
  <advance width="596"/>
  <unicode hex="10BF"/>
  <note>
uni10BF
</note>
  <outline>
    <contour>
      <point x="7" y="0" type="line"/>
      <point x="34" y="0" type="line" smooth="yes"/>
      <point x="91" y="0"/>
      <point x="114" y="25"/>
      <point x="149" y="86" type="curve" smooth="yes"/>
      <point x="271" y="301" type="line"/>
      <point x="347" y="151" type="line" smooth="yes"/>
      <point x="369" y="107"/>
      <point x="374" y="96"/>
      <point x="374" y="81" type="curve" smooth="yes"/>
      <point x="374" y="59"/>
      <point x="354" y="46"/>
      <point x="318" y="46" type="curve"/>
      <point x="321" y="46" type="line"/>
      <point x="321" y="0" type="line"/>
      <point x="592" y="0" type="line"/>
      <point x="592" y="46" type="line"/>
      <point x="581" y="46" type="line" smooth="yes"/>
      <point x="561" y="46"/>
      <point x="535" y="65"/>
      <point x="517" y="101" type="curve" smooth="yes"/>
      <point x="370" y="387" type="line"/>
      <point x="525" y="665" type="line"/>
      <point x="525" y="714" type="line"/>
      <point x="25" y="714" type="line"/>
      <point x="25" y="665" type="line"/>
      <point x="78" y="665" type="line"/>
      <point x="240" y="355" type="line"/>
      <point x="98" y="119" type="line" smooth="yes"/>
      <point x="69" y="71"/>
      <point x="51" y="49"/>
      <point x="12" y="49" type="curve" smooth="yes"/>
      <point x="7" y="49" type="line"/>
    </contour>
    <contour>
      <point x="341" y="440" type="line"/>
      <point x="226" y="665" type="line"/>
      <point x="386" y="665" type="line" smooth="yes"/>
      <point x="412" y="665"/>
      <point x="432" y="660"/>
      <point x="432" y="636" type="curve" smooth="yes"/>
      <point x="432" y="618"/>
      <point x="420" y="595"/>
      <point x="410" y="575" type="curve" smooth="yes"/>
    </contour>
  </outline>
</glyph>
<glyph name="Hae-oldgeorgian" format="2">
  <advance width="849"/>
  <unicode hex="10C0"/>
  <note>
uni10C0
</note>
  <outline>
    <contour>
      <point x="586" y="-13" type="curve" smooth="yes"/>
      <point x="755" y="-13"/>
      <point x="819" y="81"/>
      <point x="819" y="211" type="curve" smooth="yes"/>
      <point x="819" y="290"/>
      <point x="783" y="359"/>
      <point x="701" y="359" type="curve" smooth="yes"/>
      <point x="683" y="359"/>
      <point x="665" y="356"/>
      <point x="648" y="349" type="curve"/>
      <point x="678" y="306"/>
      <point x="686" y="270"/>
      <point x="686" y="216" type="curve" smooth="yes"/>
      <point x="686" y="114"/>
      <point x="651" y="52"/>
      <point x="586" y="52" type="curve" smooth="yes"/>
      <point x="516" y="52"/>
      <point x="482" y="95"/>
      <point x="482" y="213" type="curve" smooth="yes"/>
      <point x="482" y="606" type="line" smooth="yes"/>
      <point x="482" y="650"/>
      <point x="502" y="663"/>
      <point x="525" y="663" type="curve" smooth="yes"/>
      <point x="546" y="663" type="line"/>
      <point x="546" y="714" type="line"/>
      <point x="20" y="714" type="line"/>
      <point x="20" y="663" type="line"/>
      <point x="41" y="663" type="line" smooth="yes"/>
      <point x="65" y="663"/>
      <point x="84" y="649"/>
      <point x="84" y="602" type="curve" smooth="yes"/>
      <point x="84" y="440" type="line" smooth="yes"/>
      <point x="84" y="392"/>
      <point x="65" y="378"/>
      <point x="41" y="378" type="curve" smooth="yes"/>
      <point x="20" y="378" type="line"/>
      <point x="20" y="327" type="line"/>
      <point x="218" y="327" type="line"/>
      <point x="218" y="648" type="line"/>
      <point x="348" y="648" type="line"/>
      <point x="348" y="217" type="line" smooth="yes"/>
      <point x="348" y="53"/>
      <point x="440" y="-13"/>
    </contour>
  </outline>
</glyph>
<glyph name="He-oldgeorgian" format="2">
  <advance width="671"/>
  <unicode hex="10C1"/>
  <note>
uni10C1
</note>
  <outline>
    <contour>
      <point x="90" y="0" type="line"/>
      <point x="227" y="0" type="line"/>
      <point x="227" y="367" type="line" smooth="yes"/>
      <point x="227" y="417"/>
      <point x="265" y="467"/>
      <point x="320" y="467" type="curve" smooth="yes"/>
      <point x="377" y="467"/>
      <point x="397" y="431"/>
      <point x="397" y="360" type="curve" smooth="yes"/>
      <point x="397" y="252" type="line"/>
      <point x="659" y="252" type="line"/>
      <point x="659" y="310" type="line"/>
      <point x="533" y="310" type="line"/>
      <point x="533" y="365" type="line" smooth="yes"/>
      <point x="533" y="492"/>
      <point x="471" y="548"/>
      <point x="369" y="548" type="curve" smooth="yes"/>
      <point x="313" y="548"/>
      <point x="262" y="524"/>
      <point x="227" y="471" type="curve"/>
      <point x="223" y="471" type="line"/>
      <point x="226" y="494"/>
      <point x="227" y="518"/>
      <point x="227" y="541" type="curve" smooth="yes"/>
      <point x="227" y="714" type="line"/>
      <point x="22" y="714" type="line"/>
      <point x="22" y="665" type="line"/>
      <point x="44" y="665" type="line" smooth="yes"/>
      <point x="77" y="665"/>
      <point x="90" y="655"/>
      <point x="90" y="597" type="curve" smooth="yes"/>
    </contour>
  </outline>
</glyph>
<glyph name="Hie-oldgeorgian" format="2">
  <advance width="550"/>
  <unicode hex="10C2"/>
  <note>
uni10C2
</note>
  <outline>
    <contour>
      <point x="223" y="-13" type="curve" smooth="yes"/>
      <point x="410" y="-13"/>
      <point x="506" y="118"/>
      <point x="506" y="290" type="curve" smooth="yes"/>
      <point x="506" y="459"/>
      <point x="423" y="596"/>
      <point x="255" y="596" type="curve" smooth="yes"/>
      <point x="241" y="596" type="line"/>
      <point x="241" y="714" type="line"/>
      <point x="31" y="714" type="line"/>
      <point x="31" y="665" type="line"/>
      <point x="58" y="665" type="line" smooth="yes"/>
      <point x="92" y="665"/>
      <point x="106" y="657"/>
      <point x="106" y="598" type="curve" smooth="yes"/>
      <point x="106" y="531" type="line"/>
      <point x="198" y="531" type="line" smooth="yes"/>
      <point x="321" y="531"/>
      <point x="362" y="439"/>
      <point x="362" y="289" type="curve" smooth="yes"/>
      <point x="362" y="141"/>
      <point x="328" y="47"/>
      <point x="231" y="47" type="curve" smooth="yes"/>
      <point x="162" y="47"/>
      <point x="138" y="121"/>
      <point x="138" y="189" type="curve"/>
      <point x="69" y="189"/>
      <point x="33" y="153"/>
      <point x="33" y="106" type="curve" smooth="yes"/>
      <point x="33" y="46"/>
      <point x="97" y="-13"/>
    </contour>
  </outline>
</glyph>
<glyph name="We-oldgeorgian" format="2">
  <advance width="611"/>
  <unicode hex="10C3"/>
  <note>
uni10C3
</note>
  <outline>
    <contour>
      <point x="322" y="714" type="line"/>
      <point x="322" y="663" type="line"/>
      <point x="343" y="663" type="line" smooth="yes"/>
      <point x="366" y="663"/>
      <point x="386" y="649"/>
      <point x="386" y="602" type="curve" smooth="yes"/>
      <point x="386" y="436" type="line" smooth="yes"/>
      <point x="386" y="352"/>
      <point x="341" y="303"/>
      <point x="269" y="303" type="curve" smooth="yes"/>
      <point x="207" y="303"/>
      <point x="174" y="346"/>
      <point x="174" y="440" type="curve" smooth="yes"/>
      <point x="174" y="499"/>
      <point x="185" y="535"/>
      <point x="211" y="564" type="curve"/>
      <point x="194" y="575"/>
      <point x="172" y="581"/>
      <point x="151" y="581" type="curve" smooth="yes"/>
      <point x="96" y="581"/>
      <point x="38" y="541"/>
      <point x="38" y="434" type="curve" smooth="yes"/>
      <point x="38" y="294"/>
      <point x="121" y="232"/>
      <point x="220" y="232" type="curve" smooth="yes"/>
      <point x="294" y="232"/>
      <point x="350" y="257"/>
      <point x="385" y="310" type="curve"/>
      <point x="389" y="310" type="line"/>
      <point x="387" y="286"/>
      <point x="386" y="263"/>
      <point x="386" y="240" type="curve" smooth="yes"/>
      <point x="386" y="0" type="line"/>
      <point x="522" y="0" type="line"/>
      <point x="522" y="601" type="line" smooth="yes"/>
      <point x="522" y="649"/>
      <point x="537" y="663"/>
      <point x="564" y="663" type="curve" smooth="yes"/>
      <point x="587" y="663" type="line"/>
      <point x="587" y="714" type="line"/>
    </contour>
  </outline>
</glyph>
<glyph name="Har-oldgeorgian" format="2">
  <advance width="610"/>
  <unicode hex="10C4"/>
  <note>
uni10C4
</note>
  <outline>
    <contour>
      <point x="334" y="714" type="line"/>
      <point x="334" y="663" type="line"/>
      <point x="352" y="663" type="line" smooth="yes"/>
      <point x="375" y="663"/>
      <point x="394" y="649"/>
      <point x="394" y="602" type="curve" smooth="yes"/>
      <point x="394" y="450" type="line" smooth="yes"/>
      <point x="394" y="333"/>
      <point x="367" y="299"/>
      <point x="308" y="299" type="curve" smooth="yes"/>
      <point x="251" y="299"/>
      <point x="224" y="345"/>
      <point x="224" y="432" type="curve" smooth="yes"/>
      <point x="224" y="601" type="line" smooth="yes"/>
      <point x="224" y="649"/>
      <point x="239" y="663"/>
      <point x="265" y="663" type="curve" smooth="yes"/>
      <point x="285" y="663" type="line"/>
      <point x="285" y="714" type="line"/>
      <point x="24" y="714" type="line"/>
      <point x="24" y="663" type="line"/>
      <point x="45" y="663" type="line" smooth="yes"/>
      <point x="67" y="663"/>
      <point x="88" y="649"/>
      <point x="88" y="602" type="curve" smooth="yes"/>
      <point x="88" y="430" type="line" smooth="yes"/>
      <point x="88" y="331"/>
      <point x="129" y="258"/>
      <point x="241" y="240" type="curve"/>
      <point x="241" y="0" type="line"/>
      <point x="378" y="0" type="line"/>
      <point x="378" y="240" type="line"/>
      <point x="472" y="259"/>
      <point x="531" y="325"/>
      <point x="531" y="457" type="curve" smooth="yes"/>
      <point x="531" y="601" type="line" smooth="yes"/>
      <point x="531" y="649"/>
      <point x="546" y="663"/>
      <point x="573" y="663" type="curve" smooth="yes"/>
      <point x="595" y="663" type="line"/>
      <point x="595" y="714" type="line"/>
    </contour>
  </outline>
</glyph>
<glyph name="Hoe-oldgeorgian" format="2">
  <advance width="662"/>
  <unicode hex="10C5"/>
  <note>
uni10C5
</note>
  <outline>
    <contour>
      <point x="186" y="-13" type="curve" smooth="yes"/>
      <point x="300" y="-13"/>
      <point x="371" y="44"/>
      <point x="371" y="130" type="curve" smooth="yes"/>
      <point x="371" y="206" type="line"/>
      <point x="410" y="206" type="line" smooth="yes"/>
      <point x="472" y="206"/>
      <point x="504" y="188"/>
      <point x="504" y="103" type="curve"/>
      <point x="565" y="103"/>
      <point x="597" y="131"/>
      <point x="597" y="174" type="curve" smooth="yes"/>
      <point x="597" y="241"/>
      <point x="537" y="263"/>
      <point x="438" y="263" type="curve" smooth="yes"/>
      <point x="371" y="263" type="line"/>
      <point x="371" y="324" type="line"/>
      <point x="401" y="324" type="line" smooth="yes"/>
      <point x="584" y="324"/>
      <point x="650" y="414"/>
      <point x="650" y="526" type="curve" smooth="yes"/>
      <point x="650" y="648"/>
      <point x="578" y="714"/>
      <point x="419" y="714" type="curve" smooth="yes"/>
      <point x="161" y="714" type="line"/>
      <point x="161" y="665" type="line"/>
      <point x="188" y="665" type="line" smooth="yes"/>
      <point x="213" y="665"/>
      <point x="236" y="657"/>
      <point x="236" y="601" type="curve" smooth="yes"/>
      <point x="236" y="263" type="line"/>
      <point x="181" y="263" type="line" smooth="yes"/>
      <point x="73" y="263"/>
      <point x="12" y="215"/>
      <point x="12" y="130" type="curve" smooth="yes"/>
      <point x="12" y="37"/>
      <point x="82" y="-13"/>
    </contour>
    <contour>
      <point x="185" y="44" type="curve" smooth="yes"/>
      <point x="150" y="44"/>
      <point x="135" y="68"/>
      <point x="135" y="124" type="curve" smooth="yes"/>
      <point x="135" y="179"/>
      <point x="158" y="206"/>
      <point x="197" y="206" type="curve" smooth="yes"/>
      <point x="236" y="206" type="line"/>
      <point x="236" y="128" type="line" smooth="yes"/>
      <point x="236" y="67"/>
      <point x="216" y="44"/>
    </contour>
    <contour>
      <point x="371" y="378" type="line"/>
      <point x="371" y="659" type="line"/>
      <point x="406" y="659" type="line" smooth="yes"/>
      <point x="478" y="659"/>
      <point x="510" y="615"/>
      <point x="510" y="522" type="curve" smooth="yes"/>
      <point x="510" y="418"/>
      <point x="475" y="378"/>
      <point x="394" y="378" type="curve" smooth="yes"/>
    </contour>
  </outline>
</glyph>
<glyph name="Yn-oldgeorgian" format="2">
  <advance width="475"/>
  <unicode hex="10C7"/>
  <outline>
    <contour>
      <point x="242" y="-13" type="curve" smooth="yes"/>
      <point x="402" y="-13"/>
      <point x="447" y="59"/>
      <point x="447" y="127" type="curve" smooth="yes"/>
      <point x="447" y="189"/>
      <point x="405" y="214"/>
      <point x="357" y="214" type="curve"/>
      <point x="354" y="102"/>
      <point x="298" y="42"/>
      <point x="235" y="42" type="curve" smooth="yes"/>
      <point x="172" y="42"/>
      <point x="139" y="92"/>
      <point x="139" y="157" type="curve" smooth="yes"/>
      <point x="139" y="232"/>
      <point x="188" y="267"/>
      <point x="278" y="313" type="curve" smooth="yes"/>
      <point x="391" y="371"/>
      <point x="430" y="435"/>
      <point x="430" y="536" type="curve" smooth="yes"/>
      <point x="430" y="649"/>
      <point x="356" y="727"/>
      <point x="237" y="727" type="curve" smooth="yes"/>
      <point x="106" y="727"/>
      <point x="50" y="663"/>
      <point x="50" y="606" type="curve" smooth="yes"/>
      <point x="50" y="560"/>
      <point x="78" y="533"/>
      <point x="148" y="533" type="curve"/>
      <point x="148" y="600"/>
      <point x="180" y="671"/>
      <point x="242" y="671" type="curve" smooth="yes"/>
      <point x="290" y="671"/>
      <point x="322" y="631"/>
      <point x="322" y="567" type="curve" smooth="yes"/>
      <point x="322" y="508"/>
      <point x="296" y="471"/>
      <point x="185" y="417" type="curve" smooth="yes"/>
      <point x="71" y="361"/>
      <point x="29" y="299"/>
      <point x="29" y="198" type="curve" smooth="yes"/>
      <point x="29" y="63"/>
      <point x="101" y="-13"/>
    </contour>
  </outline>
</glyph>
<glyph name="Aen-oldgeorgian" format="2">
  <advance width="549"/>
  <unicode hex="10CD"/>
  <outline>
    <contour>
      <point x="34" y="0" type="line"/>
      <point x="509" y="0" type="line"/>
      <point x="513" y="196" type="line"/>
      <point x="453" y="196" type="line"/>
      <point x="449" y="151" type="line" smooth="yes"/>
      <point x="445" y="103"/>
      <point x="429" y="57"/>
      <point x="361" y="57" type="curve" smooth="yes"/>
      <point x="186" y="57" type="line"/>
      <point x="495" y="667" type="line"/>
      <point x="495" y="714" type="line"/>
      <point x="54" y="714" type="line"/>
      <point x="50" y="518" type="line"/>
      <point x="111" y="518" type="line"/>
      <point x="115" y="569" type="line" smooth="yes"/>
      <point x="119" y="620"/>
      <point x="129" y="657"/>
      <point x="182" y="657" type="curve" smooth="yes"/>
      <point x="342" y="657" type="line"/>
      <point x="34" y="46" type="line"/>
    </contour>
  </outline>
</glyph>
<glyph name="an-georgian" format="2">
  <advance width="474"/>
  <unicode hex="10D0"/>
  <note>
uni10D0
</note>
  <anchor x="237" y="536" name="top"/>
  <outline>
    <contour>
      <point x="233" y="-13" type="curve" smooth="yes"/>
      <point x="346" y="-13"/>
      <point x="435" y="44"/>
      <point x="435" y="175" type="curve" smooth="yes"/>
      <point x="435" y="269"/>
      <point x="388" y="322"/>
      <point x="333" y="378" type="curve" smooth="yes"/>
      <point x="307" y="405"/>
      <point x="288" y="436"/>
      <point x="288" y="479" type="curve" smooth="yes"/>
      <point x="288" y="497"/>
      <point x="294" y="518"/>
      <point x="302" y="532" type="curve"/>
      <point x="290" y="543"/>
      <point x="275" y="549"/>
      <point x="249" y="549" type="curve" smooth="yes"/>
      <point x="204" y="549"/>
      <point x="173" y="516"/>
      <point x="173" y="466" type="curve" smooth="yes"/>
      <point x="173" y="402"/>
      <point x="204" y="368"/>
      <point x="235" y="332" type="curve" smooth="yes"/>
      <point x="268" y="293"/>
      <point x="303" y="253"/>
      <point x="303" y="172" type="curve" smooth="yes"/>
      <point x="303" y="83"/>
      <point x="279" y="46"/>
      <point x="232" y="46" type="curve" smooth="yes"/>
      <point x="187" y="46"/>
      <point x="164" y="90"/>
      <point x="164" y="165" type="curve" smooth="yes"/>
      <point x="164" y="199"/>
      <point x="169" y="227"/>
      <point x="179" y="253" type="curve"/>
      <point x="162" y="264"/>
      <point x="143" y="269"/>
      <point x="127" y="269" type="curve" smooth="yes"/>
      <point x="72" y="269"/>
      <point x="34" y="225"/>
      <point x="34" y="156" type="curve" smooth="yes"/>
      <point x="34" y="70"/>
      <point x="87" y="-13"/>
    </contour>
  </outline>
</glyph>
<glyph name="ban-georgian" format="2">
  <advance width="505"/>
  <unicode hex="10D1"/>
  <note>
uni10D1
</note>
  <outline>
    <contour>
      <point x="313" y="537" type="curve"/>
      <point x="322" y="552"/>
      <point x="328" y="568"/>
      <point x="328" y="586" type="curve" smooth="yes"/>
      <point x="328" y="624"/>
      <point x="309" y="646"/>
      <point x="289" y="663" type="curve" smooth="yes"/>
      <point x="267" y="681"/>
      <point x="250" y="698"/>
      <point x="250" y="723" type="curve" smooth="yes"/>
      <point x="250" y="734"/>
      <point x="252" y="744"/>
      <point x="257" y="756" type="curve"/>
      <point x="242" y="766"/>
      <point x="225" y="773"/>
      <point x="201" y="773" type="curve" smooth="yes"/>
      <point x="170" y="773"/>
      <point x="136" y="751"/>
      <point x="136" y="710" type="curve" smooth="yes"/>
      <point x="136" y="680"/>
      <point x="156" y="660"/>
      <point x="178" y="640" type="curve" smooth="yes"/>
      <point x="196" y="624"/>
      <point x="211" y="605"/>
      <point x="211" y="577" type="curve" smooth="yes"/>
      <point x="211" y="563"/>
      <point x="209" y="551"/>
      <point x="205" y="540" type="curve"/>
      <point x="95" y="521"/>
      <point x="39" y="434"/>
      <point x="39" y="270" type="curve" smooth="yes"/>
      <point x="39" y="78"/>
      <point x="118" y="-13"/>
      <point x="251" y="-13" type="curve" smooth="yes"/>
      <point x="392" y="-13"/>
      <point x="466" y="78"/>
      <point x="466" y="270" type="curve" smooth="yes"/>
      <point x="466" y="427"/>
      <point x="409" y="514"/>
    </contour>
    <contour>
      <point x="253" y="46" type="curve" smooth="yes"/>
      <point x="191" y="46"/>
      <point x="171" y="122"/>
      <point x="171" y="270" type="curve" smooth="yes"/>
      <point x="171" y="414"/>
      <point x="190" y="489"/>
      <point x="252" y="489" type="curve" smooth="yes"/>
      <point x="312" y="489"/>
      <point x="334" y="414"/>
      <point x="334" y="270" type="curve" smooth="yes"/>
      <point x="334" y="122"/>
      <point x="313" y="46"/>
    </contour>
  </outline>
</glyph>
<glyph name="gan-georgian" format="2">
  <advance width="496"/>
  <unicode hex="10D2"/>
  <note>
uni10D2
</note>
  <outline>
    <contour>
      <point x="247" y="-253" type="curve" smooth="yes"/>
      <point x="389" y="-253"/>
      <point x="462" y="-162"/>
      <point x="462" y="30" type="curve" smooth="yes"/>
      <point x="462" y="182"/>
      <point x="409" y="270"/>
      <point x="312" y="295" type="curve"/>
      <point x="312" y="299" type="line"/>
      <point x="376" y="318"/>
      <point x="413" y="363"/>
      <point x="413" y="418" type="curve" smooth="yes"/>
      <point x="413" y="500"/>
      <point x="336" y="549"/>
      <point x="242" y="549" type="curve" smooth="yes"/>
      <point x="139" y="549"/>
      <point x="73" y="500"/>
      <point x="73" y="437" type="curve" smooth="yes"/>
      <point x="73" y="390"/>
      <point x="107" y="360"/>
      <point x="148" y="360" type="curve" smooth="yes"/>
      <point x="167" y="360"/>
      <point x="188" y="364"/>
      <point x="205" y="370" type="curve"/>
      <point x="200" y="381"/>
      <point x="194" y="401"/>
      <point x="194" y="428" type="curve" smooth="yes"/>
      <point x="194" y="465"/>
      <point x="211" y="492"/>
      <point x="242" y="492" type="curve" smooth="yes"/>
      <point x="274" y="492"/>
      <point x="292" y="465"/>
      <point x="292" y="421" type="curve" smooth="yes"/>
      <point x="292" y="371"/>
      <point x="279" y="326"/>
      <point x="221" y="311" type="curve" smooth="yes"/>
      <point x="93" y="278"/>
      <point x="34" y="206"/>
      <point x="34" y="30" type="curve" smooth="yes"/>
      <point x="34" y="-162"/>
      <point x="115" y="-253"/>
    </contour>
    <contour>
      <point x="249" y="-194" type="curve" smooth="yes"/>
      <point x="189" y="-194"/>
      <point x="166" y="-119"/>
      <point x="166" y="30" type="curve" smooth="yes"/>
      <point x="166" y="175"/>
      <point x="188" y="249"/>
      <point x="248" y="249" type="curve" smooth="yes"/>
      <point x="309" y="249"/>
      <point x="330" y="175"/>
      <point x="330" y="30" type="curve" smooth="yes"/>
      <point x="330" y="-119"/>
      <point x="310" y="-194"/>
    </contour>
  </outline>
</glyph>
<glyph name="don-georgian" format="2">
  <advance width="744"/>
  <unicode hex="10D3"/>
  <note>
uni10D3
</note>
  <outline>
    <contour>
      <point x="502" y="4" type="curve" smooth="yes"/>
      <point x="625" y="4"/>
      <point x="705" y="96"/>
      <point x="705" y="276" type="curve" smooth="yes"/>
      <point x="705" y="456"/>
      <point x="633" y="549"/>
      <point x="506" y="549" type="curve" smooth="yes"/>
      <point x="447" y="549"/>
      <point x="388" y="517"/>
      <point x="366" y="448" type="curve"/>
      <point x="362" y="448" type="line"/>
      <point x="339" y="517"/>
      <point x="284" y="549"/>
      <point x="227" y="549" type="curve" smooth="yes"/>
      <point x="118" y="549"/>
      <point x="39" y="458"/>
      <point x="39" y="280" type="curve" smooth="yes"/>
      <point x="39" y="89"/>
      <point x="118" y="-23"/>
      <point x="249" y="-81" type="curve"/>
      <point x="249" y="-85" type="line"/>
      <point x="212" y="-90"/>
      <point x="173" y="-103"/>
      <point x="144" y="-124" type="curve"/>
      <point x="170" y="-164" type="line"/>
      <point x="209" y="-141"/>
      <point x="258" y="-126"/>
      <point x="322" y="-126" type="curve" smooth="yes"/>
      <point x="413" y="-126"/>
      <point x="494" y="-173"/>
      <point x="494" y="-253" type="curve"/>
      <point x="542" y="-253"/>
      <point x="576" y="-238"/>
      <point x="576" y="-192" type="curve" smooth="yes"/>
      <point x="576" y="-123"/>
      <point x="509" y="-86"/>
      <point x="403" y="-53" type="curve" smooth="yes"/>
      <point x="266" y="-11"/>
      <point x="171" y="69"/>
      <point x="171" y="280" type="curve" smooth="yes"/>
      <point x="171" y="427"/>
      <point x="190" y="490"/>
      <point x="237" y="490" type="curve" smooth="yes"/>
      <point x="282" y="490"/>
      <point x="299" y="448"/>
      <point x="299" y="336" type="curve" smooth="yes"/>
      <point x="299" y="276" type="line" smooth="yes"/>
      <point x="299" y="96"/>
      <point x="372" y="4"/>
    </contour>
    <contour>
      <point x="501" y="490" type="curve" smooth="yes"/>
      <point x="554" y="490"/>
      <point x="573" y="426"/>
      <point x="573" y="276" type="curve" smooth="yes"/>
      <point x="573" y="130"/>
      <point x="554" y="63"/>
      <point x="501" y="63" type="curve" smooth="yes"/>
      <point x="449" y="63"/>
      <point x="427" y="130"/>
      <point x="427" y="276" type="curve" smooth="yes"/>
      <point x="427" y="433"/>
      <point x="447" y="490"/>
    </contour>
  </outline>
</glyph>
<glyph name="en-georgian" format="2">
  <advance width="501"/>
  <unicode hex="10D4"/>
  <note>
uni10D4
</note>
  <anchor x="251" y="536" name="top"/>
  <outline>
    <contour>
      <point x="238" y="-253" type="curve" smooth="yes"/>
      <point x="369" y="-253"/>
      <point x="443" y="-168"/>
      <point x="443" y="-5" type="curve" smooth="yes"/>
      <point x="443" y="329" type="line" smooth="yes"/>
      <point x="443" y="478"/>
      <point x="358" y="549"/>
      <point x="241" y="549" type="curve" smooth="yes"/>
      <point x="128" y="549"/>
      <point x="51" y="480"/>
      <point x="51" y="381" type="curve" smooth="yes"/>
      <point x="51" y="311"/>
      <point x="88" y="267"/>
      <point x="139" y="267" type="curve" smooth="yes"/>
      <point x="155" y="267"/>
      <point x="173" y="270"/>
      <point x="191" y="277" type="curve"/>
      <point x="181" y="305"/>
      <point x="176" y="337"/>
      <point x="176" y="372" type="curve" smooth="yes"/>
      <point x="176" y="436"/>
      <point x="194" y="490"/>
      <point x="243" y="490" type="curve" smooth="yes"/>
      <point x="288" y="490"/>
      <point x="313" y="447"/>
      <point x="313" y="359" type="curve" smooth="yes"/>
      <point x="313" y="-49" type="line" smooth="yes"/>
      <point x="313" y="-134"/>
      <point x="292" y="-194"/>
      <point x="238" y="-194" type="curve" smooth="yes"/>
      <point x="184" y="-194"/>
      <point x="164" y="-135"/>
      <point x="164" y="-53" type="curve" smooth="yes"/>
      <point x="164" y="14"/>
      <point x="176" y="52"/>
      <point x="188" y="76" type="curve"/>
      <point x="176" y="87"/>
      <point x="158" y="93"/>
      <point x="138" y="93" type="curve" smooth="yes"/>
      <point x="90" y="93"/>
      <point x="34" y="57"/>
      <point x="34" y="-52" type="curve" smooth="yes"/>
      <point x="34" y="-168"/>
      <point x="100" y="-253"/>
    </contour>
  </outline>
</glyph>
<glyph name="vin-georgian" format="2">
  <advance width="500"/>
  <unicode hex="10D5"/>
  <note>
uni10D5
</note>
  <outline>
    <contour>
      <point x="247" y="-253" type="curve" smooth="yes"/>
      <point x="382" y="-253"/>
      <point x="466" y="-175"/>
      <point x="466" y="-22" type="curve" smooth="yes"/>
      <point x="466" y="117"/>
      <point x="386" y="172"/>
      <point x="313" y="191" type="curve"/>
      <point x="313" y="194" type="line"/>
      <point x="386" y="217"/>
      <point x="443" y="268"/>
      <point x="443" y="370" type="curve" smooth="yes"/>
      <point x="443" y="479"/>
      <point x="362" y="549"/>
      <point x="244" y="549" type="curve" smooth="yes"/>
      <point x="132" y="549"/>
      <point x="50" y="478"/>
      <point x="50" y="401" type="curve" smooth="yes"/>
      <point x="50" y="333"/>
      <point x="89" y="302"/>
      <point x="136" y="302" type="curve" smooth="yes"/>
      <point x="153" y="302"/>
      <point x="172" y="305"/>
      <point x="190" y="312" type="curve"/>
      <point x="180" y="337"/>
      <point x="177" y="358"/>
      <point x="177" y="391" type="curve" smooth="yes"/>
      <point x="177" y="440"/>
      <point x="197" y="490"/>
      <point x="246" y="490" type="curve" smooth="yes"/>
      <point x="289" y="490"/>
      <point x="313" y="449"/>
      <point x="313" y="360" type="curve" smooth="yes"/>
      <point x="313" y="257"/>
      <point x="274" y="224"/>
      <point x="230" y="224" type="curve" smooth="yes"/>
      <point x="193" y="224" type="line"/>
      <point x="193" y="158" type="line"/>
      <point x="232" y="158" type="line" smooth="yes"/>
      <point x="300" y="158"/>
      <point x="334" y="97"/>
      <point x="334" y="-24" type="curve" smooth="yes"/>
      <point x="334" y="-141"/>
      <point x="304" y="-194"/>
      <point x="247" y="-194" type="curve" smooth="yes"/>
      <point x="193" y="-194"/>
      <point x="164" y="-141"/>
      <point x="164" y="-66" type="curve" smooth="yes"/>
      <point x="164" y="-11"/>
      <point x="175" y="25"/>
      <point x="188" y="49" type="curve"/>
      <point x="176" y="60"/>
      <point x="156" y="66"/>
      <point x="136" y="66" type="curve" smooth="yes"/>
      <point x="89" y="66"/>
      <point x="34" y="30"/>
      <point x="34" y="-68" type="curve" smooth="yes"/>
      <point x="34" y="-175"/>
      <point x="108" y="-253"/>
    </contour>
  </outline>
</glyph>
<glyph name="zen-georgian" format="2">
  <advance width="521"/>
  <unicode hex="10D6"/>
  <note>
uni10D6
</note>
  <outline>
    <contour>
      <point x="267" y="-13" type="curve" smooth="yes"/>
      <point x="408" y="-13"/>
      <point x="482" y="78"/>
      <point x="482" y="263" type="curve" smooth="yes"/>
      <point x="482" y="410"/>
      <point x="428" y="497"/>
      <point x="328" y="522" type="curve" smooth="yes"/>
      <point x="323" y="523"/>
      <point x="317" y="524"/>
      <point x="314" y="525" type="curve"/>
      <point x="313" y="527" type="line"/>
      <point x="337" y="552"/>
      <point x="350" y="582"/>
      <point x="350" y="623" type="curve" smooth="yes"/>
      <point x="350" y="715"/>
      <point x="271" y="773"/>
      <point x="178" y="773" type="curve" smooth="yes"/>
      <point x="81" y="773"/>
      <point x="6" y="714"/>
      <point x="6" y="617" type="curve" smooth="yes"/>
      <point x="6" y="541"/>
      <point x="56" y="485"/>
      <point x="125" y="471" type="curve"/>
      <point x="125" y="468" type="line"/>
      <point x="82" y="426"/>
      <point x="54" y="363"/>
      <point x="54" y="263" type="curve" smooth="yes"/>
      <point x="54" y="78"/>
      <point x="133" y="-13"/>
    </contour>
    <contour>
      <point x="269" y="47" type="curve" smooth="yes"/>
      <point x="208" y="47"/>
      <point x="186" y="122"/>
      <point x="186" y="263" type="curve" smooth="yes"/>
      <point x="186" y="401"/>
      <point x="208" y="475"/>
      <point x="268" y="475" type="curve" smooth="yes"/>
      <point x="328" y="475"/>
      <point x="350" y="401"/>
      <point x="350" y="263" type="curve" smooth="yes"/>
      <point x="350" y="122"/>
      <point x="328" y="47"/>
    </contour>
    <contour>
      <point x="178" y="515" type="curve" smooth="yes"/>
      <point x="142" y="515"/>
      <point x="126" y="559"/>
      <point x="126" y="618" type="curve" smooth="yes"/>
      <point x="126" y="678"/>
      <point x="142" y="722"/>
      <point x="177" y="722" type="curve" smooth="yes"/>
      <point x="215" y="722"/>
      <point x="230" y="678"/>
      <point x="230" y="618" type="curve" smooth="yes"/>
      <point x="230" y="559"/>
      <point x="214" y="515"/>
    </contour>
  </outline>
</glyph>
<glyph name="tan-georgian" format="2">
  <advance width="744"/>
  <unicode hex="10D7"/>
  <note>
uni10D7
</note>
  <outline>
    <contour>
      <point x="243" y="-13" type="curve" smooth="yes"/>
      <point x="372" y="-13"/>
      <point x="446" y="79"/>
      <point x="446" y="269" type="curve" smooth="yes"/>
      <point x="446" y="336" type="line" smooth="yes"/>
      <point x="446" y="447"/>
      <point x="463" y="490"/>
      <point x="509" y="490" type="curve" smooth="yes"/>
      <point x="555" y="490"/>
      <point x="573" y="426"/>
      <point x="573" y="269" type="curve" smooth="yes"/>
      <point x="573" y="146"/>
      <point x="552" y="60"/>
      <point x="509" y="42" type="curve"/>
      <point x="509" y="11"/>
      <point x="521" y="-8"/>
      <point x="559" y="-8" type="curve" smooth="yes"/>
      <point x="635" y="-8"/>
      <point x="705" y="97"/>
      <point x="705" y="269" type="curve" smooth="yes"/>
      <point x="705" y="458"/>
      <point x="627" y="549"/>
      <point x="518" y="549" type="curve" smooth="yes"/>
      <point x="461" y="549"/>
      <point x="406" y="518"/>
      <point x="383" y="448" type="curve"/>
      <point x="379" y="448" type="line"/>
      <point x="357" y="517"/>
      <point x="297" y="549"/>
      <point x="238" y="549" type="curve" smooth="yes"/>
      <point x="111" y="549"/>
      <point x="39" y="456"/>
      <point x="39" y="269" type="curve" smooth="yes"/>
      <point x="39" y="79"/>
      <point x="119" y="-13"/>
    </contour>
    <contour>
      <point x="244" y="46" type="curve" smooth="yes"/>
      <point x="190" y="46"/>
      <point x="171" y="113"/>
      <point x="171" y="269" type="curve" smooth="yes"/>
      <point x="171" y="424"/>
      <point x="190" y="490"/>
      <point x="244" y="490" type="curve" smooth="yes"/>
      <point x="297" y="490"/>
      <point x="317" y="432"/>
      <point x="317" y="269" type="curve" smooth="yes"/>
      <point x="317" y="113"/>
      <point x="295" y="46"/>
    </contour>
  </outline>
</glyph>
<glyph name="in-georgian" format="2">
  <advance width="513"/>
  <unicode hex="10D8"/>
  <note>
uni10D8
</note>
  <anchor x="257" y="536" name="top"/>
  <outline>
    <contour>
      <point x="190" y="-8" type="curve" smooth="yes"/>
      <point x="217" y="-8"/>
      <point x="237" y="13"/>
      <point x="237" y="50" type="curve"/>
      <point x="187" y="64"/>
      <point x="171" y="139"/>
      <point x="171" y="269" type="curve" smooth="yes"/>
      <point x="171" y="417"/>
      <point x="192" y="490"/>
      <point x="256" y="490" type="curve" smooth="yes"/>
      <point x="321" y="490"/>
      <point x="343" y="417"/>
      <point x="343" y="269" type="curve" smooth="yes"/>
      <point x="343" y="144"/>
      <point x="326" y="68"/>
      <point x="280" y="50" type="curve"/>
      <point x="280" y="15"/>
      <point x="302" y="-8"/>
      <point x="332" y="-8" type="curve" smooth="yes"/>
      <point x="408" y="-8"/>
      <point x="474" y="97"/>
      <point x="474" y="269" type="curve" smooth="yes"/>
      <point x="474" y="459"/>
      <point x="386" y="549"/>
      <point x="258" y="549" type="curve" smooth="yes"/>
      <point x="120" y="549"/>
      <point x="39" y="459"/>
      <point x="39" y="269" type="curve" smooth="yes"/>
      <point x="39" y="96"/>
      <point x="113" y="-8"/>
    </contour>
  </outline>
</glyph>
<glyph name="kan-georgian" format="2">
  <advance width="485"/>
  <unicode hex="10D9"/>
  <note>
uni10D9
</note>
  <outline>
    <contour>
      <point x="238" y="-253" type="curve" smooth="yes"/>
      <point x="367" y="-253"/>
      <point x="451" y="-174"/>
      <point x="451" y="-12" type="curve" smooth="yes"/>
      <point x="451" y="135"/>
      <point x="370" y="195"/>
      <point x="297" y="212" type="curve"/>
      <point x="297" y="214" type="line"/>
      <point x="370" y="236"/>
      <point x="427" y="284"/>
      <point x="427" y="370" type="curve" smooth="yes"/>
      <point x="427" y="480"/>
      <point x="343" y="542"/>
      <point x="223" y="542" type="curve"/>
      <point x="223" y="490" type="line"/>
      <point x="272" y="490"/>
      <point x="298" y="449"/>
      <point x="298" y="367" type="curve" smooth="yes"/>
      <point x="298" y="276"/>
      <point x="260" y="244"/>
      <point x="212" y="244" type="curve" smooth="yes"/>
      <point x="178" y="244" type="line"/>
      <point x="178" y="179" type="line"/>
      <point x="214" y="179" type="line" smooth="yes"/>
      <point x="286" y="179"/>
      <point x="319" y="120"/>
      <point x="319" y="-14" type="curve" smooth="yes"/>
      <point x="319" y="-140"/>
      <point x="295" y="-194"/>
      <point x="238" y="-194" type="curve" smooth="yes"/>
      <point x="177" y="-194"/>
      <point x="159" y="-140"/>
      <point x="159" y="-66" type="curve" smooth="yes"/>
      <point x="159" y="-11"/>
      <point x="170" y="25"/>
      <point x="182" y="49" type="curve"/>
      <point x="169" y="59"/>
      <point x="151" y="65"/>
      <point x="131" y="65" type="curve" smooth="yes"/>
      <point x="83" y="65"/>
      <point x="29" y="29"/>
      <point x="29" y="-68" type="curve" smooth="yes"/>
      <point x="29" y="-174"/>
      <point x="93" y="-253"/>
    </contour>
  </outline>
</glyph>
<glyph name="las-georgian" format="2">
  <advance width="949"/>
  <unicode hex="10DA"/>
  <note>
uni10DA
</note>
  <outline>
    <contour>
      <point x="731" y="549" type="curve" smooth="yes"/>
      <point x="676" y="549"/>
      <point x="620" y="520"/>
      <point x="598" y="448" type="curve"/>
      <point x="594" y="448" type="line"/>
      <point x="578" y="520"/>
      <point x="530" y="549"/>
      <point x="475" y="549" type="curve" smooth="yes"/>
      <point x="422" y="549"/>
      <point x="371" y="520"/>
      <point x="355" y="448" type="curve"/>
      <point x="351" y="448" type="line"/>
      <point x="329" y="520"/>
      <point x="274" y="549"/>
      <point x="224" y="549" type="curve" smooth="yes"/>
      <point x="107" y="549"/>
      <point x="39" y="458"/>
      <point x="39" y="280" type="curve" smooth="yes"/>
      <point x="39" y="89"/>
      <point x="148" y="-13"/>
      <point x="277" y="-68" type="curve"/>
      <point x="277" y="-72" type="line"/>
      <point x="229" y="-77"/>
      <point x="178" y="-98"/>
      <point x="147" y="-127" type="curve"/>
      <point x="173" y="-166" type="line"/>
      <point x="219" y="-135"/>
      <point x="274" y="-124"/>
      <point x="350" y="-124" type="curve" smooth="yes"/>
      <point x="460" y="-124"/>
      <point x="585" y="-171"/>
      <point x="585" y="-253" type="curve"/>
      <point x="634" y="-253"/>
      <point x="668" y="-238"/>
      <point x="668" y="-192" type="curve" smooth="yes"/>
      <point x="668" y="-123"/>
      <point x="565" y="-68"/>
      <point x="445" y="-37" type="curve" smooth="yes"/>
      <point x="302" y="0"/>
      <point x="171" y="64"/>
      <point x="171" y="280" type="curve" smooth="yes"/>
      <point x="171" y="432"/>
      <point x="189" y="490"/>
      <point x="235" y="490" type="curve" smooth="yes"/>
      <point x="274" y="490"/>
      <point x="290" y="441"/>
      <point x="290" y="330" type="curve" smooth="yes"/>
      <point x="290" y="181" type="line"/>
      <point x="417" y="181" type="line"/>
      <point x="417" y="342" type="line" smooth="yes"/>
      <point x="417" y="450"/>
      <point x="437" y="490"/>
      <point x="475" y="490" type="curve" smooth="yes"/>
      <point x="515" y="490"/>
      <point x="531" y="450"/>
      <point x="531" y="342" type="curve" smooth="yes"/>
      <point x="531" y="181" type="line"/>
      <point x="658" y="181" type="line"/>
      <point x="658" y="330" type="line" smooth="yes"/>
      <point x="658" y="441"/>
      <point x="678" y="490"/>
      <point x="716" y="490" type="curve" smooth="yes"/>
      <point x="759" y="490"/>
      <point x="778" y="432"/>
      <point x="778" y="275" type="curve" smooth="yes"/>
      <point x="778" y="158"/>
      <point x="757" y="72"/>
      <point x="714" y="54" type="curve"/>
      <point x="714" y="24"/>
      <point x="726" y="5"/>
      <point x="764" y="5" type="curve" smooth="yes"/>
      <point x="840" y="5"/>
      <point x="910" y="109"/>
      <point x="910" y="275" type="curve" smooth="yes"/>
      <point x="910" y="458"/>
      <point x="834" y="549"/>
    </contour>
  </outline>
</glyph>
<glyph name="man-georgian" format="2">
  <advance width="518"/>
  <unicode hex="10DB"/>
  <note>
uni10DB
</note>
  <outline>
    <contour>
      <point x="245" y="-10" type="curve" smooth="yes"/>
      <point x="382" y="-10"/>
      <point x="455" y="75"/>
      <point x="455" y="261" type="curve" smooth="yes"/>
      <point x="455" y="569" type="line" smooth="yes"/>
      <point x="455" y="706"/>
      <point x="371" y="773"/>
      <point x="252" y="773" type="curve" smooth="yes"/>
      <point x="124" y="773"/>
      <point x="63" y="716"/>
      <point x="63" y="655" type="curve" smooth="yes"/>
      <point x="63" y="624"/>
      <point x="83" y="588"/>
      <point x="135" y="588" type="curve" smooth="yes"/>
      <point x="153" y="588"/>
      <point x="172" y="591"/>
      <point x="191" y="597" type="curve"/>
      <point x="187" y="611"/>
      <point x="185" y="625"/>
      <point x="185" y="638" type="curve" smooth="yes"/>
      <point x="185" y="682"/>
      <point x="209" y="716"/>
      <point x="252" y="716" type="curve" smooth="yes"/>
      <point x="298" y="716"/>
      <point x="325" y="679"/>
      <point x="325" y="603" type="curve" smooth="yes"/>
      <point x="325" y="551" type="line" smooth="yes"/>
      <point x="325" y="517"/>
      <point x="325" y="478"/>
      <point x="326" y="447" type="curve"/>
      <point x="322" y="447" type="line"/>
      <point x="299" y="492"/>
      <point x="266" y="525"/>
      <point x="205" y="525" type="curve" smooth="yes"/>
      <point x="99" y="525"/>
      <point x="39" y="438"/>
      <point x="39" y="261" type="curve" smooth="yes"/>
      <point x="39" y="75"/>
      <point x="105" y="-10"/>
    </contour>
    <contour>
      <point x="245" y="49" type="curve" smooth="yes"/>
      <point x="192" y="49"/>
      <point x="171" y="119"/>
      <point x="171" y="261" type="curve" smooth="yes"/>
      <point x="171" y="385"/>
      <point x="192" y="460"/>
      <point x="244" y="460" type="curve" smooth="yes"/>
      <point x="306" y="460"/>
      <point x="325" y="385"/>
      <point x="325" y="262" type="curve" smooth="yes"/>
      <point x="325" y="126"/>
      <point x="304" y="49"/>
    </contour>
  </outline>
</glyph>
<glyph name="nar-georgian" format="2">
  <advance width="519"/>
  <unicode hex="10DC"/>
  <note>
uni10DC
</note>
  <outline>
    <contour>
      <point x="272" y="-10" type="curve" smooth="yes"/>
      <point x="413" y="-10"/>
      <point x="480" y="75"/>
      <point x="480" y="261" type="curve" smooth="yes"/>
      <point x="480" y="443"/>
      <point x="419" y="530"/>
      <point x="313" y="530" type="curve" smooth="yes"/>
      <point x="252" y="530"/>
      <point x="219" y="497"/>
      <point x="196" y="452" type="curve"/>
      <point x="192" y="452" type="line"/>
      <point x="193" y="483"/>
      <point x="193" y="523"/>
      <point x="193" y="555" type="curve" smooth="yes"/>
      <point x="193" y="607" type="line" smooth="yes"/>
      <point x="193" y="680"/>
      <point x="220" y="710"/>
      <point x="272" y="710" type="curve" smooth="yes"/>
      <point x="296" y="710"/>
      <point x="320" y="698"/>
      <point x="339" y="687" type="curve" smooth="yes"/>
      <point x="355" y="678"/>
      <point x="376" y="668"/>
      <point x="396" y="668" type="curve" smooth="yes"/>
      <point x="426" y="668"/>
      <point x="451" y="688"/>
      <point x="451" y="722" type="curve" smooth="yes"/>
      <point x="451" y="751"/>
      <point x="437" y="765"/>
      <point x="420" y="773" type="curve"/>
      <point x="407" y="757"/>
      <point x="389" y="749"/>
      <point x="365" y="749" type="curve" smooth="yes"/>
      <point x="350" y="749"/>
      <point x="328" y="753"/>
      <point x="312" y="758" type="curve" smooth="yes"/>
      <point x="293" y="764"/>
      <point x="267" y="768"/>
      <point x="243" y="768" type="curve" smooth="yes"/>
      <point x="148" y="768"/>
      <point x="63" y="706"/>
      <point x="63" y="577" type="curve" smooth="yes"/>
      <point x="63" y="261" type="line" smooth="yes"/>
      <point x="63" y="75"/>
      <point x="136" y="-10"/>
    </contour>
    <contour>
      <point x="272" y="49" type="curve" smooth="yes"/>
      <point x="214" y="49"/>
      <point x="193" y="127"/>
      <point x="193" y="263" type="curve" smooth="yes"/>
      <point x="193" y="389"/>
      <point x="212" y="465"/>
      <point x="274" y="465" type="curve" smooth="yes"/>
      <point x="326" y="465"/>
      <point x="346" y="389"/>
      <point x="346" y="262" type="curve" smooth="yes"/>
      <point x="346" y="119"/>
      <point x="326" y="49"/>
    </contour>
  </outline>
</glyph>
<glyph name="on-georgian" format="2">
  <advance width="725"/>
  <unicode hex="10DD"/>
  <note>
uni10DD
</note>
  <anchor x="363" y="536" name="top"/>
  <outline>
    <contour>
      <point x="190" y="-8" type="curve" smooth="yes"/>
      <point x="222" y="-8"/>
      <point x="240" y="9"/>
      <point x="240" y="41" type="curve"/>
      <point x="193" y="56"/>
      <point x="172" y="141"/>
      <point x="172" y="269" type="curve" smooth="yes"/>
      <point x="172" y="432"/>
      <point x="192" y="490"/>
      <point x="237" y="490" type="curve" smooth="yes"/>
      <point x="284" y="490"/>
      <point x="299" y="441"/>
      <point x="299" y="330" type="curve" smooth="yes"/>
      <point x="299" y="181" type="line"/>
      <point x="426" y="181" type="line"/>
      <point x="426" y="330" type="line" smooth="yes"/>
      <point x="426" y="441"/>
      <point x="444" y="490"/>
      <point x="489" y="490" type="curve" smooth="yes"/>
      <point x="533" y="490"/>
      <point x="554" y="432"/>
      <point x="554" y="269" type="curve" smooth="yes"/>
      <point x="554" y="146"/>
      <point x="532" y="59"/>
      <point x="489" y="41" type="curve"/>
      <point x="489" y="12"/>
      <point x="501" y="-8"/>
      <point x="540" y="-8" type="curve" smooth="yes"/>
      <point x="616" y="-8"/>
      <point x="686" y="97"/>
      <point x="686" y="269" type="curve" smooth="yes"/>
      <point x="686" y="458"/>
      <point x="607" y="549"/>
      <point x="498" y="549" type="curve" smooth="yes"/>
      <point x="442" y="549"/>
      <point x="387" y="518"/>
      <point x="365" y="448" type="curve"/>
      <point x="361" y="448" type="line"/>
      <point x="339" y="518"/>
      <point x="285" y="549"/>
      <point x="229" y="549" type="curve" smooth="yes"/>
      <point x="112" y="549"/>
      <point x="39" y="458"/>
      <point x="39" y="269" type="curve" smooth="yes"/>
      <point x="39" y="95"/>
      <point x="116" y="-8"/>
    </contour>
  </outline>
</glyph>
<glyph name="par-georgian" format="2">
  <advance width="488"/>
  <unicode hex="10DE"/>
  <note>
uni10DE
</note>
  <outline>
    <contour>
      <point x="237" y="-13" type="curve" smooth="yes"/>
      <point x="379" y="-13"/>
      <point x="449" y="84"/>
      <point x="449" y="194" type="curve" smooth="yes"/>
      <point x="449" y="316"/>
      <point x="390" y="380"/>
      <point x="317" y="396" type="curve"/>
      <point x="317" y="398" type="line"/>
      <point x="390" y="421"/>
      <point x="426" y="457"/>
      <point x="426" y="510" type="curve" smooth="yes"/>
      <point x="426" y="578"/>
      <point x="379" y="610"/>
      <point x="338" y="640" type="curve" smooth="yes"/>
      <point x="308" y="662"/>
      <point x="281" y="684"/>
      <point x="281" y="718" type="curve" smooth="yes"/>
      <point x="281" y="731"/>
      <point x="283" y="742"/>
      <point x="289" y="756" type="curve"/>
      <point x="277" y="767"/>
      <point x="262" y="773"/>
      <point x="236" y="773" type="curve" smooth="yes"/>
      <point x="191" y="773"/>
      <point x="167" y="743"/>
      <point x="167" y="704" type="curve" smooth="yes"/>
      <point x="167" y="655"/>
      <point x="202" y="628"/>
      <point x="236" y="600" type="curve" smooth="yes"/>
      <point x="267" y="575"/>
      <point x="295" y="547"/>
      <point x="295" y="501" type="curve" smooth="yes"/>
      <point x="295" y="460"/>
      <point x="269" y="427"/>
      <point x="216" y="427" type="curve" smooth="yes"/>
      <point x="184" y="427" type="line"/>
      <point x="184" y="362" type="line"/>
      <point x="216" y="362" type="line" smooth="yes"/>
      <point x="281" y="362"/>
      <point x="317" y="318"/>
      <point x="317" y="195" type="curve" smooth="yes"/>
      <point x="317" y="97"/>
      <point x="290" y="46"/>
      <point x="237" y="46" type="curve" smooth="yes"/>
      <point x="188" y="46"/>
      <point x="164" y="91"/>
      <point x="164" y="165" type="curve" smooth="yes"/>
      <point x="164" y="199"/>
      <point x="167" y="227"/>
      <point x="178" y="253" type="curve"/>
      <point x="162" y="263"/>
      <point x="142" y="269"/>
      <point x="127" y="269" type="curve" smooth="yes"/>
      <point x="72" y="269"/>
      <point x="34" y="225"/>
      <point x="34" y="156" type="curve" smooth="yes"/>
      <point x="34" y="71"/>
      <point x="101" y="-13"/>
    </contour>
  </outline>
</glyph>
<glyph name="zhar-georgian" format="2">
  <advance width="560"/>
  <unicode hex="10DF"/>
  <note>
uni10DF
</note>
  <outline>
    <contour>
      <point x="286" y="-253" type="curve" smooth="yes"/>
      <point x="415" y="-253"/>
      <point x="497" y="-174"/>
      <point x="497" y="-12" type="curve" smooth="yes"/>
      <point x="497" y="536" type="line"/>
      <point x="368" y="536" type="line"/>
      <point x="312" y="504"/>
      <point x="242" y="486"/>
      <point x="165" y="473" type="curve"/>
      <point x="165" y="408" type="line"/>
      <point x="198" y="390"/>
      <point x="209" y="360"/>
      <point x="209" y="304" type="curve" smooth="yes"/>
      <point x="209" y="252"/>
      <point x="197" y="229"/>
      <point x="172" y="229" type="curve" smooth="yes"/>
      <point x="145" y="229"/>
      <point x="134" y="255"/>
      <point x="134" y="290" type="curve" smooth="yes"/>
      <point x="134" y="305"/>
      <point x="136" y="321"/>
      <point x="140" y="334" type="curve"/>
      <point x="126" y="341"/>
      <point x="111" y="343"/>
      <point x="100" y="343" type="curve" smooth="yes"/>
      <point x="56" y="343"/>
      <point x="34" y="312"/>
      <point x="34" y="279" type="curve" smooth="yes"/>
      <point x="34" y="222"/>
      <point x="84" y="176"/>
      <point x="172" y="176" type="curve" smooth="yes"/>
      <point x="254" y="176"/>
      <point x="315" y="224"/>
      <point x="315" y="304" type="curve" smooth="yes"/>
      <point x="315" y="348"/>
      <point x="294" y="401"/>
      <point x="245" y="428" type="curve"/>
      <point x="245" y="430" type="line"/>
      <point x="293" y="437"/>
      <point x="336" y="450"/>
      <point x="367" y="470" type="curve"/>
      <point x="372" y="470" type="line"/>
      <point x="369" y="450"/>
      <point x="367" y="429"/>
      <point x="367" y="402" type="curve" smooth="yes"/>
      <point x="367" y="-14" type="line" smooth="yes"/>
      <point x="367" y="-140"/>
      <point x="343" y="-194"/>
      <point x="286" y="-194" type="curve" smooth="yes"/>
      <point x="224" y="-194"/>
      <point x="206" y="-140"/>
      <point x="206" y="-66" type="curve" smooth="yes"/>
      <point x="206" y="-11"/>
      <point x="217" y="25"/>
      <point x="228" y="49" type="curve"/>
      <point x="217" y="59"/>
      <point x="199" y="65"/>
      <point x="179" y="65" type="curve" smooth="yes"/>
      <point x="131" y="65"/>
      <point x="79" y="29"/>
      <point x="79" y="-68" type="curve" smooth="yes"/>
      <point x="79" y="-174"/>
      <point x="141" y="-253"/>
    </contour>
  </outline>
</glyph>
<glyph name="rae-georgian" format="2">
  <advance width="723"/>
  <unicode hex="10E0"/>
  <note>
uni10E0
</note>
  <outline>
    <contour>
      <point x="187" y="-8" type="curve" smooth="yes"/>
      <point x="220" y="-8"/>
      <point x="238" y="9"/>
      <point x="238" y="41" type="curve"/>
      <point x="191" y="56"/>
      <point x="169" y="141"/>
      <point x="169" y="269" type="curve" smooth="yes"/>
      <point x="169" y="420"/>
      <point x="190" y="478"/>
      <point x="235" y="478" type="curve" smooth="yes"/>
      <point x="282" y="478"/>
      <point x="296" y="430"/>
      <point x="296" y="324" type="curve" smooth="yes"/>
      <point x="296" y="181" type="line"/>
      <point x="424" y="181" type="line"/>
      <point x="424" y="324" type="line" smooth="yes"/>
      <point x="424" y="430"/>
      <point x="441" y="478"/>
      <point x="487" y="478" type="curve" smooth="yes"/>
      <point x="531" y="478"/>
      <point x="552" y="421"/>
      <point x="552" y="269" type="curve" smooth="yes"/>
      <point x="552" y="146"/>
      <point x="530" y="60"/>
      <point x="487" y="42" type="curve"/>
      <point x="487" y="11"/>
      <point x="499" y="-8"/>
      <point x="538" y="-8" type="curve" smooth="yes"/>
      <point x="614" y="-8"/>
      <point x="684" y="97"/>
      <point x="684" y="269" type="curve" smooth="yes"/>
      <point x="684" y="446"/>
      <point x="605" y="537"/>
      <point x="496" y="537" type="curve" smooth="yes"/>
      <point x="440" y="537"/>
      <point x="385" y="505"/>
      <point x="362" y="435" type="curve"/>
      <point x="358" y="435" type="line"/>
      <point x="336" y="505"/>
      <point x="283" y="537"/>
      <point x="228" y="537" type="curve" smooth="yes"/>
      <point x="183" y="537"/>
      <point x="135" y="515"/>
      <point x="105" y="459" type="curve"/>
      <point x="102" y="459" type="line"/>
      <point x="122" y="556"/>
      <point x="180" y="592"/>
      <point x="301" y="612" type="curve" smooth="yes"/>
      <point x="435" y="634"/>
      <point x="487" y="664"/>
      <point x="487" y="773" type="curve"/>
      <point x="444" y="773" type="line"/>
      <point x="437" y="746"/>
      <point x="412" y="740"/>
      <point x="319" y="725" type="curve" smooth="yes"/>
      <point x="101" y="690"/>
      <point x="40" y="548"/>
      <point x="39" y="332" type="curve" smooth="yes"/>
      <point x="39" y="281" type="line" smooth="yes"/>
      <point x="39" y="94"/>
      <point x="114" y="-8"/>
    </contour>
  </outline>
</glyph>
<glyph name="san-georgian" format="2">
  <advance width="539"/>
  <unicode hex="10E1"/>
  <note>
uni10E1
</note>
  <outline>
    <contour>
      <point x="286" y="-13" type="curve" smooth="yes"/>
      <point x="429" y="-13"/>
      <point x="500" y="77"/>
      <point x="500" y="187" type="curve" smooth="yes"/>
      <point x="500" y="268"/>
      <point x="470" y="318"/>
      <point x="446" y="360" type="curve" smooth="yes"/>
      <point x="426" y="396"/>
      <point x="411" y="430"/>
      <point x="411" y="479" type="curve" smooth="yes"/>
      <point x="411" y="497"/>
      <point x="416" y="518"/>
      <point x="425" y="532" type="curve"/>
      <point x="412" y="543"/>
      <point x="398" y="549"/>
      <point x="371" y="549" type="curve" smooth="yes"/>
      <point x="327" y="549"/>
      <point x="297" y="516"/>
      <point x="297" y="467" type="curve" smooth="yes"/>
      <point x="297" y="406"/>
      <point x="311" y="370"/>
      <point x="329" y="336" type="curve" smooth="yes"/>
      <point x="349" y="297"/>
      <point x="368" y="260"/>
      <point x="368" y="188" type="curve" smooth="yes"/>
      <point x="368" y="100"/>
      <point x="341" y="46"/>
      <point x="286" y="46" type="curve" smooth="yes"/>
      <point x="234" y="46"/>
      <point x="207" y="93"/>
      <point x="207" y="213" type="curve" smooth="yes"/>
      <point x="207" y="760" type="line"/>
      <point x="17" y="760" type="line"/>
      <point x="17" y="711" type="line"/>
      <point x="23" y="711" type="line" smooth="yes"/>
      <point x="58" y="711"/>
      <point x="77" y="700"/>
      <point x="77" y="645" type="curve" smooth="yes"/>
      <point x="77" y="217" type="line" smooth="yes"/>
      <point x="77" y="75"/>
      <point x="136" y="-13"/>
    </contour>
  </outline>
</glyph>
<glyph name="tar-georgian" format="2">
  <advance width="713"/>
  <unicode hex="10E2"/>
  <note>
uni10E2
</note>
  <outline>
    <contour>
      <point x="357" y="-253" type="curve" smooth="yes"/>
      <point x="558" y="-253"/>
      <point x="674" y="-91"/>
      <point x="674" y="150" type="curve" smooth="yes"/>
      <point x="674" y="367"/>
      <point x="586" y="505"/>
      <point x="421" y="539" type="curve"/>
      <point x="421" y="543" type="line"/>
      <point x="457" y="565"/>
      <point x="488" y="603"/>
      <point x="488" y="655" type="curve" smooth="yes"/>
      <point x="488" y="710"/>
      <point x="450" y="773"/>
      <point x="356" y="773" type="curve" smooth="yes"/>
      <point x="263" y="773"/>
      <point x="226" y="710"/>
      <point x="226" y="655" type="curve" smooth="yes"/>
      <point x="226" y="603"/>
      <point x="255" y="565"/>
      <point x="291" y="543" type="curve"/>
      <point x="291" y="540" type="line"/>
      <point x="120" y="505"/>
      <point x="39" y="368"/>
      <point x="39" y="152" type="curve" smooth="yes"/>
      <point x="39" y="-90"/>
      <point x="146" y="-253"/>
    </contour>
    <contour>
      <point x="357" y="-194" type="curve" smooth="yes"/>
      <point x="233" y="-194"/>
      <point x="171" y="-64"/>
      <point x="171" y="150" type="curve" smooth="yes"/>
      <point x="171" y="324"/>
      <point x="191" y="431"/>
      <point x="271" y="477" type="curve"/>
      <point x="271" y="474" type="line"/>
      <point x="245" y="447"/>
      <point x="232" y="413"/>
      <point x="232" y="372" type="curve" smooth="yes"/>
      <point x="232" y="306"/>
      <point x="274" y="247"/>
      <point x="356" y="247" type="curve" smooth="yes"/>
      <point x="440" y="247"/>
      <point x="482" y="306"/>
      <point x="482" y="372" type="curve" smooth="yes"/>
      <point x="482" y="414"/>
      <point x="468" y="447"/>
      <point x="440" y="474" type="curve"/>
      <point x="440" y="477" type="line"/>
      <point x="523" y="431"/>
      <point x="542" y="324"/>
      <point x="542" y="150" type="curve" smooth="yes"/>
      <point x="542" y="-64"/>
      <point x="482" y="-194"/>
    </contour>
    <contour>
      <point x="356" y="295" type="curve" smooth="yes"/>
      <point x="326" y="295"/>
      <point x="313" y="325"/>
      <point x="313" y="377" type="curve" smooth="yes"/>
      <point x="313" y="428"/>
      <point x="328" y="470"/>
      <point x="356" y="495" type="curve"/>
      <point x="385" y="470"/>
      <point x="400" y="428"/>
      <point x="400" y="377" type="curve" smooth="yes"/>
      <point x="400" y="325"/>
      <point x="387" y="295"/>
    </contour>
    <contour>
      <point x="356" y="548" type="curve"/>
      <point x="325" y="573"/>
      <point x="313" y="612"/>
      <point x="313" y="654" type="curve" smooth="yes"/>
      <point x="313" y="701"/>
      <point x="326" y="729"/>
      <point x="356" y="729" type="curve" smooth="yes"/>
      <point x="387" y="729"/>
      <point x="400" y="701"/>
      <point x="400" y="654" type="curve" smooth="yes"/>
      <point x="400" y="612"/>
      <point x="388" y="573"/>
    </contour>
  </outline>
</glyph>
<glyph name="un-georgian" format="2">
  <advance width="591"/>
  <unicode hex="10E3"/>
  <note>
uni10E3
</note>
  <anchor x="296" y="536" name="top"/>
  <outline>
    <contour>
      <point x="296" y="-253" type="curve" smooth="yes"/>
      <point x="458" y="-253"/>
      <point x="533" y="-146"/>
      <point x="533" y="-16" type="curve" smooth="yes"/>
      <point x="533" y="377" type="line" smooth="yes"/>
      <point x="533" y="486"/>
      <point x="481" y="549"/>
      <point x="382" y="549" type="curve" smooth="yes"/>
      <point x="321" y="549"/>
      <point x="276" y="524"/>
      <point x="260" y="477" type="curve"/>
      <point x="256" y="477" type="line"/>
      <point x="241" y="524"/>
      <point x="209" y="544"/>
      <point x="168" y="544" type="curve" smooth="yes"/>
      <point x="152" y="544"/>
      <point x="139" y="541"/>
      <point x="126" y="536" type="curve" smooth="yes"/>
      <point x="111" y="530"/>
      <point x="100" y="528"/>
      <point x="86" y="528" type="curve" smooth="yes"/>
      <point x="69" y="528"/>
      <point x="51" y="534"/>
      <point x="38" y="551" type="curve"/>
      <point x="20" y="543"/>
      <point x="6" y="528"/>
      <point x="6" y="497" type="curve" smooth="yes"/>
      <point x="6" y="462"/>
      <point x="31" y="439"/>
      <point x="64" y="439" type="curve" smooth="yes"/>
      <point x="87" y="439"/>
      <point x="102" y="447"/>
      <point x="114" y="459" type="curve" smooth="yes"/>
      <point x="130" y="476"/>
      <point x="142" y="486"/>
      <point x="160" y="486" type="curve" smooth="yes"/>
      <point x="185" y="486"/>
      <point x="192" y="468"/>
      <point x="192" y="430" type="curve" smooth="yes"/>
      <point x="192" y="244" type="line"/>
      <point x="309" y="244" type="line"/>
      <point x="309" y="414" type="line" smooth="yes"/>
      <point x="309" y="466"/>
      <point x="326" y="490"/>
      <point x="356" y="490" type="curve" smooth="yes"/>
      <point x="386" y="490"/>
      <point x="403" y="466"/>
      <point x="403" y="414" type="curve" smooth="yes"/>
      <point x="403" y="-18" type="line" smooth="yes"/>
      <point x="403" y="-133"/>
      <point x="368" y="-193"/>
      <point x="296" y="-193" type="curve" smooth="yes"/>
      <point x="230" y="-193"/>
      <point x="194" y="-138"/>
      <point x="194" y="-47" type="curve" smooth="yes"/>
      <point x="194" y="15"/>
      <point x="206" y="52"/>
      <point x="218" y="77" type="curve"/>
      <point x="207" y="87"/>
      <point x="187" y="93"/>
      <point x="168" y="93" type="curve" smooth="yes"/>
      <point x="120" y="93"/>
      <point x="64" y="51"/>
      <point x="64" y="-50" type="curve" smooth="yes"/>
      <point x="64" y="-169"/>
      <point x="145" y="-253"/>
    </contour>
  </outline>
</glyph>
<glyph name="phar-georgian" format="2">
  <advance width="744"/>
  <unicode hex="10E4"/>
  <note>
uni10E4
</note>
  <outline>
    <contour>
      <point x="452" y="-253" type="curve" smooth="yes"/>
      <point x="613" y="-253"/>
      <point x="699" y="-167"/>
      <point x="699" y="-26" type="curve" smooth="yes"/>
      <point x="699" y="77"/>
      <point x="647" y="140"/>
      <point x="573" y="157" type="curve"/>
      <point x="573" y="159" type="line"/>
      <point x="648" y="184"/>
      <point x="705" y="233"/>
      <point x="705" y="342" type="curve" smooth="yes"/>
      <point x="705" y="464"/>
      <point x="626" y="549"/>
      <point x="523" y="549" type="curve" smooth="yes"/>
      <point x="462" y="549"/>
      <point x="406" y="519"/>
      <point x="384" y="449" type="curve"/>
      <point x="380" y="449" type="line"/>
      <point x="358" y="518"/>
      <point x="297" y="549"/>
      <point x="239" y="549" type="curve" smooth="yes"/>
      <point x="111" y="549"/>
      <point x="39" y="456"/>
      <point x="39" y="306" type="curve" smooth="yes"/>
      <point x="39" y="156"/>
      <point x="119" y="64"/>
      <point x="243" y="64" type="curve" smooth="yes"/>
      <point x="372" y="64"/>
      <point x="445" y="156"/>
      <point x="445" y="306" type="curve" smooth="yes"/>
      <point x="445" y="345" type="line" smooth="yes"/>
      <point x="445" y="448"/>
      <point x="462" y="490"/>
      <point x="509" y="490" type="curve" smooth="yes"/>
      <point x="554" y="490"/>
      <point x="574" y="426"/>
      <point x="574" y="330" type="curve" smooth="yes"/>
      <point x="574" y="222"/>
      <point x="535" y="190"/>
      <point x="496" y="190" type="curve" smooth="yes"/>
      <point x="477" y="190" type="line"/>
      <point x="477" y="124" type="line"/>
      <point x="494" y="124" type="line" smooth="yes"/>
      <point x="551" y="124"/>
      <point x="567" y="66"/>
      <point x="567" y="-28" type="curve" smooth="yes"/>
      <point x="567" y="-137"/>
      <point x="530" y="-194"/>
      <point x="452" y="-194" type="curve" smooth="yes"/>
      <point x="379" y="-194"/>
      <point x="342" y="-149"/>
      <point x="342" y="-79" type="curve" smooth="yes"/>
      <point x="342" y="-64"/>
      <point x="345" y="-50"/>
      <point x="348" y="-36" type="curve"/>
      <point x="330" y="-26"/>
      <point x="311" y="-21"/>
      <point x="294" y="-21" type="curve" smooth="yes"/>
      <point x="250" y="-21"/>
      <point x="213" y="-51"/>
      <point x="213" y="-98" type="curve" smooth="yes"/>
      <point x="213" y="-184"/>
      <point x="302" y="-253"/>
    </contour>
    <contour>
      <point x="245" y="124" type="curve" smooth="yes"/>
      <point x="190" y="124"/>
      <point x="171" y="191"/>
      <point x="171" y="306" type="curve" smooth="yes"/>
      <point x="171" y="425"/>
      <point x="189" y="490"/>
      <point x="244" y="490" type="curve" smooth="yes"/>
      <point x="297" y="490"/>
      <point x="317" y="433"/>
      <point x="317" y="306" type="curve" smooth="yes"/>
      <point x="317" y="191"/>
      <point x="295" y="124"/>
    </contour>
  </outline>
</glyph>
<glyph name="khar-georgian" format="2">
  <advance width="511"/>
  <unicode hex="10E5"/>
  <note>
uni10E5
</note>
  <outline>
    <contour>
      <point x="237" y="-253" type="curve" smooth="yes"/>
      <point x="370" y="-253"/>
      <point x="443" y="-168"/>
      <point x="443" y="-5" type="curve" smooth="yes"/>
      <point x="443" y="760" type="line"/>
      <point x="250" y="760" type="line"/>
      <point x="250" y="710" type="line"/>
      <point x="263" y="710" type="line" smooth="yes"/>
      <point x="292" y="710"/>
      <point x="313" y="702"/>
      <point x="313" y="656" type="curve" smooth="yes"/>
      <point x="313" y="580" type="line" smooth="yes"/>
      <point x="313" y="541"/>
      <point x="313" y="504"/>
      <point x="314" y="473" type="curve"/>
      <point x="310" y="473" type="line"/>
      <point x="287" y="517"/>
      <point x="254" y="549"/>
      <point x="193" y="549" type="curve" smooth="yes"/>
      <point x="113" y="549"/>
      <point x="51" y="480"/>
      <point x="51" y="387" type="curve" smooth="yes"/>
      <point x="51" y="311"/>
      <point x="88" y="267"/>
      <point x="138" y="267" type="curve" smooth="yes"/>
      <point x="155" y="267"/>
      <point x="174" y="270"/>
      <point x="192" y="277" type="curve"/>
      <point x="181" y="305"/>
      <point x="177" y="337"/>
      <point x="177" y="371" type="curve" smooth="yes"/>
      <point x="177" y="435"/>
      <point x="197" y="482"/>
      <point x="237" y="482" type="curve" smooth="yes"/>
      <point x="294" y="482"/>
      <point x="313" y="405"/>
      <point x="313" y="297" type="curve" smooth="yes"/>
      <point x="313" y="-49" type="line" smooth="yes"/>
      <point x="313" y="-139"/>
      <point x="291" y="-194"/>
      <point x="237" y="-194" type="curve" smooth="yes"/>
      <point x="185" y="-194"/>
      <point x="164" y="-139"/>
      <point x="164" y="-54" type="curve" smooth="yes"/>
      <point x="164" y="14"/>
      <point x="177" y="52"/>
      <point x="189" y="76" type="curve"/>
      <point x="177" y="87"/>
      <point x="158" y="93"/>
      <point x="137" y="93" type="curve" smooth="yes"/>
      <point x="90" y="93"/>
      <point x="34" y="57"/>
      <point x="34" y="-52" type="curve" smooth="yes"/>
      <point x="34" y="-175"/>
      <point x="100" y="-253"/>
    </contour>
  </outline>
</glyph>
<glyph name="ghan-georgian" format="2">
  <advance width="725"/>
  <unicode hex="10E6"/>
  <note>
uni10E6
</note>
  <outline>
    <contour>
      <point x="445" y="-253" type="curve"/>
      <point x="495" y="-253"/>
      <point x="528" y="-238"/>
      <point x="528" y="-192" type="curve" smooth="yes"/>
      <point x="528" y="-124"/>
      <point x="474" y="-84"/>
      <point x="380" y="-50" type="curve" smooth="yes"/>
      <point x="248" y="-2"/>
      <point x="171" y="71"/>
      <point x="171" y="278" type="curve" smooth="yes"/>
      <point x="171" y="434"/>
      <point x="192" y="490"/>
      <point x="237" y="490" type="curve" smooth="yes"/>
      <point x="284" y="490"/>
      <point x="299" y="442"/>
      <point x="299" y="331" type="curve" smooth="yes"/>
      <point x="299" y="181" type="line"/>
      <point x="426" y="181" type="line"/>
      <point x="426" y="331" type="line" smooth="yes"/>
      <point x="426" y="442"/>
      <point x="443" y="490"/>
      <point x="490" y="490" type="curve" smooth="yes"/>
      <point x="534" y="490"/>
      <point x="554" y="434"/>
      <point x="554" y="274" type="curve" smooth="yes"/>
      <point x="554" y="159"/>
      <point x="533" y="72"/>
      <point x="489" y="54" type="curve"/>
      <point x="489" y="24"/>
      <point x="501" y="5"/>
      <point x="540" y="5" type="curve" smooth="yes"/>
      <point x="616" y="5"/>
      <point x="686" y="109"/>
      <point x="686" y="274" type="curve" smooth="yes"/>
      <point x="686" y="458"/>
      <point x="608" y="549"/>
      <point x="499" y="549" type="curve" smooth="yes"/>
      <point x="442" y="549"/>
      <point x="387" y="518"/>
      <point x="365" y="448" type="curve"/>
      <point x="361" y="448" type="line"/>
      <point x="339" y="518"/>
      <point x="285" y="549"/>
      <point x="229" y="549" type="curve" smooth="yes"/>
      <point x="112" y="549"/>
      <point x="39" y="458"/>
      <point x="39" y="278" type="curve" smooth="yes"/>
      <point x="39" y="90"/>
      <point x="111" y="-6"/>
      <point x="235" y="-73" type="curve"/>
      <point x="235" y="-77" type="line"/>
      <point x="198" y="-82"/>
      <point x="159" y="-97"/>
      <point x="129" y="-116" type="curve"/>
      <point x="155" y="-156" type="line"/>
      <point x="195" y="-135"/>
      <point x="234" y="-124"/>
      <point x="292" y="-124" type="curve" smooth="yes"/>
      <point x="380" y="-124"/>
      <point x="445" y="-174"/>
    </contour>
  </outline>
</glyph>
<glyph name="qar-georgian" format="2">
  <advance width="511"/>
  <unicode hex="10E7"/>
  <note>
uni10E7
</note>
  <outline>
    <contour>
      <point x="243" y="-253" type="curve" smooth="yes"/>
      <point x="369" y="-253"/>
      <point x="448" y="-180"/>
      <point x="448" y="-17" type="curve" smooth="yes"/>
      <point x="448" y="536" type="line"/>
      <point x="318" y="536" type="line"/>
      <point x="318" y="359" type="line" smooth="yes"/>
      <point x="318" y="284"/>
      <point x="290" y="234"/>
      <point x="244" y="234" type="curve" smooth="yes"/>
      <point x="203" y="234"/>
      <point x="173" y="278"/>
      <point x="173" y="374" type="curve" smooth="yes"/>
      <point x="173" y="449"/>
      <point x="189" y="499"/>
      <point x="208" y="531" type="curve"/>
      <point x="191" y="539"/>
      <point x="180" y="543"/>
      <point x="160" y="543" type="curve" smooth="yes"/>
      <point x="106" y="543"/>
      <point x="48" y="475"/>
      <point x="48" y="365" type="curve" smooth="yes"/>
      <point x="48" y="238"/>
      <point x="119" y="167"/>
      <point x="201" y="167" type="curve" smooth="yes"/>
      <point x="262" y="167"/>
      <point x="295" y="201"/>
      <point x="318" y="245" type="curve"/>
      <point x="324" y="245" type="line"/>
      <point x="320" y="213"/>
      <point x="318" y="181"/>
      <point x="318" y="148" type="curve" smooth="yes"/>
      <point x="318" y="-20" type="line" smooth="yes"/>
      <point x="318" y="-146"/>
      <point x="295" y="-194"/>
      <point x="243" y="-194" type="curve" smooth="yes"/>
      <point x="188" y="-194"/>
      <point x="168" y="-140"/>
      <point x="168" y="-66" type="curve" smooth="yes"/>
      <point x="168" y="-11"/>
      <point x="179" y="25"/>
      <point x="191" y="49" type="curve"/>
      <point x="179" y="60"/>
      <point x="160" y="66"/>
      <point x="140" y="66" type="curve" smooth="yes"/>
      <point x="93" y="66"/>
      <point x="39" y="29"/>
      <point x="39" y="-68" type="curve" smooth="yes"/>
      <point x="39" y="-174"/>
      <point x="105" y="-253"/>
    </contour>
  </outline>
</glyph>
<glyph name="shin-georgian" format="2">
  <advance width="526"/>
  <unicode hex="10E8"/>
  <note>
uni10E8
</note>
  <outline>
    <contour>
      <point x="253" y="-10" type="curve" smooth="yes"/>
      <point x="389" y="-10"/>
      <point x="463" y="75"/>
      <point x="463" y="251" type="curve" smooth="yes"/>
      <point x="463" y="598" type="line" smooth="yes"/>
      <point x="463" y="713"/>
      <point x="425" y="773"/>
      <point x="321" y="773" type="curve" smooth="yes"/>
      <point x="276" y="773"/>
      <point x="232" y="752"/>
      <point x="216" y="704" type="curve"/>
      <point x="212" y="704" type="line"/>
      <point x="194" y="752"/>
      <point x="156" y="773"/>
      <point x="106" y="773" type="curve" smooth="yes"/>
      <point x="31" y="773"/>
      <point x="-22" y="730"/>
      <point x="-22" y="658" type="curve" smooth="yes"/>
      <point x="-22" y="599"/>
      <point x="14" y="565"/>
      <point x="50" y="565" type="curve" smooth="yes"/>
      <point x="69" y="565"/>
      <point x="90" y="570"/>
      <point x="106" y="575" type="curve"/>
      <point x="102" y="587"/>
      <point x="96" y="609"/>
      <point x="96" y="646" type="curve" smooth="yes"/>
      <point x="96" y="690"/>
      <point x="107" y="716"/>
      <point x="129" y="716" type="curve" smooth="yes"/>
      <point x="150" y="716"/>
      <point x="158" y="691"/>
      <point x="158" y="639" type="curve" smooth="yes"/>
      <point x="158" y="586" type="line"/>
      <point x="268" y="586" type="line"/>
      <point x="268" y="639" type="line" smooth="yes"/>
      <point x="268" y="691"/>
      <point x="279" y="714"/>
      <point x="300" y="714" type="curve" smooth="yes"/>
      <point x="326" y="714"/>
      <point x="333" y="688"/>
      <point x="333" y="631" type="curve" smooth="yes"/>
      <point x="333" y="523" type="line" smooth="yes"/>
      <point x="333" y="491"/>
      <point x="333" y="457"/>
      <point x="334" y="427" type="curve"/>
      <point x="330" y="427" type="line"/>
      <point x="307" y="473"/>
      <point x="274" y="506"/>
      <point x="213" y="506" type="curve" smooth="yes"/>
      <point x="107" y="506"/>
      <point x="47" y="418"/>
      <point x="47" y="251" type="curve" smooth="yes"/>
      <point x="47" y="75"/>
      <point x="113" y="-10"/>
    </contour>
    <contour>
      <point x="253" y="49" type="curve" smooth="yes"/>
      <point x="199" y="49"/>
      <point x="179" y="119"/>
      <point x="179" y="251" type="curve" smooth="yes"/>
      <point x="179" y="364"/>
      <point x="199" y="439"/>
      <point x="252" y="439" type="curve" smooth="yes"/>
      <point x="313" y="439"/>
      <point x="333" y="364"/>
      <point x="333" y="252" type="curve" smooth="yes"/>
      <point x="333" y="127"/>
      <point x="312" y="49"/>
    </contour>
  </outline>
</glyph>
<glyph name="chin-georgian" format="2">
  <advance width="520"/>
  <unicode hex="10E9"/>
  <note>
uni10E9
</note>
  <outline>
    <contour>
      <point x="345" y="-8" type="curve" smooth="yes"/>
      <point x="423" y="-8"/>
      <point x="481" y="102"/>
      <point x="481" y="270" type="curve" smooth="yes"/>
      <point x="481" y="422"/>
      <point x="421" y="501"/>
      <point x="326" y="501" type="curve" smooth="yes"/>
      <point x="259" y="501"/>
      <point x="217" y="456"/>
      <point x="197" y="414" type="curve"/>
      <point x="193" y="414" type="line"/>
      <point x="195" y="434"/>
      <point x="198" y="461"/>
      <point x="198" y="489" type="curve" smooth="yes"/>
      <point x="198" y="513" type="line"/>
      <point x="341" y="559"/>
      <point x="423" y="586"/>
      <point x="423" y="669" type="curve" smooth="yes"/>
      <point x="423" y="728"/>
      <point x="365" y="773"/>
      <point x="254" y="773" type="curve" smooth="yes"/>
      <point x="152" y="773"/>
      <point x="68" y="704"/>
      <point x="68" y="593" type="curve" smooth="yes"/>
      <point x="68" y="0" type="line"/>
      <point x="198" y="0" type="line"/>
      <point x="198" y="266" type="line" smooth="yes"/>
      <point x="198" y="353"/>
      <point x="221" y="423"/>
      <point x="273" y="423" type="curve" smooth="yes"/>
      <point x="319" y="423"/>
      <point x="349" y="380"/>
      <point x="349" y="264" type="curve" smooth="yes"/>
      <point x="349" y="141"/>
      <point x="339" y="60"/>
      <point x="293" y="45" type="curve"/>
      <point x="293" y="15"/>
      <point x="312" y="-8"/>
    </contour>
    <contour>
      <point x="198" y="560" type="curve"/>
      <point x="198" y="637" type="line" smooth="yes"/>
      <point x="198" y="685"/>
      <point x="219" y="715"/>
      <point x="255" y="715" type="curve" smooth="yes"/>
      <point x="289" y="715"/>
      <point x="304" y="695"/>
      <point x="304" y="664" type="curve" smooth="yes"/>
      <point x="304" y="622"/>
      <point x="280" y="588"/>
    </contour>
  </outline>
</glyph>
<glyph name="can-georgian" format="2">
  <advance width="585"/>
  <unicode hex="10EA"/>
  <note>
uni10EA
</note>
  <outline>
    <contour>
      <point x="305" y="-253" type="curve" smooth="yes"/>
      <point x="473" y="-253"/>
      <point x="551" y="-151"/>
      <point x="551" y="-36" type="curve" smooth="yes"/>
      <point x="551" y="92"/>
      <point x="492" y="156"/>
      <point x="419" y="172" type="curve"/>
      <point x="419" y="174" type="line"/>
      <point x="492" y="194"/>
      <point x="529" y="233"/>
      <point x="529" y="286" type="curve" smooth="yes"/>
      <point x="529" y="348"/>
      <point x="501" y="381"/>
      <point x="471" y="408" type="curve" smooth="yes"/>
      <point x="443" y="434"/>
      <point x="421" y="456"/>
      <point x="421" y="494" type="curve" smooth="yes"/>
      <point x="421" y="507"/>
      <point x="423" y="518"/>
      <point x="429" y="532" type="curve"/>
      <point x="416" y="543"/>
      <point x="402" y="549"/>
      <point x="375" y="549" type="curve" smooth="yes"/>
      <point x="330" y="549"/>
      <point x="305" y="516"/>
      <point x="305" y="479" type="curve" smooth="yes"/>
      <point x="305" y="429"/>
      <point x="328" y="402"/>
      <point x="354" y="374" type="curve" smooth="yes"/>
      <point x="377" y="350"/>
      <point x="396" y="322"/>
      <point x="396" y="276" type="curve" smooth="yes"/>
      <point x="396" y="236"/>
      <point x="369" y="203"/>
      <point x="317" y="203" type="curve" smooth="yes"/>
      <point x="286" y="203" type="line"/>
      <point x="286" y="138" type="line"/>
      <point x="318" y="138" type="line" smooth="yes"/>
      <point x="382" y="138"/>
      <point x="419" y="94"/>
      <point x="419" y="-34" type="curve" smooth="yes"/>
      <point x="419" y="-141"/>
      <point x="375" y="-194"/>
      <point x="306" y="-194" type="curve" smooth="yes"/>
      <point x="202" y="-194"/>
      <point x="171" y="-40"/>
      <point x="171" y="146" type="curve" smooth="yes"/>
      <point x="171" y="340"/>
      <point x="206" y="430"/>
      <point x="240" y="509" type="curve"/>
      <point x="178" y="548" type="line"/>
      <point x="109" y="477"/>
      <point x="39" y="355"/>
      <point x="39" y="147" type="curve" smooth="yes"/>
      <point x="39" y="-135"/>
      <point x="136" y="-253"/>
    </contour>
  </outline>
</glyph>
<glyph name="jil-georgian" format="2">
  <advance width="522"/>
  <unicode hex="10EB"/>
  <note>
uni10EB
</note>
  <outline>
    <contour>
      <point x="245" y="-10" type="curve" smooth="yes"/>
      <point x="381" y="-10"/>
      <point x="454" y="75"/>
      <point x="454" y="267" type="curve"/>
      <point x="454" y="760" type="line"/>
      <point x="262" y="760" type="line"/>
      <point x="262" y="711" type="line"/>
      <point x="274" y="711" type="line" smooth="yes"/>
      <point x="303" y="711"/>
      <point x="324" y="703"/>
      <point x="324" y="656" type="curve" smooth="yes"/>
      <point x="324" y="578" type="line" smooth="yes"/>
      <point x="324" y="539"/>
      <point x="324" y="498"/>
      <point x="326" y="468" type="curve"/>
      <point x="322" y="468" type="line"/>
      <point x="299" y="514"/>
      <point x="265" y="547"/>
      <point x="204" y="547" type="curve" smooth="yes"/>
      <point x="99" y="547"/>
      <point x="39" y="460"/>
      <point x="39" y="267" type="curve" smooth="yes"/>
      <point x="39" y="75"/>
      <point x="104" y="-10"/>
    </contour>
    <contour>
      <point x="245" y="49" type="curve" smooth="yes"/>
      <point x="191" y="49"/>
      <point x="171" y="118"/>
      <point x="171" y="267" type="curve" smooth="yes"/>
      <point x="171" y="405"/>
      <point x="191" y="482"/>
      <point x="244" y="482" type="curve" smooth="yes"/>
      <point x="305" y="482"/>
      <point x="324" y="405"/>
      <point x="324" y="268" type="curve" smooth="yes"/>
      <point x="324" y="126"/>
      <point x="303" y="49"/>
    </contour>
  </outline>
</glyph>
<glyph name="cil-georgian" format="2">
  <advance width="518"/>
  <unicode hex="10EC"/>
  <note>
uni10EC
</note>
  <outline>
    <contour>
      <point x="203" y="-240" type="line"/>
      <point x="320" y="-240" type="line"/>
      <point x="441" y="141" type="line" smooth="yes"/>
      <point x="461" y="205"/>
      <point x="475" y="265"/>
      <point x="475" y="314" type="curve" smooth="yes"/>
      <point x="475" y="434"/>
      <point x="416" y="506"/>
      <point x="310" y="506" type="curve" smooth="yes"/>
      <point x="239" y="506"/>
      <point x="197" y="466"/>
      <point x="177" y="410" type="curve"/>
      <point x="173" y="410" type="line"/>
      <point x="153" y="509" type="line" smooth="yes"/>
      <point x="146" y="546"/>
      <point x="141" y="602"/>
      <point x="141" y="636" type="curve" smooth="yes"/>
      <point x="141" y="687"/>
      <point x="152" y="715"/>
      <point x="177" y="715" type="curve" smooth="yes"/>
      <point x="200" y="715"/>
      <point x="210" y="692"/>
      <point x="210" y="641" type="curve" smooth="yes"/>
      <point x="210" y="587" type="line"/>
      <point x="320" y="587" type="line"/>
      <point x="320" y="641" type="line" smooth="yes"/>
      <point x="320" y="692"/>
      <point x="330" y="717"/>
      <point x="353" y="717" type="curve" smooth="yes"/>
      <point x="377" y="717"/>
      <point x="387" y="691"/>
      <point x="387" y="648" type="curve" smooth="yes"/>
      <point x="387" y="610"/>
      <point x="381" y="588"/>
      <point x="377" y="577" type="curve"/>
      <point x="393" y="571"/>
      <point x="414" y="567"/>
      <point x="433" y="567" type="curve" smooth="yes"/>
      <point x="469" y="567"/>
      <point x="505" y="600"/>
      <point x="505" y="659" type="curve" smooth="yes"/>
      <point x="505" y="731"/>
      <point x="453" y="774"/>
      <point x="378" y="774" type="curve" smooth="yes"/>
      <point x="327" y="774"/>
      <point x="284" y="753"/>
      <point x="267" y="705" type="curve"/>
      <point x="263" y="705" type="line"/>
      <point x="246" y="753"/>
      <point x="201" y="773"/>
      <point x="152" y="773" type="curve" smooth="yes"/>
      <point x="55" y="773"/>
      <point x="10" y="707"/>
      <point x="10" y="607" type="curve" smooth="yes"/>
      <point x="10" y="516"/>
      <point x="33" y="430"/>
      <point x="52" y="356" type="curve" smooth="yes"/>
    </contour>
    <contour>
      <point x="272" y="-157" type="curve"/>
      <point x="268" y="-118"/>
      <point x="256" y="-70"/>
      <point x="248" y="-21" type="curve" smooth="yes"/>
      <point x="210" y="209" type="line" smooth="yes"/>
      <point x="204" y="246"/>
      <point x="197" y="287"/>
      <point x="197" y="324" type="curve" smooth="yes"/>
      <point x="197" y="391"/>
      <point x="218" y="439"/>
      <point x="272" y="439" type="curve" smooth="yes"/>
      <point x="313" y="439"/>
      <point x="343" y="401"/>
      <point x="343" y="314" type="curve" smooth="yes"/>
      <point x="343" y="280"/>
      <point x="337" y="243"/>
      <point x="330" y="202" type="curve" smooth="yes"/>
      <point x="294" y="-22" type="line" smooth="yes"/>
      <point x="287" y="-64"/>
      <point x="278" y="-118"/>
    </contour>
  </outline>
</glyph>
<glyph name="char-georgian" format="2">
  <advance width="549"/>
  <unicode hex="10ED"/>
  <note>
uni10ED
</note>
  <outline>
    <contour>
      <point x="536" y="454" type="curve" smooth="yes"/>
      <point x="536" y="530"/>
      <point x="490" y="569"/>
      <point x="442" y="569" type="curve" smooth="yes"/>
      <point x="433" y="569"/>
      <point x="425" y="569"/>
      <point x="416" y="566" type="curve"/>
      <point x="430" y="527"/>
      <point x="435" y="493"/>
      <point x="435" y="454" type="curve" smooth="yes"/>
      <point x="435" y="373"/>
      <point x="418" y="319"/>
      <point x="371" y="293" type="curve"/>
      <point x="371" y="760" type="line"/>
      <point x="167" y="760" type="line"/>
      <point x="167" y="713" type="line"/>
      <point x="195" y="713" type="line" smooth="yes"/>
      <point x="235" y="713"/>
      <point x="244" y="704"/>
      <point x="244" y="653" type="curve" smooth="yes"/>
      <point x="244" y="512" type="line"/>
      <point x="225" y="531"/>
      <point x="199" y="542"/>
      <point x="165" y="542" type="curve" smooth="yes"/>
      <point x="95" y="542"/>
      <point x="34" y="493"/>
      <point x="34" y="397" type="curve" smooth="yes"/>
      <point x="34" y="305"/>
      <point x="101" y="230"/>
      <point x="248" y="222" type="curve"/>
      <point x="254" y="164"/>
      <point x="282" y="126"/>
      <point x="317" y="84" type="curve" smooth="yes"/>
      <point x="348" y="47"/>
      <point x="371" y="0"/>
      <point x="371" y="-73" type="curve" smooth="yes"/>
      <point x="371" y="-148"/>
      <point x="347" y="-195"/>
      <point x="284" y="-195" type="curve" smooth="yes"/>
      <point x="213" y="-195"/>
      <point x="193" y="-140"/>
      <point x="193" y="-66" type="curve" smooth="yes"/>
      <point x="193" y="-11"/>
      <point x="204" y="25"/>
      <point x="217" y="49" type="curve"/>
      <point x="205" y="59"/>
      <point x="187" y="64"/>
      <point x="169" y="64" type="curve" smooth="yes"/>
      <point x="122" y="64"/>
      <point x="72" y="28"/>
      <point x="72" y="-68" type="curve" smooth="yes"/>
      <point x="72" y="-173"/>
      <point x="143" y="-253"/>
      <point x="284" y="-253" type="curve" smooth="yes"/>
      <point x="413" y="-253"/>
      <point x="503" y="-182"/>
      <point x="503" y="-52" type="curve" smooth="yes"/>
      <point x="503" y="21"/>
      <point x="469" y="73"/>
      <point x="432" y="120" type="curve" smooth="yes"/>
      <point x="404" y="156"/>
      <point x="382" y="191"/>
      <point x="374" y="234" type="curve"/>
      <point x="483" y="265"/>
      <point x="536" y="349"/>
    </contour>
    <contour>
      <point x="158" y="401" type="curve" smooth="yes"/>
      <point x="158" y="461"/>
      <point x="178" y="491"/>
      <point x="202" y="491" type="curve" smooth="yes"/>
      <point x="224" y="491"/>
      <point x="244" y="473"/>
      <point x="244" y="414" type="curve" smooth="yes"/>
      <point x="244" y="278" type="line"/>
      <point x="177" y="291"/>
      <point x="158" y="341"/>
    </contour>
  </outline>
</glyph>
<glyph name="xan-georgian" format="2">
  <advance width="534"/>
  <unicode hex="10EE"/>
  <note>
uni10EE
</note>
  <outline>
    <contour>
      <point x="330" y="547" type="curve" smooth="yes"/>
      <point x="269" y="547"/>
      <point x="235" y="514"/>
      <point x="212" y="468" type="curve"/>
      <point x="208" y="468" type="line"/>
      <point x="210" y="498"/>
      <point x="210" y="539"/>
      <point x="210" y="578" type="curve" smooth="yes"/>
      <point x="210" y="760" type="line"/>
      <point x="17" y="760" type="line"/>
      <point x="17" y="711" type="line"/>
      <point x="22" y="711" type="line" smooth="yes"/>
      <point x="53" y="711"/>
      <point x="80" y="702"/>
      <point x="80" y="644" type="curve" smooth="yes"/>
      <point x="80" y="267" type="line" smooth="yes"/>
      <point x="80" y="75"/>
      <point x="153" y="-10"/>
      <point x="289" y="-10" type="curve" smooth="yes"/>
      <point x="430" y="-10"/>
      <point x="495" y="75"/>
      <point x="495" y="267" type="curve" smooth="yes"/>
      <point x="495" y="460"/>
      <point x="435" y="547"/>
    </contour>
    <contour>
      <point x="289" y="49" type="curve" smooth="yes"/>
      <point x="231" y="49"/>
      <point x="210" y="126"/>
      <point x="210" y="268" type="curve" smooth="yes"/>
      <point x="210" y="405"/>
      <point x="229" y="482"/>
      <point x="290" y="482" type="curve" smooth="yes"/>
      <point x="343" y="482"/>
      <point x="363" y="405"/>
      <point x="363" y="267" type="curve" smooth="yes"/>
      <point x="363" y="118"/>
      <point x="343" y="49"/>
    </contour>
  </outline>
</glyph>
<glyph name="jhan-georgian" format="2">
  <advance width="677"/>
  <unicode hex="10EF"/>
  <note>
uni10EF
</note>
  <outline>
    <contour>
      <point x="556" y="220" type="curve" smooth="yes"/>
      <point x="539" y="220"/>
      <point x="516" y="216"/>
      <point x="498" y="207" type="curve"/>
      <point x="510" y="178"/>
      <point x="515" y="154"/>
      <point x="515" y="118" type="curve" smooth="yes"/>
      <point x="515" y="75"/>
      <point x="502" y="47"/>
      <point x="477" y="47" type="curve" smooth="yes"/>
      <point x="449" y="47"/>
      <point x="437" y="77"/>
      <point x="428" y="120" type="curve" smooth="yes"/>
      <point x="401" y="245" type="line"/>
      <point x="527" y="303"/>
      <point x="610" y="353"/>
      <point x="610" y="443" type="curve" smooth="yes"/>
      <point x="610" y="517"/>
      <point x="544" y="549"/>
      <point x="490" y="549" type="curve" smooth="yes"/>
      <point x="440" y="549"/>
      <point x="407" y="524"/>
      <point x="407" y="501" type="curve" smooth="yes"/>
      <point x="407" y="490"/>
      <point x="410" y="482"/>
      <point x="416" y="474" type="curve"/>
      <point x="429" y="483"/>
      <point x="439" y="487"/>
      <point x="453" y="487" type="curve" smooth="yes"/>
      <point x="476" y="487"/>
      <point x="494" y="466"/>
      <point x="494" y="437" type="curve" smooth="yes"/>
      <point x="494" y="382"/>
      <point x="464" y="346"/>
      <point x="388" y="308" type="curve"/>
      <point x="368" y="403" type="line" smooth="yes"/>
      <point x="352" y="478"/>
      <point x="297" y="549"/>
      <point x="189" y="549" type="curve" smooth="yes"/>
      <point x="106" y="549"/>
      <point x="24" y="499"/>
      <point x="24" y="415" type="curve" smooth="yes"/>
      <point x="24" y="358"/>
      <point x="62" y="315"/>
      <point x="115" y="315" type="curve" smooth="yes"/>
      <point x="131" y="315"/>
      <point x="150" y="320"/>
      <point x="170" y="329" type="curve"/>
      <point x="158" y="355"/>
      <point x="152" y="382"/>
      <point x="152" y="416" type="curve" smooth="yes"/>
      <point x="152" y="460"/>
      <point x="164" y="489"/>
      <point x="190" y="489" type="curve" smooth="yes"/>
      <point x="217" y="489"/>
      <point x="228" y="456"/>
      <point x="238" y="408" type="curve" smooth="yes"/>
      <point x="270" y="253" type="line"/>
      <point x="192" y="209"/>
      <point x="137" y="155"/>
      <point x="97" y="82" type="curve"/>
      <point x="97" y="18" type="line"/>
      <point x="128" y="18" type="line" smooth="yes"/>
      <point x="191" y="18"/>
      <point x="218" y="-30"/>
      <point x="218" y="-98" type="curve" smooth="yes"/>
      <point x="218" y="-167"/>
      <point x="200" y="-196"/>
      <point x="170" y="-196" type="curve" smooth="yes"/>
      <point x="138" y="-196"/>
      <point x="124" y="-162"/>
      <point x="124" y="-112" type="curve" smooth="yes"/>
      <point x="124" y="-95"/>
      <point x="125" y="-75"/>
      <point x="130" y="-58" type="curve"/>
      <point x="116" y="-52"/>
      <point x="95" y="-49"/>
      <point x="84" y="-49" type="curve" smooth="yes"/>
      <point x="32" y="-49"/>
      <point x="6" y="-86"/>
      <point x="6" y="-126" type="curve" smooth="yes"/>
      <point x="6" y="-201"/>
      <point x="66" y="-253"/>
      <point x="171" y="-253" type="curve" smooth="yes"/>
      <point x="276" y="-253"/>
      <point x="338" y="-190"/>
      <point x="338" y="-101" type="curve" smooth="yes"/>
      <point x="338" y="-14"/>
      <point x="271" y="59"/>
      <point x="163" y="64" type="curve"/>
      <point x="163" y="68" type="line"/>
      <point x="186" y="113"/>
      <point x="226" y="152"/>
      <point x="284" y="187" type="curve"/>
      <point x="295" y="135" type="line" smooth="yes"/>
      <point x="312" y="56"/>
      <point x="373" y="-13"/>
      <point x="477" y="-13" type="curve" smooth="yes"/>
      <point x="562" y="-13"/>
      <point x="643" y="37"/>
      <point x="643" y="124" type="curve" smooth="yes"/>
      <point x="643" y="177"/>
      <point x="607" y="220"/>
    </contour>
  </outline>
</glyph>
<glyph name="hae-georgian" format="2">
  <advance width="472"/>
  <unicode hex="10F0"/>
  <note>
uni10F0
</note>
  <outline>
    <contour>
      <point x="232" y="-13" type="curve" smooth="yes"/>
      <point x="362" y="-13"/>
      <point x="433" y="55"/>
      <point x="433" y="137" type="curve" smooth="yes"/>
      <point x="433" y="205"/>
      <point x="390" y="245"/>
      <point x="322" y="261" type="curve"/>
      <point x="322" y="265" type="line"/>
      <point x="384" y="272"/>
      <point x="427" y="307"/>
      <point x="427" y="357" type="curve" smooth="yes"/>
      <point x="427" y="407"/>
      <point x="384" y="446"/>
      <point x="322" y="451" type="curve"/>
      <point x="322" y="456" type="line"/>
      <point x="382" y="468"/>
      <point x="418" y="497"/>
      <point x="418" y="547" type="curve" smooth="yes"/>
      <point x="418" y="598"/>
      <point x="366" y="637"/>
      <point x="327" y="661" type="curve" smooth="yes"/>
      <point x="293" y="682"/>
      <point x="272" y="699"/>
      <point x="272" y="725" type="curve" smooth="yes"/>
      <point x="272" y="737"/>
      <point x="274" y="745"/>
      <point x="280" y="756" type="curve"/>
      <point x="268" y="766"/>
      <point x="251" y="773"/>
      <point x="226" y="773" type="curve" smooth="yes"/>
      <point x="179" y="773"/>
      <point x="156" y="742"/>
      <point x="156" y="708" type="curve" smooth="yes"/>
      <point x="156" y="662"/>
      <point x="190" y="639"/>
      <point x="225" y="616" type="curve" smooth="yes"/>
      <point x="257" y="595"/>
      <point x="287" y="572"/>
      <point x="287" y="532" type="curve" smooth="yes"/>
      <point x="287" y="498"/>
      <point x="271" y="475"/>
      <point x="225" y="475" type="curve" smooth="yes"/>
      <point x="190" y="475" type="line"/>
      <point x="190" y="416" type="line"/>
      <point x="225" y="416" type="line" smooth="yes"/>
      <point x="270" y="416"/>
      <point x="295" y="394"/>
      <point x="295" y="357" type="curve" smooth="yes"/>
      <point x="295" y="319"/>
      <point x="271" y="296"/>
      <point x="225" y="296" type="curve" smooth="yes"/>
      <point x="190" y="296" type="line"/>
      <point x="190" y="237" type="line"/>
      <point x="227" y="237" type="line" smooth="yes"/>
      <point x="274" y="237"/>
      <point x="301" y="202"/>
      <point x="301" y="140" type="curve" smooth="yes"/>
      <point x="301" y="84"/>
      <point x="275" y="48"/>
      <point x="231" y="48" type="curve" smooth="yes"/>
      <point x="188" y="48"/>
      <point x="161" y="83"/>
      <point x="161" y="128" type="curve" smooth="yes"/>
      <point x="161" y="143"/>
      <point x="162" y="155"/>
      <point x="167" y="169" type="curve"/>
      <point x="153" y="179"/>
      <point x="138" y="184"/>
      <point x="117" y="184" type="curve" smooth="yes"/>
      <point x="60" y="184"/>
      <point x="34" y="143"/>
      <point x="34" y="106" type="curve" smooth="yes"/>
      <point x="34" y="46"/>
      <point x="96" y="-13"/>
    </contour>
  </outline>
</glyph>
<glyph name="he-georgian" format="2">
  <advance width="590"/>
  <unicode hex="10F1"/>
  <note>
uni10F1
</note>
  <outline>
    <contour>
      <point x="321" y="-13" type="curve" smooth="yes"/>
      <point x="472" y="-13"/>
      <point x="551" y="63"/>
      <point x="551" y="141" type="curve" smooth="yes"/>
      <point x="551" y="206"/>
      <point x="508" y="244"/>
      <point x="440" y="260" type="curve"/>
      <point x="440" y="265" type="line"/>
      <point x="502" y="271"/>
      <point x="545" y="306"/>
      <point x="545" y="356" type="curve" smooth="yes"/>
      <point x="545" y="407"/>
      <point x="502" y="445"/>
      <point x="440" y="452" type="curve"/>
      <point x="440" y="457" type="line"/>
      <point x="500" y="470"/>
      <point x="536" y="497"/>
      <point x="536" y="547" type="curve" smooth="yes"/>
      <point x="536" y="593"/>
      <point x="497" y="632"/>
      <point x="465" y="659" type="curve" smooth="yes"/>
      <point x="441" y="679"/>
      <point x="420" y="700"/>
      <point x="420" y="724" type="curve" smooth="yes"/>
      <point x="420" y="736"/>
      <point x="422" y="744"/>
      <point x="428" y="756" type="curve"/>
      <point x="416" y="767"/>
      <point x="399" y="773"/>
      <point x="373" y="773" type="curve" smooth="yes"/>
      <point x="328" y="773"/>
      <point x="304" y="741"/>
      <point x="304" y="708" type="curve" smooth="yes"/>
      <point x="304" y="665"/>
      <point x="333" y="636"/>
      <point x="358" y="614" type="curve" smooth="yes"/>
      <point x="391" y="584"/>
      <point x="406" y="568"/>
      <point x="406" y="532" type="curve" smooth="yes"/>
      <point x="406" y="499"/>
      <point x="389" y="476"/>
      <point x="343" y="476" type="curve" smooth="yes"/>
      <point x="309" y="476" type="line"/>
      <point x="309" y="416" type="line"/>
      <point x="343" y="416" type="line" smooth="yes"/>
      <point x="388" y="416"/>
      <point x="413" y="394"/>
      <point x="413" y="356" type="curve" smooth="yes"/>
      <point x="413" y="319"/>
      <point x="389" y="297"/>
      <point x="343" y="297" type="curve" smooth="yes"/>
      <point x="309" y="297" type="line"/>
      <point x="309" y="237" type="line"/>
      <point x="338" y="237" type="line" smooth="yes"/>
      <point x="385" y="237"/>
      <point x="418" y="203"/>
      <point x="418" y="145" type="curve" smooth="yes"/>
      <point x="418" y="86"/>
      <point x="383" y="46"/>
      <point x="322" y="46" type="curve" smooth="yes"/>
      <point x="202" y="46"/>
      <point x="171" y="200"/>
      <point x="171" y="386" type="curve" smooth="yes"/>
      <point x="171" y="565"/>
      <point x="206" y="655"/>
      <point x="239" y="734" type="curve"/>
      <point x="177" y="773" type="line"/>
      <point x="109" y="702"/>
      <point x="39" y="580"/>
      <point x="39" y="387" type="curve" smooth="yes"/>
      <point x="39" y="104"/>
      <point x="140" y="-13"/>
    </contour>
  </outline>
</glyph>
<glyph name="hie-georgian" format="2">
  <advance width="496"/>
  <unicode hex="10F2"/>
  <note>
uni10F2
</note>
  <outline>
    <contour>
      <point x="89" y="-13" type="curve" smooth="yes"/>
      <point x="127" y="-13"/>
      <point x="186" y="7"/>
      <point x="247" y="43" type="curve"/>
      <point x="307" y="7"/>
      <point x="361" y="-13"/>
      <point x="401" y="-13" type="curve" smooth="yes"/>
      <point x="442" y="-13"/>
      <point x="454" y="20"/>
      <point x="454" y="46" type="curve"/>
      <point x="404" y="46"/>
      <point x="353" y="58"/>
      <point x="307" y="86" type="curve"/>
      <point x="396" y="146"/>
      <point x="457" y="222"/>
      <point x="457" y="327" type="curve" smooth="yes"/>
      <point x="457" y="458"/>
      <point x="376" y="549"/>
      <point x="250" y="549" type="curve" smooth="yes"/>
      <point x="113" y="549"/>
      <point x="39" y="458"/>
      <point x="39" y="327" type="curve" smooth="yes"/>
      <point x="39" y="222"/>
      <point x="101" y="146"/>
      <point x="187" y="86" type="curve"/>
      <point x="142" y="58"/>
      <point x="91" y="46"/>
      <point x="42" y="46" type="curve"/>
      <point x="42" y="18"/>
      <point x="54" y="-13"/>
    </contour>
    <contour>
      <point x="247" y="130" type="curve"/>
      <point x="190" y="178"/>
      <point x="171" y="249"/>
      <point x="171" y="332" type="curve" smooth="yes"/>
      <point x="171" y="419"/>
      <point x="192" y="490"/>
      <point x="248" y="490" type="curve" smooth="yes"/>
      <point x="304" y="490"/>
      <point x="325" y="420"/>
      <point x="325" y="332" type="curve" smooth="yes"/>
      <point x="325" y="247"/>
      <point x="304" y="177"/>
    </contour>
  </outline>
</glyph>
<glyph name="we-georgian" format="2">
  <advance width="499"/>
  <unicode hex="10F3"/>
  <note>
uni10F3
</note>
  <outline>
    <contour>
      <point x="247" y="-253" type="curve" smooth="yes"/>
      <point x="380" y="-253"/>
      <point x="465" y="-175"/>
      <point x="465" y="-22" type="curve" smooth="yes"/>
      <point x="465" y="151"/>
      <point x="376" y="212"/>
      <point x="270" y="220" type="curve"/>
      <point x="436" y="469" type="line"/>
      <point x="436" y="536" type="line"/>
      <point x="84" y="536" type="line"/>
      <point x="73" y="356" type="line"/>
      <point x="115" y="356" type="line"/>
      <point x="122" y="380" type="line" smooth="yes"/>
      <point x="136" y="428"/>
      <point x="141" y="444"/>
      <point x="180" y="444" type="curve" smooth="yes"/>
      <point x="339" y="444" type="line"/>
      <point x="182" y="202" type="line"/>
      <point x="182" y="162" type="line"/>
      <point x="210" y="162" type="line" smooth="yes"/>
      <point x="288" y="162"/>
      <point x="333" y="107"/>
      <point x="333" y="-24" type="curve" smooth="yes"/>
      <point x="333" y="-141"/>
      <point x="303" y="-194"/>
      <point x="247" y="-194" type="curve" smooth="yes"/>
      <point x="191" y="-194"/>
      <point x="163" y="-141"/>
      <point x="163" y="-66" type="curve" smooth="yes"/>
      <point x="163" y="-11"/>
      <point x="174" y="25"/>
      <point x="186" y="49" type="curve"/>
      <point x="174" y="60"/>
      <point x="154" y="66"/>
      <point x="135" y="66" type="curve" smooth="yes"/>
      <point x="87" y="66"/>
      <point x="34" y="30"/>
      <point x="34" y="-68" type="curve" smooth="yes"/>
      <point x="34" y="-175"/>
      <point x="107" y="-253"/>
    </contour>
  </outline>
</glyph>
<glyph name="har-georgian" format="2">
  <advance width="479"/>
  <unicode hex="10F4"/>
  <note>
uni10F4
</note>
  <outline>
    <contour>
      <point x="239" y="-253" type="curve" smooth="yes"/>
      <point x="365" y="-253"/>
      <point x="445" y="-181"/>
      <point x="445" y="-22" type="curve" smooth="yes"/>
      <point x="445" y="123"/>
      <point x="357" y="189"/>
      <point x="256" y="198" type="curve"/>
      <point x="432" y="431" type="line"/>
      <point x="432" y="495" type="line"/>
      <point x="273" y="495" type="line" smooth="yes"/>
      <point x="195" y="495"/>
      <point x="155" y="531"/>
      <point x="155" y="609" type="curve" smooth="yes"/>
      <point x="155" y="682"/>
      <point x="183" y="726"/>
      <point x="231" y="726" type="curve" smooth="yes"/>
      <point x="288" y="726"/>
      <point x="307" y="673"/>
      <point x="307" y="588" type="curve"/>
      <point x="357" y="588"/>
      <point x="393" y="608"/>
      <point x="393" y="652" type="curve" smooth="yes"/>
      <point x="393" y="719"/>
      <point x="343" y="773"/>
      <point x="233" y="773" type="curve" smooth="yes"/>
      <point x="130" y="773"/>
      <point x="40" y="704"/>
      <point x="40" y="594" type="curve" smooth="yes"/>
      <point x="40" y="463"/>
      <point x="145" y="406"/>
      <point x="246" y="406" type="curve" smooth="yes"/>
      <point x="333" y="406" type="line"/>
      <point x="165" y="181" type="line"/>
      <point x="165" y="141" type="line"/>
      <point x="189" y="141" type="line" smooth="yes"/>
      <point x="267" y="141"/>
      <point x="313" y="89"/>
      <point x="313" y="-24" type="curve" smooth="yes"/>
      <point x="313" y="-147"/>
      <point x="291" y="-194"/>
      <point x="239" y="-194" type="curve" smooth="yes"/>
      <point x="185" y="-194"/>
      <point x="165" y="-141"/>
      <point x="165" y="-76" type="curve" smooth="yes"/>
      <point x="165" y="-31"/>
      <point x="176" y="5"/>
      <point x="188" y="29" type="curve"/>
      <point x="176" y="40"/>
      <point x="156" y="46"/>
      <point x="136" y="46" type="curve" smooth="yes"/>
      <point x="88" y="46"/>
      <point x="34" y="10"/>
      <point x="34" y="-78" type="curve" smooth="yes"/>
      <point x="34" y="-175"/>
      <point x="106" y="-253"/>
    </contour>
  </outline>
</glyph>
<glyph name="hoe-georgian" format="2">
  <advance width="575"/>
  <unicode hex="10F5"/>
  <note>
uni10F5
</note>
  <outline>
    <contour>
      <point x="254" y="-13" type="curve" smooth="yes"/>
      <point x="401" y="-13"/>
      <point x="463" y="61"/>
      <point x="463" y="175" type="curve" smooth="yes"/>
      <point x="463" y="279" type="line"/>
      <point x="565" y="279" type="line"/>
      <point x="565" y="336" type="line"/>
      <point x="463" y="336" type="line"/>
      <point x="463" y="425" type="line"/>
      <point x="565" y="425" type="line"/>
      <point x="565" y="482" type="line"/>
      <point x="463" y="482" type="line"/>
      <point x="463" y="585" type="line" smooth="yes"/>
      <point x="463" y="699"/>
      <point x="401" y="773"/>
      <point x="254" y="773" type="curve" smooth="yes"/>
      <point x="122" y="773"/>
      <point x="39" y="709"/>
      <point x="39" y="592" type="curve" smooth="yes"/>
      <point x="39" y="475"/>
      <point x="124" y="425"/>
      <point x="229" y="425" type="curve" smooth="yes"/>
      <point x="333" y="425" type="line"/>
      <point x="333" y="336" type="line"/>
      <point x="229" y="336" type="line" smooth="yes"/>
      <point x="124" y="336"/>
      <point x="39" y="286"/>
      <point x="39" y="168" type="curve" smooth="yes"/>
      <point x="39" y="51"/>
      <point x="122" y="-13"/>
    </contour>
    <contour>
      <point x="257" y="45" type="curve" smooth="yes"/>
      <point x="198" y="45"/>
      <point x="171" y="85"/>
      <point x="171" y="167" type="curve" smooth="yes"/>
      <point x="171" y="252"/>
      <point x="209" y="279"/>
      <point x="260" y="279" type="curve" smooth="yes"/>
      <point x="333" y="279" type="line"/>
      <point x="333" y="164" type="line" smooth="yes"/>
      <point x="333" y="91"/>
      <point x="317" y="45"/>
    </contour>
    <contour>
      <point x="260" y="482" type="line" smooth="yes"/>
      <point x="209" y="482"/>
      <point x="171" y="508"/>
      <point x="171" y="593" type="curve" smooth="yes"/>
      <point x="171" y="675"/>
      <point x="198" y="715"/>
      <point x="257" y="715" type="curve" smooth="yes"/>
      <point x="317" y="715"/>
      <point x="333" y="669"/>
      <point x="333" y="596" type="curve" smooth="yes"/>
      <point x="333" y="482" type="line"/>
    </contour>
  </outline>
</glyph>
<glyph name="fi-georgian" format="2">
  <advance width="779"/>
  <unicode hex="10F6"/>
  <note>
uni10F6
</note>
  <outline>
    <contour>
      <point x="267" y="-253" type="curve" smooth="yes"/>
      <point x="388" y="-253"/>
      <point x="454" y="-197"/>
      <point x="454" y="-88" type="curve" smooth="yes"/>
      <point x="454" y="-33" type="line" smooth="yes"/>
      <point x="454" y="6"/>
      <point x="453" y="47"/>
      <point x="451" y="80" type="curve"/>
      <point x="455" y="80" type="line"/>
      <point x="478" y="35"/>
      <point x="513" y="-1"/>
      <point x="574" y="-1" type="curve" smooth="yes"/>
      <point x="679" y="-1"/>
      <point x="740" y="85"/>
      <point x="740" y="268" type="curve" smooth="yes"/>
      <point x="740" y="448"/>
      <point x="679" y="537"/>
      <point x="574" y="537" type="curve" smooth="yes"/>
      <point x="513" y="537"/>
      <point x="478" y="503"/>
      <point x="455" y="458" type="curve"/>
      <point x="451" y="458" type="line"/>
      <point x="452" y="478"/>
      <point x="454" y="501"/>
      <point x="454" y="524" type="curve" smooth="yes"/>
      <point x="454" y="604" type="line" smooth="yes"/>
      <point x="454" y="676"/>
      <point x="469" y="709"/>
      <point x="502" y="709" type="curve" smooth="yes"/>
      <point x="535" y="709"/>
      <point x="545" y="669"/>
      <point x="543" y="614" type="curve"/>
      <point x="613" y="614"/>
      <point x="654" y="639"/>
      <point x="654" y="681" type="curve" smooth="yes"/>
      <point x="654" y="720"/>
      <point x="619" y="773"/>
      <point x="506" y="773" type="curve" smooth="yes"/>
      <point x="389" y="773"/>
      <point x="325" y="718"/>
      <point x="325" y="597" type="curve" smooth="yes"/>
      <point x="325" y="524" type="line" smooth="yes"/>
      <point x="325" y="502"/>
      <point x="327" y="479"/>
      <point x="328" y="456" type="curve"/>
      <point x="324" y="456" type="line"/>
      <point x="302" y="502"/>
      <point x="265" y="537"/>
      <point x="203" y="537" type="curve" smooth="yes"/>
      <point x="95" y="537"/>
      <point x="39" y="452"/>
      <point x="39" y="268" type="curve" smooth="yes"/>
      <point x="39" y="84"/>
      <point x="95" y="-1"/>
      <point x="203" y="-1" type="curve" smooth="yes"/>
      <point x="265" y="-1"/>
      <point x="302" y="36"/>
      <point x="324" y="82" type="curve"/>
      <point x="328" y="82" type="line"/>
      <point x="326" y="51"/>
      <point x="323" y="2"/>
      <point x="323" y="-36" type="curve" smooth="yes"/>
      <point x="323" y="-92" type="line" smooth="yes"/>
      <point x="323" y="-157"/>
      <point x="306" y="-189"/>
      <point x="275" y="-189" type="curve" smooth="yes"/>
      <point x="242" y="-189"/>
      <point x="231" y="-149"/>
      <point x="233" y="-95" type="curve"/>
      <point x="163" y="-95"/>
      <point x="122" y="-119"/>
      <point x="122" y="-161" type="curve" smooth="yes"/>
      <point x="122" y="-201"/>
      <point x="158" y="-253"/>
    </contour>
    <contour>
      <point x="245" y="64" type="curve" smooth="yes"/>
      <point x="193" y="64"/>
      <point x="171" y="135"/>
      <point x="171" y="267" type="curve" smooth="yes"/>
      <point x="171" y="401"/>
      <point x="193" y="472"/>
      <point x="245" y="472" type="curve" smooth="yes"/>
      <point x="311" y="472"/>
      <point x="324" y="378"/>
      <point x="324" y="268" type="curve" smooth="yes"/>
      <point x="324" y="157"/>
      <point x="311" y="64"/>
    </contour>
    <contour>
      <point x="533" y="64" type="curve" smooth="yes"/>
      <point x="472" y="64"/>
      <point x="454" y="143"/>
      <point x="454" y="268" type="curve" smooth="yes"/>
      <point x="454" y="393"/>
      <point x="472" y="472"/>
      <point x="533" y="472" type="curve" smooth="yes"/>
      <point x="587" y="472"/>
      <point x="608" y="395"/>
      <point x="608" y="268" type="curve" smooth="yes"/>
      <point x="608" y="139"/>
      <point x="587" y="64"/>
    </contour>
  </outline>
</glyph>
<glyph name="yn-georgian" format="2">
  <advance width="465"/>
  <unicode hex="10F7"/>
  <note>
uni10F7
</note>
  <anchor x="233" y="536" name="top"/>
  <outline>
    <contour>
      <point x="229" y="-253" type="curve" smooth="yes"/>
      <point x="363" y="-253"/>
      <point x="431" y="-175"/>
      <point x="431" y="-84" type="curve" smooth="yes"/>
      <point x="431" y="-6"/>
      <point x="392" y="30"/>
      <point x="350" y="30" type="curve" smooth="yes"/>
      <point x="330" y="30"/>
      <point x="310" y="24"/>
      <point x="299" y="14" type="curve"/>
      <point x="310" y="-11"/>
      <point x="317" y="-47"/>
      <point x="317" y="-81" type="curve" smooth="yes"/>
      <point x="317" y="-151"/>
      <point x="284" y="-194"/>
      <point x="229" y="-194" type="curve" smooth="yes"/>
      <point x="173" y="-194"/>
      <point x="136" y="-144"/>
      <point x="136" y="-68" type="curve" smooth="yes"/>
      <point x="136" y="32"/>
      <point x="189" y="72"/>
      <point x="264" y="128" type="curve" smooth="yes"/>
      <point x="346" y="189"/>
      <point x="416" y="256"/>
      <point x="416" y="363" type="curve" smooth="yes"/>
      <point x="416" y="471"/>
      <point x="358" y="549"/>
      <point x="237" y="549" type="curve" smooth="yes"/>
      <point x="126" y="549"/>
      <point x="59" y="494"/>
      <point x="59" y="417" type="curve" smooth="yes"/>
      <point x="59" y="364"/>
      <point x="93" y="334"/>
      <point x="129" y="334" type="curve" smooth="yes"/>
      <point x="147" y="334"/>
      <point x="161" y="338"/>
      <point x="178" y="344" type="curve"/>
      <point x="170" y="359"/>
      <point x="165" y="379"/>
      <point x="165" y="409" type="curve" smooth="yes"/>
      <point x="165" y="464"/>
      <point x="196" y="492"/>
      <point x="237" y="492" type="curve" smooth="yes"/>
      <point x="283" y="492"/>
      <point x="314" y="457"/>
      <point x="314" y="395" type="curve" smooth="yes"/>
      <point x="314" y="322"/>
      <point x="262" y="273"/>
      <point x="195" y="224" type="curve" smooth="yes"/>
      <point x="106" y="159"/>
      <point x="34" y="91"/>
      <point x="34" y="-39" type="curve" smooth="yes"/>
      <point x="34" y="-162"/>
      <point x="100" y="-253"/>
    </contour>
  </outline>
</glyph>
<glyph name="elifi-georgian" format="2">
  <advance width="511"/>
  <unicode hex="10F8"/>
  <note>
uni10F8
</note>
  <outline>
    <contour>
      <point x="268" y="-253" type="curve" smooth="yes"/>
      <point x="406" y="-253"/>
      <point x="472" y="-174"/>
      <point x="472" y="-68" type="curve" smooth="yes"/>
      <point x="472" y="29"/>
      <point x="418" y="66"/>
      <point x="371" y="66" type="curve" smooth="yes"/>
      <point x="351" y="66"/>
      <point x="332" y="60"/>
      <point x="320" y="49" type="curve"/>
      <point x="332" y="25"/>
      <point x="343" y="-11"/>
      <point x="343" y="-66" type="curve" smooth="yes"/>
      <point x="343" y="-140"/>
      <point x="323" y="-194"/>
      <point x="268" y="-194" type="curve" smooth="yes"/>
      <point x="216" y="-194"/>
      <point x="193" y="-146"/>
      <point x="193" y="-20" type="curve" smooth="yes"/>
      <point x="193" y="148" type="line" smooth="yes"/>
      <point x="193" y="181"/>
      <point x="191" y="213"/>
      <point x="187" y="245" type="curve"/>
      <point x="193" y="245" type="line"/>
      <point x="216" y="201"/>
      <point x="249" y="167"/>
      <point x="310" y="167" type="curve" smooth="yes"/>
      <point x="392" y="167"/>
      <point x="463" y="238"/>
      <point x="463" y="365" type="curve" smooth="yes"/>
      <point x="463" y="475"/>
      <point x="405" y="543"/>
      <point x="351" y="543" type="curve" smooth="yes"/>
      <point x="331" y="543"/>
      <point x="320" y="539"/>
      <point x="303" y="531" type="curve"/>
      <point x="322" y="499"/>
      <point x="338" y="449"/>
      <point x="338" y="374" type="curve" smooth="yes"/>
      <point x="338" y="278"/>
      <point x="308" y="234"/>
      <point x="267" y="234" type="curve" smooth="yes"/>
      <point x="221" y="234"/>
      <point x="193" y="284"/>
      <point x="193" y="359" type="curve" smooth="yes"/>
      <point x="193" y="536" type="line"/>
      <point x="63" y="536" type="line"/>
      <point x="63" y="-17" type="line" smooth="yes"/>
      <point x="63" y="-180"/>
      <point x="142" y="-253"/>
    </contour>
  </outline>
</glyph>
<glyph name="turnedgan-georgian" format="2">
  <advance width="506"/>
  <unicode hex="10F9"/>
  <note>
uni10F9
</note>
  <outline>
    <contour>
      <point x="254" y="549" type="curve" smooth="yes"/>
      <point x="112" y="549"/>
      <point x="39" y="458"/>
      <point x="39" y="266" type="curve" smooth="yes"/>
      <point x="39" y="114"/>
      <point x="92" y="26"/>
      <point x="189" y="1" type="curve"/>
      <point x="189" y="-3" type="line"/>
      <point x="125" y="-22"/>
      <point x="88" y="-67"/>
      <point x="88" y="-122" type="curve" smooth="yes"/>
      <point x="88" y="-204"/>
      <point x="165" y="-253"/>
      <point x="259" y="-253" type="curve" smooth="yes"/>
      <point x="362" y="-253"/>
      <point x="428" y="-204"/>
      <point x="428" y="-141" type="curve" smooth="yes"/>
      <point x="428" y="-94"/>
      <point x="394" y="-64"/>
      <point x="353" y="-64" type="curve" smooth="yes"/>
      <point x="334" y="-64"/>
      <point x="313" y="-68"/>
      <point x="296" y="-74" type="curve"/>
      <point x="301" y="-85"/>
      <point x="307" y="-105"/>
      <point x="307" y="-132" type="curve" smooth="yes"/>
      <point x="307" y="-169"/>
      <point x="290" y="-196"/>
      <point x="259" y="-196" type="curve" smooth="yes"/>
      <point x="227" y="-196"/>
      <point x="209" y="-169"/>
      <point x="209" y="-125" type="curve" smooth="yes"/>
      <point x="209" y="-75"/>
      <point x="222" y="-30"/>
      <point x="280" y="-15" type="curve" smooth="yes"/>
      <point x="408" y="18"/>
      <point x="467" y="90"/>
      <point x="467" y="266" type="curve" smooth="yes"/>
      <point x="467" y="458"/>
      <point x="386" y="549"/>
    </contour>
    <contour>
      <point x="252" y="490" type="curve" smooth="yes"/>
      <point x="312" y="490"/>
      <point x="335" y="415"/>
      <point x="335" y="266" type="curve" smooth="yes"/>
      <point x="335" y="121"/>
      <point x="313" y="47"/>
      <point x="253" y="47" type="curve" smooth="yes"/>
      <point x="192" y="47"/>
      <point x="171" y="121"/>
      <point x="171" y="266" type="curve" smooth="yes"/>
      <point x="171" y="415"/>
      <point x="191" y="490"/>
    </contour>
  </outline>
</glyph>
<glyph name="ain-georgian" format="2">
  <advance width="439"/>
  <unicode hex="10FA"/>
  <note>
uni10FA
</note>
  <outline>
    <contour>
      <point x="80" y="-105" type="line"/>
      <point x="405" y="51" type="line"/>
      <point x="405" y="127" type="line"/>
      <point x="383" y="107"/>
      <point x="319" y="69"/>
      <point x="266" y="69" type="curve" smooth="yes"/>
      <point x="199" y="69"/>
      <point x="170" y="140"/>
      <point x="170" y="267" type="curve" smooth="yes"/>
      <point x="170" y="438"/>
      <point x="199" y="491"/>
      <point x="244" y="491" type="curve" smooth="yes"/>
      <point x="284" y="491"/>
      <point x="295" y="433"/>
      <point x="295" y="366" type="curve"/>
      <point x="386" y="366"/>
      <point x="405" y="400"/>
      <point x="405" y="444" type="curve" smooth="yes"/>
      <point x="405" y="503"/>
      <point x="357" y="548"/>
      <point x="241" y="548" type="curve" smooth="yes"/>
      <point x="128" y="548"/>
      <point x="39" y="481"/>
      <point x="39" y="273" type="curve" smooth="yes"/>
      <point x="39" y="104"/>
      <point x="99" y="24"/>
      <point x="178" y="6" type="curve"/>
      <point x="80" y="-42" type="line"/>
    </contour>
  </outline>
</glyph>
<glyph name="paragraph-georgian" format="2">
  <advance width="508"/>
  <unicode hex="10FB"/>
  <note>
uni10FB
</note>
  <outline>
    <contour>
      <point x="379" y="197" type="curve" smooth="yes"/>
      <point x="416" y="197"/>
      <point x="445" y="216"/>
      <point x="445" y="271" type="curve" smooth="yes"/>
      <point x="445" y="327"/>
      <point x="416" y="345"/>
      <point x="379" y="345" type="curve" smooth="yes"/>
      <point x="345" y="345"/>
      <point x="315" y="327"/>
      <point x="315" y="271" type="curve" smooth="yes"/>
      <point x="315" y="216"/>
      <point x="345" y="197"/>
    </contour>
    <contour>
      <point x="129" y="-8" type="curve" smooth="yes"/>
      <point x="165" y="-8"/>
      <point x="194" y="10"/>
      <point x="194" y="66" type="curve" smooth="yes"/>
      <point x="194" y="122"/>
      <point x="165" y="139"/>
      <point x="129" y="139" type="curve" smooth="yes"/>
      <point x="94" y="139"/>
      <point x="64" y="122"/>
      <point x="64" y="66" type="curve" smooth="yes"/>
      <point x="64" y="10"/>
      <point x="94" y="-8"/>
    </contour>
    <contour>
      <point x="128" y="394" type="curve" smooth="yes"/>
      <point x="165" y="394"/>
      <point x="193" y="412"/>
      <point x="193" y="467" type="curve" smooth="yes"/>
      <point x="193" y="523"/>
      <point x="165" y="541"/>
      <point x="128" y="541" type="curve" smooth="yes"/>
      <point x="93" y="541"/>
      <point x="63" y="523"/>
      <point x="63" y="467" type="curve" smooth="yes"/>
      <point x="63" y="412"/>
      <point x="93" y="394"/>
    </contour>
  </outline>
</glyph>
<glyph name="narMod-georgian" format="2">
  <advance width="326"/>
  <unicode hex="10FC"/>
  <note>
uni10FC
</note>
  <outline>
    <contour>
      <point x="169" y="381" type="curve" smooth="yes"/>
      <point x="258" y="381"/>
      <point x="306" y="442"/>
      <point x="306" y="538" type="curve" smooth="yes"/>
      <point x="306" y="636"/>
      <point x="268" y="693"/>
      <point x="203" y="693" type="curve" smooth="yes"/>
      <point x="172" y="693"/>
      <point x="148" y="678"/>
      <point x="134" y="654" type="curve"/>
      <point x="132" y="654" type="line"/>
      <point x="133" y="672"/>
      <point x="134" y="688"/>
      <point x="134" y="702" type="curve" smooth="yes"/>
      <point x="134" y="727" type="line" smooth="yes"/>
      <point x="134" y="759"/>
      <point x="144" y="775"/>
      <point x="169" y="775" type="curve" smooth="yes"/>
      <point x="207" y="775"/>
      <point x="210" y="743"/>
      <point x="252" y="743" type="curve" smooth="yes"/>
      <point x="271" y="743"/>
      <point x="291" y="760"/>
      <point x="291" y="786" type="curve" smooth="yes"/>
      <point x="291" y="806"/>
      <point x="280" y="818"/>
      <point x="269" y="824" type="curve"/>
      <point x="257" y="813"/>
      <point x="247" y="809"/>
      <point x="230" y="809" type="curve" smooth="yes"/>
      <point x="205" y="809"/>
      <point x="186" y="821"/>
      <point x="147" y="821" type="curve" smooth="yes"/>
      <point x="86" y="821"/>
      <point x="30" y="784"/>
      <point x="30" y="701" type="curve" smooth="yes"/>
      <point x="30" y="535" type="line" smooth="yes"/>
      <point x="30" y="438"/>
      <point x="78" y="381"/>
    </contour>
    <contour>
      <point x="169" y="418" type="curve" smooth="yes"/>
      <point x="142" y="418"/>
      <point x="134" y="450"/>
      <point x="134" y="534" type="curve" smooth="yes"/>
      <point x="134" y="619"/>
      <point x="141" y="651"/>
      <point x="169" y="651" type="curve" smooth="yes"/>
      <point x="192" y="651"/>
      <point x="203" y="620"/>
      <point x="203" y="534" type="curve" smooth="yes"/>
      <point x="203" y="448"/>
      <point x="192" y="418"/>
    </contour>
  </outline>
</glyph>
<glyph name="aen-georgian" format="2">
  <advance width="466"/>
  <unicode hex="10FD"/>
  <outline>
    <contour>
      <point x="236" y="-13" type="curve" smooth="yes"/>
      <point x="364" y="-13"/>
      <point x="432" y="78"/>
      <point x="432" y="201" type="curve" smooth="yes"/>
      <point x="432" y="331"/>
      <point x="360" y="401"/>
      <point x="270" y="465" type="curve" smooth="yes"/>
      <point x="203" y="513"/>
      <point x="150" y="563"/>
      <point x="150" y="626" type="curve" smooth="yes"/>
      <point x="150" y="684"/>
      <point x="182" y="716"/>
      <point x="228" y="716" type="curve" smooth="yes"/>
      <point x="269" y="716"/>
      <point x="299" y="688"/>
      <point x="299" y="639" type="curve" smooth="yes"/>
      <point x="299" y="609"/>
      <point x="293" y="589"/>
      <point x="286" y="574" type="curve"/>
      <point x="302" y="568"/>
      <point x="317" y="564"/>
      <point x="334" y="564" type="curve" smooth="yes"/>
      <point x="369" y="564"/>
      <point x="404" y="594"/>
      <point x="404" y="647" type="curve" smooth="yes"/>
      <point x="404" y="718"/>
      <point x="338" y="773"/>
      <point x="228" y="773" type="curve" smooth="yes"/>
      <point x="107" y="773"/>
      <point x="49" y="698"/>
      <point x="49" y="600" type="curve" smooth="yes"/>
      <point x="49" y="497"/>
      <point x="118" y="429"/>
      <point x="201" y="368" type="curve" smooth="yes"/>
      <point x="277" y="312"/>
      <point x="326" y="272"/>
      <point x="326" y="172" type="curve" smooth="yes"/>
      <point x="326" y="96"/>
      <point x="292" y="46"/>
      <point x="236" y="46" type="curve" smooth="yes"/>
      <point x="180" y="46"/>
      <point x="147" y="89"/>
      <point x="147" y="159" type="curve" smooth="yes"/>
      <point x="147" y="193"/>
      <point x="154" y="229"/>
      <point x="166" y="254" type="curve"/>
      <point x="154" y="264"/>
      <point x="135" y="270"/>
      <point x="115" y="270" type="curve" smooth="yes"/>
      <point x="73" y="270"/>
      <point x="34" y="234"/>
      <point x="34" y="156" type="curve" smooth="yes"/>
      <point x="34" y="65"/>
      <point x="102" y="-13"/>
    </contour>
  </outline>
</glyph>
<glyph name="hardsign-georgian" format="2">
  <advance width="496"/>
  <unicode hex="10FE"/>
  <outline>
    <contour>
      <point x="89" y="549" type="curve" smooth="yes"/>
      <point x="54" y="549"/>
      <point x="42" y="518"/>
      <point x="42" y="490" type="curve"/>
      <point x="91" y="490"/>
      <point x="142" y="478"/>
      <point x="187" y="450" type="curve"/>
      <point x="101" y="390"/>
      <point x="39" y="314"/>
      <point x="39" y="209" type="curve" smooth="yes"/>
      <point x="39" y="78"/>
      <point x="113" y="-13"/>
      <point x="250" y="-13" type="curve" smooth="yes"/>
      <point x="376" y="-13"/>
      <point x="457" y="78"/>
      <point x="457" y="209" type="curve" smooth="yes"/>
      <point x="457" y="314"/>
      <point x="396" y="390"/>
      <point x="307" y="450" type="curve"/>
      <point x="353" y="478"/>
      <point x="404" y="490"/>
      <point x="454" y="490" type="curve"/>
      <point x="454" y="516"/>
      <point x="442" y="549"/>
      <point x="401" y="549" type="curve" smooth="yes"/>
      <point x="361" y="549"/>
      <point x="307" y="529"/>
      <point x="247" y="493" type="curve"/>
      <point x="186" y="529"/>
      <point x="127" y="549"/>
    </contour>
    <contour>
      <point x="247" y="406" type="curve"/>
      <point x="304" y="359"/>
      <point x="325" y="289"/>
      <point x="325" y="204" type="curve" smooth="yes"/>
      <point x="325" y="116"/>
      <point x="304" y="46"/>
      <point x="248" y="46" type="curve" smooth="yes"/>
      <point x="192" y="46"/>
      <point x="171" y="117"/>
      <point x="171" y="204" type="curve" smooth="yes"/>
      <point x="171" y="287"/>
      <point x="190" y="358"/>
    </contour>
  </outline>
</glyph>
<glyph name="labial-georgian" format="2">
  <advance width="506"/>
  <unicode hex="10FF"/>
  <outline>
    <contour>
      <point x="252" y="-10" type="curve" smooth="yes"/>
      <point x="394" y="-10"/>
      <point x="467" y="81"/>
      <point x="467" y="269" type="curve" smooth="yes"/>
      <point x="467" y="458"/>
      <point x="387" y="549"/>
      <point x="255" y="549" type="curve" smooth="yes"/>
      <point x="113" y="549"/>
      <point x="39" y="458"/>
      <point x="39" y="269" type="curve" smooth="yes"/>
      <point x="39" y="81"/>
      <point x="120" y="-10"/>
    </contour>
    <contour>
      <point x="254" y="49" type="curve" smooth="yes"/>
      <point x="194" y="49"/>
      <point x="172" y="125"/>
      <point x="172" y="269" type="curve" smooth="yes"/>
      <point x="172" y="415"/>
      <point x="193" y="489"/>
      <point x="253" y="489" type="curve" smooth="yes"/>
      <point x="314" y="489"/>
      <point x="335" y="415"/>
      <point x="335" y="269" type="curve" smooth="yes"/>
      <point x="335" y="125"/>
      <point x="315" y="49"/>
    </contour>
  </outline>
</glyph>
<glyph name="An-georgian" format="2">
  <advance width="516"/>
  <unicode hex="1C90"/>
  <anchor x="266" y="714" name="top"/>
  <outline>
    <contour>
      <point x="254" y="-10" type="curve" smooth="yes"/>
      <point x="373" y="-10"/>
      <point x="473" y="65"/>
      <point x="473" y="214" type="curve" smooth="yes"/>
      <point x="473" y="327"/>
      <point x="424" y="401"/>
      <point x="380" y="468" type="curve" smooth="yes"/>
      <point x="345" y="521"/>
      <point x="317" y="570"/>
      <point x="317" y="632" type="curve" smooth="yes"/>
      <point x="317" y="658"/>
      <point x="323" y="688"/>
      <point x="333" y="705" type="curve"/>
      <point x="320" y="717"/>
      <point x="304" y="725"/>
      <point x="277" y="725" type="curve" smooth="yes"/>
      <point x="223" y="725"/>
      <point x="186" y="685"/>
      <point x="186" y="623" type="curve" smooth="yes"/>
      <point x="186" y="548"/>
      <point x="224" y="482"/>
      <point x="263" y="424" type="curve" smooth="yes"/>
      <point x="299" y="370"/>
      <point x="332" y="308"/>
      <point x="332" y="207" type="curve" smooth="yes"/>
      <point x="332" y="99"/>
      <point x="304" y="51"/>
      <point x="253" y="51" type="curve" smooth="yes"/>
      <point x="201" y="51"/>
      <point x="174" y="104"/>
      <point x="174" y="207" type="curve" smooth="yes"/>
      <point x="174" y="260"/>
      <point x="184" y="299"/>
      <point x="203" y="337" type="curve"/>
      <point x="184" y="348"/>
      <point x="166" y="354"/>
      <point x="144" y="354" type="curve" smooth="yes"/>
      <point x="86" y="354"/>
      <point x="37" y="294"/>
      <point x="37" y="205" type="curve" smooth="yes"/>
      <point x="37" y="65"/>
      <point x="135" y="-10"/>
    </contour>
  </outline>
</glyph>
<glyph name="Ban-georgian" format="2">
  <advance width="542"/>
  <unicode hex="1C91"/>
  <outline>
    <contour>
      <point x="270" y="-10" type="curve" smooth="yes"/>
      <point x="418" y="-10"/>
      <point x="499" y="76"/>
      <point x="499" y="254" type="curve" smooth="yes"/>
      <point x="499" y="427"/>
      <point x="431" y="513"/>
      <point x="272" y="513" type="curve"/>
      <point x="117" y="513"/>
      <point x="43" y="434"/>
      <point x="43" y="254" type="curve" smooth="yes"/>
      <point x="43" y="77"/>
      <point x="130" y="-10"/>
    </contour>
    <contour>
      <point x="272" y="50" type="curve" smooth="yes"/>
      <point x="206" y="50"/>
      <point x="184" y="123"/>
      <point x="184" y="254" type="curve" smooth="yes"/>
      <point x="184" y="386"/>
      <point x="205" y="457"/>
      <point x="271" y="457" type="curve" smooth="yes"/>
      <point x="336" y="457"/>
      <point x="358" y="386"/>
      <point x="358" y="254" type="curve" smooth="yes"/>
      <point x="358" y="121"/>
      <point x="336" y="50"/>
    </contour>
    <contour>
      <point x="219" y="498" type="curve"/>
      <point x="340" y="497" type="line"/>
      <point x="354" y="515"/>
      <point x="362" y="530"/>
      <point x="362" y="551" type="curve" smooth="yes"/>
      <point x="362" y="623"/>
      <point x="274" y="628"/>
      <point x="274" y="677" type="curve" smooth="yes"/>
      <point x="274" y="687"/>
      <point x="276" y="697"/>
      <point x="281" y="706" type="curve"/>
      <point x="268" y="717"/>
      <point x="249" y="725"/>
      <point x="222" y="725" type="curve" smooth="yes"/>
      <point x="178" y="725"/>
      <point x="143" y="703"/>
      <point x="143" y="664" type="curve" smooth="yes"/>
      <point x="143" y="589"/>
      <point x="231" y="591"/>
      <point x="231" y="536" type="curve" smooth="yes"/>
      <point x="231" y="523"/>
      <point x="226" y="507"/>
    </contour>
  </outline>
</glyph>
<glyph name="Gan-georgian" format="2">
  <advance width="532"/>
  <unicode hex="1C92"/>
  <outline>
    <contour>
      <point x="266" y="-10" type="curve" smooth="yes"/>
      <point x="413" y="-10"/>
      <point x="495" y="77"/>
      <point x="495" y="252" type="curve" smooth="yes"/>
      <point x="495" y="396"/>
      <point x="440" y="468"/>
      <point x="343" y="489" type="curve"/>
      <point x="343" y="493" type="line"/>
      <point x="401" y="508"/>
      <point x="445" y="548"/>
      <point x="445" y="603" type="curve" smooth="yes"/>
      <point x="445" y="680"/>
      <point x="362" y="725"/>
      <point x="261" y="725" type="curve" smooth="yes"/>
      <point x="155" y="725"/>
      <point x="77" y="680"/>
      <point x="77" y="615" type="curve" smooth="yes"/>
      <point x="77" y="573"/>
      <point x="111" y="547"/>
      <point x="157" y="547" type="curve" smooth="yes"/>
      <point x="177" y="547"/>
      <point x="199" y="552"/>
      <point x="217" y="558" type="curve"/>
      <point x="212" y="569"/>
      <point x="206" y="588"/>
      <point x="206" y="612" type="curve" smooth="yes"/>
      <point x="206" y="643"/>
      <point x="225" y="668"/>
      <point x="261" y="668" type="curve" smooth="yes"/>
      <point x="295" y="668"/>
      <point x="316" y="644"/>
      <point x="316" y="600" type="curve" smooth="yes"/>
      <point x="316" y="563"/>
      <point x="306" y="522"/>
      <point x="238" y="510" type="curve" smooth="yes"/>
      <point x="107" y="487"/>
      <point x="37" y="410"/>
      <point x="37" y="252" type="curve" smooth="yes"/>
      <point x="37" y="77"/>
      <point x="125" y="-10"/>
    </contour>
    <contour>
      <point x="268" y="50" type="curve" smooth="yes"/>
      <point x="201" y="50"/>
      <point x="178" y="122"/>
      <point x="178" y="252" type="curve" smooth="yes"/>
      <point x="178" y="381"/>
      <point x="200" y="453"/>
      <point x="266" y="455" type="curve" smooth="yes"/>
      <point x="329" y="457"/>
      <point x="354" y="387"/>
      <point x="354" y="252" type="curve" smooth="yes"/>
      <point x="354" y="120"/>
      <point x="331" y="50"/>
    </contour>
  </outline>
</glyph>
<glyph name="Don-georgian" format="2">
  <advance width="806"/>
  <unicode hex="1C93"/>
  <outline>
    <contour>
      <point x="544" y="252" type="curve" smooth="yes"/>
      <point x="677" y="252"/>
      <point x="763" y="338"/>
      <point x="763" y="489" type="curve" smooth="yes"/>
      <point x="763" y="640"/>
      <point x="685" y="725"/>
      <point x="549" y="725" type="curve" smooth="yes"/>
      <point x="485" y="725"/>
      <point x="420" y="697"/>
      <point x="396" y="637" type="curve"/>
      <point x="392" y="637" type="line"/>
      <point x="368" y="697"/>
      <point x="307" y="725"/>
      <point x="246" y="725" type="curve" smooth="yes"/>
      <point x="129" y="725"/>
      <point x="43" y="641"/>
      <point x="43" y="483" type="curve" smooth="yes"/>
      <point x="43" y="316"/>
      <point x="127" y="206"/>
      <point x="272" y="155" type="curve"/>
      <point x="272" y="151" type="line"/>
      <point x="232" y="146"/>
      <point x="189" y="131"/>
      <point x="164" y="115" type="curve"/>
      <point x="185" y="75" type="line"/>
      <point x="227" y="94"/>
      <point x="282" y="110"/>
      <point x="349" y="110" type="curve" smooth="yes"/>
      <point x="449" y="110"/>
      <point x="537" y="64"/>
      <point x="537" y="-4" type="curve"/>
      <point x="587" y="-4"/>
      <point x="624" y="9"/>
      <point x="624" y="56" type="curve" smooth="yes"/>
      <point x="624" y="122"/>
      <point x="550" y="163"/>
      <point x="437" y="192" type="curve" smooth="yes"/>
      <point x="285" y="231"/>
      <point x="184" y="299"/>
      <point x="184" y="488" type="curve" smooth="yes"/>
      <point x="184" y="612"/>
      <point x="205" y="665"/>
      <point x="256" y="665" type="curve" smooth="yes"/>
      <point x="319" y="665"/>
      <point x="325" y="607"/>
      <point x="325" y="538" type="curve" smooth="yes"/>
      <point x="325" y="489" type="line" smooth="yes"/>
      <point x="325" y="338"/>
      <point x="406" y="252"/>
    </contour>
    <contour>
      <point x="542" y="665" type="curve" smooth="yes"/>
      <point x="602" y="665"/>
      <point x="623" y="614"/>
      <point x="623" y="489" type="curve" smooth="yes"/>
      <point x="623" y="368"/>
      <point x="601" y="312"/>
      <point x="543" y="312" type="curve" smooth="yes"/>
      <point x="486" y="312"/>
      <point x="461" y="368"/>
      <point x="461" y="489" type="curve" smooth="yes"/>
      <point x="461" y="612"/>
      <point x="484" y="665"/>
    </contour>
  </outline>
</glyph>
<glyph name="En-georgian" format="2">
  <advance width="541"/>
  <unicode hex="1C94"/>
  <anchor x="262" y="714" name="top"/>
  <outline>
    <contour>
      <point x="257" y="-10" type="curve" smooth="yes"/>
      <point x="398" y="-10"/>
      <point x="477" y="69"/>
      <point x="477" y="223" type="curve" smooth="yes"/>
      <point x="477" y="517" type="line" smooth="yes"/>
      <point x="477" y="661"/>
      <point x="388" y="725"/>
      <point x="263" y="725" type="curve" smooth="yes"/>
      <point x="142" y="725"/>
      <point x="55" y="663"/>
      <point x="55" y="570" type="curve" smooth="yes"/>
      <point x="55" y="505"/>
      <point x="94" y="463"/>
      <point x="150" y="463" type="curve" smooth="yes"/>
      <point x="167" y="463"/>
      <point x="188" y="466"/>
      <point x="206" y="472" type="curve"/>
      <point x="194" y="498"/>
      <point x="190" y="530"/>
      <point x="190" y="559" type="curve" smooth="yes"/>
      <point x="190" y="617"/>
      <point x="211" y="666"/>
      <point x="265" y="666" type="curve" smooth="yes"/>
      <point x="318" y="666"/>
      <point x="342" y="623"/>
      <point x="342" y="550" type="curve" smooth="yes"/>
      <point x="342" y="176" type="line" smooth="yes"/>
      <point x="342" y="101"/>
      <point x="318" y="50"/>
      <point x="257" y="50" type="curve" smooth="yes"/>
      <point x="199" y="50"/>
      <point x="176" y="97"/>
      <point x="176" y="173" type="curve" smooth="yes"/>
      <point x="176" y="237"/>
      <point x="190" y="272"/>
      <point x="203" y="294" type="curve"/>
      <point x="190" y="304"/>
      <point x="170" y="311"/>
      <point x="149" y="311" type="curve" smooth="yes"/>
      <point x="96" y="311"/>
      <point x="37" y="278"/>
      <point x="37" y="177" type="curve" smooth="yes"/>
      <point x="37" y="60"/>
      <point x="115" y="-10"/>
    </contour>
  </outline>
</glyph>
